<svg width="202" height="170" viewBox="0 0 202 170" fill="none" xmlns="http://www.w3.org/2000/svg">
<mask id="mask0_2_2891" style="mask-type:alpha" maskUnits="userSpaceOnUse" x="23" y="7" width="179" height="161">
<path d="M202 7C155.567 72.5292 95.2756 127.031 25.4073 166.635L23 168L202 168V7Z" fill="#BEBEBE"/>
</mask>
<g mask="url(#mask0_2_2891)">
<path d="M202 7C155.567 72.5292 95.2756 127.031 25.4073 166.635L23 168L202 168V7Z" fill="white"/>
<path d="M202 95C155.468 127.67 102.87 150.7 47.3025 162.736L23 168L202 168V95Z" fill="#FF4D15" fill-opacity="0.5"/>
<path d="M202 57C155.502 102.836 100.012 138.543 39.0291 161.869L23 168L202 168V57Z" fill="#FF4D15" fill-opacity="0.5"/>
<path d="M202 127C155.304 147.532 105.598 160.387 54.8027 165.069L23 168L202 168V127Z" fill="#FF4D15"/>
</g>
<path d="M4.3 9V7.94H1.05C0.45 7.94 0.15 7.54333 0.15 6.75C0.15 6.48333 0.183333 6.26667 0.25 6.1C0.323333 5.92667 0.443333 5.75667 0.61 5.59L3.9 2.35C4.18667 2.06333 4.57667 1.92 5.07 1.92C5.75667 1.92 6.1 2.22 6.1 2.82V6.54H7.06V7.94H6.09V9H4.3ZM4.3 6.54V3.96C4.3 3.93333 4.28667 3.92 4.26 3.92C4.24 3.92 4.2 3.95333 4.14 4.02L1.93 6.27C1.87 6.33 1.84 6.38333 1.84 6.43C1.84 6.50333 1.88333 6.54 1.97 6.54H4.3ZM15.2545 5.67L14.1645 8.58C14.0445 8.9 13.7779 9.06 13.3645 9.06C12.9512 9.06 12.6845 8.9 12.5645 8.58L11.4645 5.68C11.4379 5.59333 11.4045 5.55 11.3645 5.55C11.3245 5.55 11.3045 5.58667 11.3045 5.66L11.3745 9H9.81453V4.53C9.81453 4.23667 9.92453 4.01667 10.1445 3.87C10.3712 3.71667 10.6479 3.64 10.9745 3.64C11.2745 3.64 11.5112 3.69333 11.6845 3.8C11.8645 3.9 12.0045 4.08 12.1045 4.34L13.1945 7.17C13.2545 7.31667 13.3112 7.39 13.3645 7.39C13.4179 7.39 13.4745 7.31667 13.5345 7.17L14.6145 4.34C14.7145 4.08 14.8512 3.9 15.0245 3.8C15.2045 3.69333 15.4479 3.64 15.7545 3.64C16.0745 3.64 16.3479 3.71667 16.5745 3.87C16.8012 4.01667 16.9145 4.23667 16.9145 4.53V9H15.3545L15.4245 5.65C15.4245 5.57667 15.4012 5.54 15.3545 5.54C15.3145 5.54 15.2812 5.58333 15.2545 5.67ZM22.014 9L20.524 5.38C20.5173 5.36667 20.5107 5.35 20.504 5.33C20.4973 5.31 20.4907 5.29333 20.484 5.28C20.4773 5.26667 20.4707 5.25667 20.464 5.25C20.4573 5.23667 20.4507 5.22667 20.444 5.22C20.4373 5.21333 20.4273 5.21 20.414 5.21C20.4007 5.21 20.3873 5.21333 20.374 5.22C20.3607 5.22 20.3507 5.22667 20.344 5.24C20.3373 5.25333 20.3307 5.26667 20.324 5.28C20.3173 5.28667 20.3107 5.30333 20.304 5.33C20.2973 5.35667 20.2907 5.37333 20.284 5.38L18.814 9H17.194L19.434 4.1C19.574 3.79333 19.9007 3.64 20.414 3.64C20.914 3.64 21.234 3.79333 21.374 4.1L23.634 9H22.014ZM25.6461 9H24.0461V7.46H25.6461V9Z" fill="white"/>
<path d="M0.35 62V60.64H3.35C3.71667 60.64 3.97333 60.5933 4.12 60.5C4.27333 60.4067 4.35 60.2067 4.35 59.9C4.35 59.6333 4.28667 59.4367 4.16 59.31C4.03333 59.1833 3.81 59.12 3.49 59.12H0.52V57.82H3.4C3.68667 57.82 3.89333 57.7633 4.02 57.65C4.15333 57.53 4.22 57.3367 4.22 57.07C4.22 56.83 4.16 56.6533 4.04 56.54C3.92 56.42 3.72333 56.36 3.45 56.36H0.45V55H4.38C4.96 55 5.38 55.15 5.64 55.45C5.90667 55.75 6.04 56.2067 6.04 56.82C6.04 57.2667 5.96333 57.63 5.81 57.91C5.65667 58.1833 5.37 58.35 4.95 58.41V58.45C5.39667 58.4767 5.71333 58.6267 5.9 58.9C6.09333 59.1667 6.19 59.5467 6.19 60.04C6.19 60.6667 6.06 61.15 5.8 61.49C5.54 61.83 5.08667 62 4.44 62H0.35ZM14.737 58.67L13.647 61.58C13.527 61.9 13.2603 62.06 12.847 62.06C12.4336 62.06 12.167 61.9 12.047 61.58L10.947 58.68C10.9203 58.5933 10.887 58.55 10.847 58.55C10.807 58.55 10.787 58.5867 10.787 58.66L10.857 62H9.29695V57.53C9.29695 57.2367 9.40695 57.0167 9.62695 56.87C9.85362 56.7167 10.1303 56.64 10.457 56.64C10.757 56.64 10.9936 56.6933 11.167 56.8C11.347 56.9 11.487 57.08 11.587 57.34L12.677 60.17C12.737 60.3167 12.7936 60.39 12.847 60.39C12.9003 60.39 12.957 60.3167 13.017 60.17L14.097 57.34C14.197 57.08 14.3336 56.9 14.507 56.8C14.687 56.6933 14.9303 56.64 15.237 56.64C15.557 56.64 15.8303 56.7167 16.057 56.87C16.2836 57.0167 16.397 57.2367 16.397 57.53V62H14.837L14.907 58.65C14.907 58.5767 14.8836 58.54 14.837 58.54C14.797 58.54 14.7636 58.5833 14.737 58.67ZM21.4964 62L20.0064 58.38C19.9997 58.3667 19.9931 58.35 19.9864 58.33C19.9797 58.31 19.9731 58.2933 19.9664 58.28C19.9597 58.2667 19.9531 58.2567 19.9464 58.25C19.9397 58.2367 19.9331 58.2267 19.9264 58.22C19.9197 58.2133 19.9097 58.21 19.8964 58.21C19.8831 58.21 19.8697 58.2133 19.8564 58.22C19.8431 58.22 19.8331 58.2267 19.8264 58.24C19.8197 58.2533 19.8131 58.2667 19.8064 58.28C19.7997 58.2867 19.7931 58.3033 19.7864 58.33C19.7797 58.3567 19.7731 58.3733 19.7664 58.38L18.2964 62H16.6764L18.9164 57.1C19.0564 56.7933 19.3831 56.64 19.8964 56.64C20.3964 56.64 20.7164 56.7933 20.8564 57.1L23.1164 62H21.4964ZM25.1285 62H23.5285V60.46H25.1285V62Z" fill="white"/>
<path d="M5.95 95H1.21C0.97 95 0.766667 94.91 0.6 94.73C0.433333 94.55 0.35 94.2867 0.35 93.94C0.35 93.3933 0.523333 93.0133 0.87 92.8L3.96 90.91C4.22667 90.7433 4.36 90.4733 4.36 90.1C4.36 89.8333 4.30667 89.65 4.2 89.55C4.09333 89.45 3.9 89.4 3.62 89.4H0.79V88H4.52C5.11333 88 5.53333 88.1533 5.78 88.46C6.03333 88.7667 6.16 89.24 6.16 89.88C6.16 90.4533 6.08667 90.8833 5.94 91.17C5.8 91.4567 5.54333 91.71 5.17 91.93L2.7 93.43C2.63333 93.4633 2.6 93.5 2.6 93.54C2.6 93.58 2.62333 93.6 2.67 93.6H5.95V95ZM14.7077 91.67L13.6177 94.58C13.4977 94.9 13.231 95.06 12.8177 95.06C12.4043 95.06 12.1377 94.9 12.0177 94.58L10.9177 91.68C10.891 91.5933 10.8577 91.55 10.8177 91.55C10.7777 91.55 10.7577 91.5867 10.7577 91.66L10.8277 95H9.26766V90.53C9.26766 90.2367 9.37766 90.0167 9.59766 89.87C9.82432 89.7167 10.101 89.64 10.4277 89.64C10.7277 89.64 10.9643 89.6933 11.1377 89.8C11.3177 89.9 11.4577 90.08 11.5577 90.34L12.6477 93.17C12.7077 93.3167 12.7643 93.39 12.8177 93.39C12.871 93.39 12.9277 93.3167 12.9877 93.17L14.0677 90.34C14.1677 90.08 14.3043 89.9 14.4777 89.8C14.6577 89.6933 14.901 89.64 15.2077 89.64C15.5277 89.64 15.801 89.7167 16.0277 89.87C16.2543 90.0167 16.3677 90.2367 16.3677 90.53V95H14.8077L14.8777 91.65C14.8777 91.5767 14.8543 91.54 14.8077 91.54C14.7677 91.54 14.7343 91.5833 14.7077 91.67ZM21.4671 95L19.9771 91.38C19.9704 91.3667 19.9638 91.35 19.9571 91.33C19.9504 91.31 19.9438 91.2933 19.9371 91.28C19.9304 91.2667 19.9238 91.2567 19.9171 91.25C19.9104 91.2367 19.9038 91.2267 19.8971 91.22C19.8904 91.2133 19.8804 91.21 19.8671 91.21C19.8538 91.21 19.8404 91.2133 19.8271 91.22C19.8138 91.22 19.8038 91.2267 19.7971 91.24C19.7904 91.2533 19.7838 91.2667 19.7771 91.28C19.7704 91.2867 19.7638 91.3033 19.7571 91.33C19.7504 91.3567 19.7438 91.3733 19.7371 91.38L18.2671 95H16.6471L18.8871 90.1C19.0271 89.7933 19.3538 89.64 19.8671 89.64C20.3671 89.64 20.6871 89.7933 20.8271 90.1L23.0871 95H21.4671ZM25.0992 95H23.4992V93.46H25.0992V95Z" fill="white"/>
<path d="M1.17 128V122.93C1.17 122.75 1.14667 122.617 1.1 122.53C1.06 122.443 0.96 122.4 0.8 122.4H0V121H1.96C2.28667 121 2.53667 121.087 2.71 121.26C2.88333 121.433 2.97 121.683 2.97 122.01V128H1.17ZM11.7096 124.67L10.6196 127.58C10.4996 127.9 10.2329 128.06 9.81961 128.06C9.40628 128.06 9.13961 127.9 9.01961 127.58L7.91961 124.68C7.89294 124.593 7.85961 124.55 7.81961 124.55C7.77961 124.55 7.75961 124.587 7.75961 124.66L7.82961 128H6.26961V123.53C6.26961 123.237 6.37961 123.017 6.59961 122.87C6.82628 122.717 7.10294 122.64 7.42961 122.64C7.72961 122.64 7.96628 122.693 8.13961 122.8C8.31961 122.9 8.45961 123.08 8.55961 123.34L9.64961 126.17C9.70961 126.317 9.76628 126.39 9.81961 126.39C9.87294 126.39 9.92961 126.317 9.98961 126.17L11.0696 123.34C11.1696 123.08 11.3063 122.9 11.4796 122.8C11.6596 122.693 11.9029 122.64 12.2096 122.64C12.5296 122.64 12.8029 122.717 13.0296 122.87C13.2563 123.017 13.3696 123.237 13.3696 123.53V128H11.8096L11.8796 124.65C11.8796 124.577 11.8563 124.54 11.8096 124.54C11.7696 124.54 11.7363 124.583 11.7096 124.67ZM18.4691 128L16.9791 124.38C16.9724 124.367 16.9657 124.35 16.9591 124.33C16.9524 124.31 16.9457 124.293 16.9391 124.28C16.9324 124.267 16.9257 124.257 16.9191 124.25C16.9124 124.237 16.9057 124.227 16.8991 124.22C16.8924 124.213 16.8824 124.21 16.8691 124.21C16.8557 124.21 16.8424 124.213 16.8291 124.22C16.8157 124.22 16.8057 124.227 16.7991 124.24C16.7924 124.253 16.7857 124.267 16.7791 124.28C16.7724 124.287 16.7657 124.303 16.7591 124.33C16.7524 124.357 16.7457 124.373 16.7391 124.38L15.2691 128H13.6491L15.8891 123.1C16.0291 122.793 16.3557 122.64 16.8691 122.64C17.3691 122.64 17.6891 122.793 17.8291 123.1L20.0891 128H18.4691ZM22.1012 128H20.5012V126.46H22.1012V128Z" fill="white"/>
<path d="M1.96 160.04C2.30667 159.973 2.76 159.94 3.32 159.94C3.88 159.94 4.33333 159.973 4.68 160.04C5.02667 160.107 5.32667 160.237 5.58 160.43C5.84 160.623 6.02333 160.897 6.13 161.25C6.23667 161.597 6.29 162.05 6.29 162.61V164.33C6.29 164.903 6.23667 165.37 6.13 165.73C6.02333 166.083 5.84 166.36 5.58 166.56C5.32667 166.753 5.02667 166.887 4.68 166.96C4.33333 167.027 3.88 167.06 3.32 167.06C2.76 167.06 2.30667 167.027 1.96 166.96C1.61333 166.887 1.31 166.753 1.05 166.56C0.796667 166.36 0.616667 166.083 0.51 165.73C0.403333 165.37 0.35 164.903 0.35 164.33V162.61C0.35 162.05 0.403333 161.597 0.51 161.25C0.616667 160.897 0.796667 160.623 1.05 160.43C1.31 160.237 1.61333 160.107 1.96 160.04ZM3.32 165.66C3.77333 165.66 4.08 165.563 4.24 165.37C4.40667 165.177 4.49 164.823 4.49 164.31V162.64C4.49 162.153 4.40667 161.817 4.24 161.63C4.08 161.437 3.77333 161.34 3.32 161.34C2.87333 161.34 2.56667 161.437 2.4 161.63C2.23333 161.823 2.15 162.16 2.15 162.64V164.31C2.15 164.817 2.23333 165.17 2.4 165.37C2.56667 165.563 2.87333 165.66 3.32 165.66Z" fill="white"/>
</svg>
