<svg width="323" height="674" viewBox="0 0 323 674" fill="none" xmlns="http://www.w3.org/2000/svg">
<path d="M0 50C0 22.3858 22.3858 0 50 0H155.415C174.11 0 191.244 10.4294 199.83 27.0361L201.873 30.9871C210.459 47.5938 227.592 58.0232 246.287 58.0232H273C300.614 58.0232 323 80.409 323 108.023V552.221C323 579.835 300.614 602.221 273 602.221H111.096C91.2749 602.221 75.2065 618.289 75.2065 638.11C75.2065 657.932 59.1382 674 39.3169 674H37.6033C16.8356 674 0 657.164 0 636.397V50Z" fill="#E9EAEA"/>
<path d="M0.39967 50C0.39967 22.6065 22.6065 0.39967 50 0.39967H155.415C173.961 0.39967 190.957 10.7457 199.475 27.2197L201.518 31.1707C210.173 47.9101 227.443 58.4229 246.287 58.4229H273C300.393 58.4229 322.6 80.6297 322.6 108.023V552.221C322.6 579.614 300.393 601.821 273 601.821H111.096C91.0541 601.821 74.8069 618.068 74.8069 638.11C74.8069 657.711 58.9175 673.6 39.3169 673.6H37.6033C17.0563 673.6 0.39967 656.944 0.39967 636.397V50Z" stroke="white" stroke-opacity="0.15" stroke-width="0.79934"/>
</svg>
