<svg width="686" height="559" viewBox="0 0 686 559" fill="none" xmlns="http://www.w3.org/2000/svg">
<path d="M0 90.8417C0 41.1361 40.2944 0.841797 90 0.841797H320.441C347.151 0.841797 372.481 12.7059 389.581 33.2252L395.608 40.4584C412.708 60.9777 438.038 72.8418 464.748 72.8418H596C645.706 72.8418 686 113.136 686 162.842V375.275C686 424.98 645.706 465.275 596 465.275H409.615C384.21 465.275 363.615 485.869 363.615 511.274C363.615 536.582 343.172 557.136 317.865 557.273L90.4889 558.508C40.593 558.779 0 518.406 0 468.509V90.8417Z" fill="#E9EAEA"/>
<path d="M0.5 90.8417C0.5 41.4123 40.5705 1.3418 90 1.3418H320.441C347.003 1.3418 372.192 13.14 389.196 33.5453L395.224 40.7785C412.419 61.4118 437.89 73.3418 464.748 73.3418H596C645.43 73.3418 685.5 113.412 685.5 162.842V375.275C685.5 424.704 645.43 464.775 596 464.775H409.615C383.934 464.775 363.115 485.593 363.115 511.274C363.115 536.307 342.895 556.637 317.863 556.773L90.4862 558.008C40.8675 558.278 0.5 518.129 0.5 468.509V90.8417Z" stroke="white" stroke-opacity="0.15"/>
</svg>
