<svg width="48" height="48" viewBox="0 0 48 48" fill="none" xmlns="http://www.w3.org/2000/svg">
<circle cx="24" cy="24" r="24" fill="#191C22"/>
<circle cx="24" cy="24" r="23" stroke="white" stroke-opacity="0.15" stroke-width="2"/>
<path d="M32.25 17.2497C31.5318 17.7563 30.7366 18.1438 29.895 18.3972C29.4433 17.8779 28.843 17.5097 28.1753 17.3427C27.5075 17.1756 26.8046 17.2176 26.1616 17.4631C25.5185 17.7085 24.9663 18.1455 24.5797 18.715C24.1931 19.2845 23.9908 19.959 24 20.6472V21.3972C22.682 21.4314 21.376 21.1391 20.1983 20.5463C19.0206 19.9535 18.0077 19.0787 17.25 17.9997C17.25 17.9997 14.25 24.7497 21 27.7497C19.4554 28.7982 17.6154 29.3239 15.75 29.2497C22.5 32.9997 30.75 29.2497 30.75 20.6247C30.7493 20.4158 30.7292 20.2074 30.69 20.0022C31.4554 19.2473 31.9956 18.2943 32.25 17.2497Z" fill="white"/>
</svg>
