<svg width="351" height="260" viewBox="0 0 351 260" fill="none" xmlns="http://www.w3.org/2000/svg">
<mask id="mask0_153_902" style="mask-type:alpha" maskUnits="userSpaceOnUse" x="0" y="0" width="351" height="260">
<path d="M0 40C0 17.9086 17.9086 0 40 0H311C333.091 0 351 17.9086 351 40V144.753C351 165.876 337.626 183 316.503 183C295.38 183 274.506 200.25 274.506 221.373C274.506 242.636 257.269 260 236.006 260H40C17.9086 260 0 242.091 0 220V40Z" fill="#E9EAEA"/>
</mask>
<g mask="url(#mask0_153_902)">
<path d="M0 40C0 17.9086 17.9086 0 40 0H322.038C339.319 0 354.646 11.0975 360.04 27.515L402.257 156.015C410.756 181.884 381.648 210.162 381.403 237.391C381.209 258.984 390.349 285.019 347.752 286.439C345.333 286.52 342.802 286.28 340.422 285.844L203.084 260.656C200.704 260.22 198.288 260 195.868 260H40C17.9086 260 0 242.091 0 220V40Z" fill="#E9EAEA"/>
</g>
</svg>
