<svg width="31" height="30" viewBox="0 0 31 30" fill="none" xmlns="http://www.w3.org/2000/svg">
<path fill-rule="evenodd" clip-rule="evenodd" d="M16.9836 5.98248C16.7116 4.65168 14.8101 4.65167 14.5381 5.98248C14.4609 6.36018 14.3628 6.72993 14.2449 7.0905C13.8337 8.34793 12.4199 8.93359 11.24 8.33518C10.9016 8.16358 10.5707 7.97152 10.249 7.75902C9.11569 7.01033 7.77114 8.35488 8.51982 9.48823C8.73234 9.80994 8.9244 10.1409 9.09601 10.4792C9.6944 11.6591 9.10876 13.0729 7.85134 13.4841C7.49075 13.602 7.12096 13.7002 6.74322 13.7774C5.41242 14.0494 5.41241 15.9509 6.74322 16.2229C7.12093 16.3001 7.4907 16.3983 7.85128 16.5162C9.10872 16.9273 9.69436 18.3412 9.09594 19.5211C8.92435 19.8594 8.73231 20.1903 8.51982 20.5119C7.77114 21.6453 9.11568 22.9898 10.249 22.2411C10.5707 22.0286 10.9016 21.8366 11.2399 21.665C12.4198 21.0666 13.8337 21.6522 14.2448 22.9096C14.3627 23.2703 14.4609 23.6401 14.5381 24.0178C14.8101 25.3486 16.7116 25.3486 16.9836 24.0178C17.0608 23.6401 17.159 23.2703 17.2769 22.9096C17.6881 21.6522 19.102 21.0666 20.2818 21.665C20.6202 21.8366 20.9511 22.0286 21.2727 22.2411C22.4061 22.9898 23.7506 21.6453 23.0019 20.5119C22.7895 20.1903 22.5974 19.8594 22.4258 19.5211C21.8274 18.3412 22.4131 16.9273 23.6705 16.5162C24.0311 16.3983 24.4008 16.3001 24.7785 16.2229C26.1094 15.9509 26.1094 14.0494 24.7786 13.7774C24.4008 13.7002 24.031 13.602 23.6704 13.4841C22.413 13.0729 21.8274 11.6591 22.4258 10.4792C22.5974 10.1409 22.7894 9.80994 23.0019 9.48824C23.7506 8.35488 22.4061 7.01033 21.2727 7.75902C20.951 7.97152 20.6201 8.16358 20.2818 8.33518C19.1019 8.93359 17.688 8.34793 17.2769 7.0905C17.159 6.72994 17.0608 6.36018 16.9836 5.98248Z" fill="#FF4D15"/>
<path fill-rule="evenodd" clip-rule="evenodd" d="M16.9837 5.98234L15.761 0L14.5382 5.98233C14.3082 7.10766 13.892 8.16248 13.3228 9.11364C12.2477 8.84357 11.2075 8.39198 10.2491 7.75888L5.15438 4.39333L8.51992 9.48809C9.15303 10.4465 9.60462 11.4867 9.8747 12.5618C8.92352 13.131 7.86867 13.5472 6.74332 13.7773L0.760986 15L6.74332 16.2227C7.86866 16.4528 8.9235 16.869 9.87467 17.4382C9.60459 18.5132 9.15301 19.5534 8.51993 20.5118L5.15438 25.6065L10.2491 22.241C11.2075 21.6079 12.2477 21.1563 13.3228 20.8862C13.892 21.8374 14.3082 22.8923 14.5382 24.0177L15.761 30L16.9837 24.0177C17.2137 22.8923 17.63 21.8374 18.1992 20.8862C19.2743 21.1563 20.3145 21.6079 21.2728 22.241L26.3676 25.6065L23.002 20.5118C22.369 19.5534 21.9174 18.5132 21.6473 17.4382C22.5985 16.869 23.6533 16.4528 24.7787 16.2227L30.761 15L24.7787 13.7773C23.6533 13.5472 22.5985 13.131 21.6473 12.5618C21.9173 11.4867 22.3689 10.4465 23.002 9.4881L26.3676 4.39333L21.2728 7.75887C20.3144 8.39198 19.2742 8.84356 18.1991 9.11364C17.6299 8.16248 17.2137 7.10766 16.9837 5.98234Z" fill="#FF4D15"/>
<circle cx="15.761" cy="15" r="4.77273" fill="#0F1217"/>
</svg>
