<svg width="290" height="147" viewBox="0 0 290 147" fill="none" xmlns="http://www.w3.org/2000/svg">
<path d="M66.247 32.5208C66.122 32.625 66.0491 32.7396 66.0908 32.7813C66.122 32.8125 66.0804 32.8438 65.9867 32.8438C65.7888 32.8438 65.4973 33.0521 64.9558 33.5938C64.7475 33.8125 64.5184 33.9896 64.456 33.9896C64.3935 33.9896 64.3727 34.0313 64.4039 34.0938C64.4351 34.1563 64.3935 34.1667 64.3102 34.1354C64.2165 34.0938 64.1436 34.125 64.1436 34.1979C64.1436 34.3333 63.1127 35.3438 62.9773 35.3438C62.9357 35.3438 62.9044 35.4063 62.9253 35.4688C62.9357 35.5417 62.842 35.6146 62.7066 35.6354C62.5504 35.6563 62.4775 35.7292 62.5192 35.8125C62.54 35.8854 62.3838 36.1146 62.1651 36.3125C61.936 36.5104 61.7798 36.6979 61.8111 36.7292C61.884 36.8021 61.3529 37.3229 61.2071 37.3229C61.1447 37.3229 61.1238 37.3542 61.1551 37.3958C61.1967 37.4271 61.1759 37.5208 61.1134 37.6042C61.0509 37.6771 61.0301 37.7396 61.0718 37.7396C61.1134 37.7396 60.9468 37.9688 60.7177 38.25C60.4782 38.5313 60.2908 38.8333 60.2908 38.9271C60.2908 39.0208 60.2179 39.125 60.1346 39.1563C60.0513 39.1979 60.0097 39.2708 60.0513 39.3333C60.0825 39.3958 60.0617 39.4063 59.9888 39.3646C59.843 39.2708 59.5827 39.5104 59.6348 39.6875C59.6556 39.75 59.5827 39.8646 59.4682 39.9271C59.3432 39.9896 59.2495 40.1354 59.2495 40.2396C59.2495 40.3542 59.1766 40.4479 59.0933 40.4479C59.01 40.4479 58.9371 40.5 58.9371 40.5625C58.9371 40.6146 58.9996 40.6354 59.0725 40.5938C59.135 40.5625 59.0621 40.6458 58.8955 40.7813C58.656 40.9792 58.6143 41.0833 58.6768 41.2708C58.7289 41.4375 58.7184 41.4896 58.6351 41.4479C58.531 41.375 58.4685 41.5938 58.5206 41.8542C58.531 41.9063 58.5102 41.9271 58.4685 41.8854C58.3436 41.7604 58 42.1667 58.0416 42.3958C58.0728 42.5417 58.0208 42.6354 57.9062 42.6667C57.6772 42.7188 57.219 43.6354 57.2502 43.9583C57.2606 44.125 57.2294 44.1771 57.1044 44.125C57.0003 44.0834 56.9274 44.1458 56.8858 44.2917C56.8545 44.4063 56.7921 44.4792 56.74 44.4583C56.6983 44.4271 56.6671 44.4896 56.6671 44.5833C56.6879 44.9688 56.5942 45.1354 55.9278 45.8438C55.7299 46.0521 55.6258 46.2396 55.6987 46.2604C55.7612 46.2813 55.8132 46.3438 55.8132 46.3958C55.8132 46.4583 55.7716 46.4688 55.7091 46.4375C55.6466 46.4063 55.6362 46.4479 55.6675 46.5313C55.7091 46.6458 55.6675 46.6979 55.5529 46.6979C55.4176 46.6979 55.3863 46.7604 55.4384 46.9583C55.4904 47.1458 55.4592 47.2188 55.3551 47.2188C55.1885 47.2188 55.0531 47.5 55.1572 47.6563C55.1989 47.7292 55.1676 47.7396 55.0843 47.6875C54.9802 47.625 54.9594 47.6563 55.001 47.8229C55.0427 47.9479 55.0219 48.0521 54.9802 48.0521C54.9386 48.0521 54.9177 48.1458 54.949 48.25C54.9906 48.4063 54.949 48.4479 54.8032 48.4271C54.5533 48.3854 54.3346 48.7083 54.3971 49.0417C54.4283 49.2188 54.3971 49.3021 54.3034 49.3021C54.2201 49.3021 54.043 49.5 53.9181 49.7292C53.7827 49.9688 53.6161 50.2604 53.5536 50.3854C53.4807 50.5 53.4183 50.6979 53.4183 50.8021C53.4183 50.9167 53.387 50.9688 53.3454 50.9375C53.2308 50.8125 53.0226 51.0729 53.0746 51.2813C53.1059 51.4063 53.0746 51.4896 53.0018 51.4896C52.9393 51.4896 52.8976 51.5521 52.9289 51.6146C52.9497 51.6875 52.8456 51.8958 52.6894 52.0833C52.5332 52.2604 52.377 52.4688 52.3561 52.5313C52.3249 52.625 51.294 52.6667 48.0556 52.6771C45.7023 52.6771 43.7238 52.7292 43.6614 52.7708C43.5885 52.8229 43.526 52.9479 43.526 53.0521C43.526 53.1563 43.4739 53.2604 43.4114 53.2813C43.349 53.3021 43.1511 53.5833 42.9741 53.9063C41.912 55.8229 41.308 56.8646 41.2456 56.9063C41.2039 56.9375 40.9852 57.2813 40.7666 57.6875C40.5583 58.0833 40.3084 58.5 40.2251 58.5938C40.1418 58.6875 40.1001 58.8229 40.1418 58.875C40.173 58.9375 40.173 58.9896 40.121 58.9896C40.0481 58.9896 39.6628 59.5521 39.6211 59.7188C39.5483 59.9688 39.3088 60.3229 39.2463 60.2813C39.1942 60.25 39.0484 60.4583 38.9235 60.7292C38.7881 61 38.6527 61.2396 38.6111 61.2604C38.559 61.2813 38.5278 61.3542 38.5278 61.4375C38.5278 61.5104 38.4653 61.625 38.382 61.6875C38.205 61.8333 37.3303 63.3125 36.2994 65.1875C36.1745 65.4167 35.9662 65.7708 35.8413 65.9688C35.7267 66.1667 35.6226 66.375 35.6226 66.4271C35.633 66.4792 35.5913 66.5521 35.5393 66.5833C35.331 66.7396 35.0082 67.1875 34.9353 67.4167L34.8624 67.6563L37.1429 67.5938C38.3924 67.5521 39.694 67.5 40.0481 67.4792C40.3917 67.4479 41.9224 67.4167 43.4323 67.4167L46.1813 67.3958L46.1605 67.7396C46.15 67.9271 46.0876 68.1146 46.0355 68.1458C45.973 68.1875 45.921 68.3854 45.9001 68.5938C45.8897 68.8021 45.8481 68.9583 45.8064 68.9271C45.7648 68.9063 45.7023 68.9271 45.6606 68.9896C45.6294 69.0417 45.6398 69.0938 45.6919 69.0938C45.7544 69.0938 45.7752 69.1875 45.7439 69.3021C45.7127 69.4167 45.6398 69.5104 45.5773 69.5104C45.5149 69.5104 45.494 69.5417 45.5357 69.5729C45.5982 69.6458 45.3378 70.2396 45.2337 70.2396C45.2025 70.2396 45.2129 70.1771 45.2545 70.1042C45.2962 70.0313 45.2858 70.0208 45.2337 70.0625C45.1921 70.1042 45.14 70.3125 45.1192 70.5208C45.1088 70.7292 45.0567 70.9271 45.0046 70.9583C44.9005 71.0313 44.7235 71.5 44.7547 71.6146C44.7651 71.6667 44.7131 71.6875 44.6402 71.6667C44.5673 71.6563 44.5256 71.7292 44.5465 71.8646C44.5569 71.9896 44.5048 72.1458 44.4215 72.2083C44.2445 72.3542 44.2341 72.3542 42.1202 71.8125C40.1939 71.3229 38.1529 70.8542 35.2998 70.2396C31.624 69.4479 30.7806 69.2917 30.5723 69.3438C30.4578 69.375 30.2703 69.5313 30.1766 69.6979C29.9267 70.1146 28.9062 71.2083 26.782 73.3646C25.7928 74.3646 25.0014 75.2292 25.0326 75.2917C25.0535 75.3542 25.4179 75.4688 25.8344 75.5521C26.5737 75.6771 28.2294 76.0208 29.6768 76.3438C30.0413 76.4167 30.489 76.5313 30.666 76.5938C30.843 76.6563 31.3116 76.7708 31.7177 76.8542C32.7694 77.0729 34.8208 77.5833 35.6642 77.8333C36.0703 77.9479 36.5806 78.0625 36.8097 78.0833C37.0387 78.0938 37.2782 78.1458 37.3303 78.1771C37.4344 78.2396 39.3504 78.7396 39.7878 78.8229C39.9231 78.8542 40.0585 78.8854 40.0897 78.8958C40.121 78.9063 40.1939 78.9271 40.2459 78.9375C40.3084 78.9583 40.3709 78.9792 40.4021 78.9896C40.4334 79 40.5791 79.0313 40.7353 79.0521C41.1727 79.125 41.7662 79.4063 41.7037 79.5104C41.6725 79.5625 41.6933 79.625 41.7454 79.6667C41.8599 79.7292 41.5475 80.3438 41.4018 80.3438C41.3497 80.3438 41.3601 80.4063 41.4226 80.4792C41.5579 80.6354 41.4642 81.1042 41.3289 81.0104C41.2768 80.9792 41.2664 81.0417 41.308 81.1354C41.3497 81.2396 41.308 81.3646 41.2039 81.4375C41.0894 81.5208 41.0477 81.6771 41.0581 81.9375C41.0894 82.25 41.0685 82.2917 40.9228 82.2188C40.777 82.1458 40.7562 82.1771 40.7978 82.4375C40.829 82.6458 40.7978 82.7396 40.7041 82.7396C40.5895 82.7396 40.5895 82.7604 40.6937 82.8229C40.7978 82.8958 40.777 82.9792 40.6104 83.1875C40.4542 83.3854 40.4334 83.4688 40.5271 83.4688C40.6312 83.4688 40.6208 83.5 40.5062 83.5729C40.4229 83.625 40.3813 83.6771 40.4229 83.6771C40.4646 83.6771 40.4229 83.8438 40.3396 84.0417C40.2563 84.2396 40.2251 84.4063 40.2667 84.4063C40.3188 84.4063 40.2667 84.4583 40.173 84.5208C40.0689 84.5729 40.0168 84.6875 40.0481 84.7708C40.0897 84.8542 40.0585 84.9271 39.9856 84.9271C39.9127 84.9271 39.8815 84.9896 39.9127 85.0729C39.9439 85.1563 39.9127 85.3021 39.8398 85.4063C39.7669 85.5 39.7253 85.6667 39.7461 85.7604C39.7773 85.8542 39.7357 86 39.6524 86.0834C39.5795 86.1667 39.5066 86.3229 39.4962 86.4375C39.4545 86.8958 39.2359 87.5938 39.1005 87.6979C39.0172 87.7604 38.9339 87.9688 38.9235 88.1563C38.9131 88.3438 38.8402 88.5104 38.7673 88.5417C38.7048 88.5729 38.6736 88.6563 38.7048 88.7396C38.736 88.8229 38.6736 88.9896 38.5799 89.0938C38.4653 89.2188 38.4445 89.3021 38.507 89.3021C38.5798 89.3021 38.6319 89.3958 38.6319 89.5104C38.6319 89.625 38.5799 89.7188 38.5174 89.7188C38.4549 89.7188 38.4237 89.8125 38.4549 89.9271C38.4861 90.0313 38.4445 90.1771 38.3612 90.25C38.2362 90.3542 38.0384 91.0208 38.0904 91.1979C38.1009 91.25 38.0696 91.2813 38.028 91.2813C37.9342 91.2813 37.6635 92.2292 37.6427 92.6146C37.6427 92.75 37.5698 92.8958 37.4969 92.9375C37.424 92.9896 37.3824 93.1146 37.3928 93.2188C37.4136 93.3334 37.3824 93.4896 37.3303 93.5729C37.2782 93.6563 37.2262 93.75 37.2262 93.7813C37.1949 93.9583 37.0492 94.3021 36.9867 94.3021C36.945 94.3021 36.9034 94.4063 36.9034 94.5313C36.893 94.7396 36.2369 96.9167 36.0599 97.3229C36.0287 97.4063 35.9766 97.5625 35.9558 97.6667C35.935 97.7813 35.81 98.2188 35.6642 98.6563C35.5184 99.0938 35.4039 99.4896 35.4039 99.5313C35.4039 99.5625 35.3623 99.7084 35.3102 99.8438C35.2581 99.9792 35.2061 100.125 35.1956 100.188C35.1852 100.24 35.0915 100.521 34.977 100.802C34.8728 101.094 34.8104 101.344 34.8312 101.375C34.8624 101.396 34.8833 101.365 34.8833 101.292C34.8833 101.219 34.9249 101.188 34.9666 101.219C35.0082 101.24 35.4456 100.083 35.9246 98.6459C36.414 97.1979 36.8409 96 36.8825 95.9896C36.9346 95.9688 36.9658 95.8438 36.9658 95.7083C36.9658 95.5729 37.0075 95.4271 37.07 95.3958C37.1325 95.3646 37.1741 95.2396 37.1741 95.125C37.1741 95.0208 37.2158 94.9271 37.2678 94.9271C37.3199 94.9271 37.3407 94.8438 37.3095 94.7292C37.2782 94.625 37.3095 94.5 37.3719 94.4688C37.4344 94.4271 37.4865 94.2917 37.4865 94.1667C37.4865 94.0417 37.549 93.8125 37.6323 93.6563C37.7156 93.5104 37.8301 93.2084 37.903 92.9792C37.9759 92.7604 38.0696 92.5313 38.1113 92.4792C38.1633 92.4167 38.2154 92.2083 38.2362 92.0104C38.2466 91.8125 38.3195 91.5938 38.382 91.5417C38.4445 91.4792 38.5799 91.1563 38.6736 90.8125C38.7777 90.4688 38.9443 90.0208 39.0588 89.8125C39.163 89.6042 39.2255 89.4063 39.1838 89.3646C39.1526 89.3334 39.1734 89.3021 39.2359 89.3021C39.3088 89.3021 39.3504 89.2708 39.34 89.2188C39.3296 89.1771 39.3816 89 39.4545 88.8333C39.5274 88.6563 39.6003 88.4583 39.6107 88.3854C39.6211 88.3125 39.7044 88.1667 39.7878 88.0729C39.8711 87.9688 39.9439 87.7604 39.9544 87.5938C39.9648 87.4375 40.0689 87.125 40.1834 86.9063C40.298 86.6875 40.3605 86.4896 40.3396 86.4583C40.3084 86.4375 40.3917 86.2083 40.5271 85.9583C40.652 85.7083 40.7457 85.4167 40.7353 85.3229C40.7145 85.2292 40.7978 85.1042 40.9123 85.0417C41.0477 84.9688 41.0894 84.8646 41.0581 84.7188C41.0269 84.5938 41.0685 84.4896 41.1623 84.4479C41.256 84.4167 41.2976 84.3229 41.2664 84.2396C41.2351 84.1563 41.256 84.0938 41.3184 84.0938C41.3809 84.0938 41.4018 84 41.3705 83.8854C41.3393 83.7708 41.3809 83.6042 41.4538 83.5104C41.5892 83.3438 41.6413 83.1979 41.6933 82.8021C41.7037 82.6979 41.8287 82.5 41.9641 82.3542C42.1307 82.1771 42.1723 82.0729 42.089 81.9896C42.0161 81.9167 42.0161 81.7917 42.0682 81.6354C42.1202 81.5 42.1307 81.3854 42.089 81.3854C42.0474 81.3854 42.0994 81.3333 42.2035 81.2708C42.2973 81.2188 42.3806 81.0521 42.3806 80.9167C42.3806 80.7708 42.4639 80.6146 42.5888 80.5521C42.7034 80.4896 42.7658 80.375 42.7346 80.3021C42.7034 80.2188 42.7763 80.0833 42.922 79.9896C43.1407 79.8542 43.2553 79.8542 44.0466 80.0313C45.2962 80.2917 48.0556 80.9479 48.7325 81.1354C49.3052 81.3021 50.0028 81.4792 50.2944 81.5417C50.3777 81.5625 50.815 81.6667 51.2732 81.7813C51.721 81.8958 52.1583 81.9688 52.2312 81.9375C52.3145 81.9063 52.4395 81.9271 52.5123 81.9896C52.5748 82.0521 53.033 82.1979 53.5224 82.3229C54.0118 82.4375 54.4804 82.5625 54.5741 82.5938C54.7095 82.6354 54.8344 82.4375 55.126 81.6771C56.0423 79.2708 56.4588 78.2292 56.9066 77.1667C57.1773 76.5313 57.4897 75.7813 57.6043 75.5C57.7188 75.2083 57.875 74.8333 57.9479 74.6667C58.0208 74.4896 58.3748 73.6771 58.7393 72.8438C59.0933 72.0104 59.614 70.8542 59.8847 70.2708C60.1658 69.6771 60.4991 69.125 60.4991 69.0417C60.4991 68.9583 60.4366 68.8854 60.4782 68.8854C60.5303 68.8854 60.6969 68.5938 60.8635 68.2292C61.0301 67.875 61.3946 67.0938 61.6757 66.4896C61.9569 65.8854 62.2797 65.1875 62.3942 64.9271C62.5192 64.6667 62.6754 64.3854 62.7482 64.3021C62.8211 64.2188 62.8836 64.1146 62.8836 64.0625C62.9044 63.875 63.2168 63.2292 63.498 62.8229C63.7375 62.4583 64.1436 61.6042 64.1436 61.4479C64.1436 61.4271 63.9249 61.4167 63.6542 61.4167C62.5296 61.4271 53.387 61.2813 52.3978 61.2396C51.2628 61.1875 51.1274 61.1458 51.1274 60.9063C51.1274 60.8229 51.1795 60.7813 51.2316 60.8125C51.294 60.8438 51.3357 60.7917 51.3357 60.6979C51.3357 60.6042 51.4919 60.375 51.6793 60.2083C51.8563 60.0313 51.95 59.9271 51.8876 59.9688C51.6897 60.0833 51.721 59.8333 51.95 59.5521C52.0854 59.375 52.1687 59.3438 52.2 59.4271C52.2312 59.5 52.2416 59.4271 52.2416 59.25L52.2208 58.9479L53.3662 58.9688C53.991 58.9896 54.522 59.0208 54.5533 59.0417C54.5741 59.0729 54.6574 59.0417 54.7407 58.9792C54.824 58.9063 54.9177 58.8958 55.0114 58.9583C55.0739 59.0104 55.8132 59.0625 56.6463 59.0833C58.1978 59.1042 60.5719 59.25 61.2488 59.3646C61.5924 59.4271 61.6653 59.3958 61.8736 59.1458C62.0089 58.9896 62.2276 58.7292 62.3734 58.5729C62.5192 58.4167 62.894 57.9896 63.196 57.625C64.0603 56.6146 66.0908 54.6458 66.6843 54.25C66.9759 54.0625 67.382 53.7604 67.5798 53.5833C68.1421 53.0938 68.1526 53.0833 68.3921 52.9583C68.5274 52.8854 68.6003 52.7917 68.5795 52.75C68.5274 52.6771 66.8926 52.6979 65.8825 52.7917C65.591 52.8229 65.414 52.8021 65.4452 52.7396C65.5077 52.6458 65.1536 52.6771 64.9766 52.7917C64.9141 52.8229 64.8725 52.8021 64.8725 52.75C64.8725 52.6875 64.8204 52.6354 64.7579 52.6354C64.7059 52.6354 64.6746 52.6667 64.7059 52.7188C64.7267 52.7604 64.3727 52.7813 63.9041 52.7604C63.1023 52.7292 60.0721 52.7188 58.3123 52.7292C57.8854 52.7396 57.3439 52.7292 57.1149 52.7083C56.8858 52.6875 56.615 52.7083 56.5213 52.7604C56.4172 52.8125 56.3339 52.8125 56.3339 52.7604C56.3339 52.7083 56.1256 52.6771 55.8653 52.6875C55.6154 52.6979 55.4176 52.6771 55.4176 52.6458C55.428 52.6146 55.3967 52.4688 55.3551 52.3333C55.2926 52.1458 55.3134 52.0417 55.428 51.9583C55.5217 51.8854 55.5529 51.7917 55.5113 51.7083C55.4175 51.5521 55.907 50.9792 56.0736 51.0625C56.136 51.0938 56.1152 51.0313 56.0319 50.9271C55.907 50.7708 55.907 50.75 56.0319 50.7813C56.1152 50.8021 56.1673 50.7604 56.1569 50.6875C56.136 50.625 56.2298 50.4792 56.3651 50.375C56.4901 50.2708 56.615 50.0938 56.6359 49.9792C56.6463 49.8646 56.8025 49.6563 56.9587 49.5104C57.1669 49.3229 57.2711 49.1146 57.3127 48.8021C57.3544 48.4063 57.6667 47.9688 57.9062 47.9479C57.9375 47.9479 57.9687 47.875 57.9687 47.7917C57.9687 47.7083 57.9271 47.6667 57.875 47.6979C57.8333 47.7292 57.7917 47.6979 57.7917 47.6458C57.7917 47.5833 57.8438 47.5313 57.8958 47.5313C57.9583 47.5313 58 47.4583 58 47.375C58 47.2917 58.052 47.2188 58.1041 47.2188C58.1666 47.2188 58.2082 47.1458 58.2082 47.0625C58.2082 46.9792 58.2603 46.9063 58.3228 46.9063C58.3748 46.9063 58.4061 46.8646 58.3644 46.8125C58.3332 46.7604 58.354 46.6875 58.4165 46.6458C58.479 46.6042 58.4998 46.5313 58.4685 46.4792C58.4269 46.4271 58.4789 46.3854 58.5831 46.3854C58.7289 46.3854 58.7289 46.3542 58.6247 46.2292C58.5102 46.0938 58.5206 46.0833 58.6456 46.125C58.7497 46.1667 58.833 46.0625 58.9267 45.7604C58.9892 45.5313 59.0204 45.2917 58.9788 45.2292C58.9371 45.1667 58.9475 45.0833 58.9996 45.0417C59.0517 45.0104 59.1558 44.8542 59.2183 44.6875C59.2912 44.5313 59.4161 44.4063 59.4994 44.4063C59.5723 44.4063 59.666 44.3333 59.7077 44.25C59.7389 44.1667 59.7181 44.0938 59.666 44.0938C59.5515 44.0938 59.6556 43.7604 59.8118 43.6563C59.8743 43.6146 59.9263 43.5 59.9263 43.3959C59.9368 43.2917 59.9784 43.2188 60.0409 43.2292C60.093 43.2396 60.1554 43.1459 60.1554 43.0313C60.1658 42.9063 60.2387 42.7708 60.3116 42.7292C60.3845 42.6771 60.4053 42.6354 60.3533 42.6354C60.3012 42.6354 60.3429 42.5417 60.4366 42.4375C60.5407 42.3229 60.5928 42.1875 60.5615 42.1354C60.5303 42.0729 60.5719 42 60.6657 41.9688C60.7594 41.9375 60.7906 41.9479 60.749 42.0208C60.7177 42.0833 60.7802 42.0729 60.9052 42C61.0301 41.9167 61.0718 41.8333 60.9989 41.7917C60.926 41.75 60.9364 41.7083 61.0301 41.6667C61.1342 41.625 61.1134 41.6042 60.9885 41.6042C60.8843 41.5938 60.8323 41.5417 60.8635 41.4792C60.9052 41.4167 61.0093 41.3958 61.0926 41.4271C61.1967 41.4688 61.228 41.4479 61.1967 41.3438C61.1551 41.25 61.2592 41.1354 61.4675 41.0313C61.6549 40.9479 61.7486 40.8646 61.6861 40.8646C61.4779 40.8646 61.582 40.2292 61.8007 40.1042C61.9985 39.9792 62.061 39.8542 62.0922 39.4896C62.1026 39.3542 62.1339 39.3438 62.238 39.4271C62.4254 39.5729 62.54 39.25 62.3734 39.0417C62.2693 38.9167 62.2797 38.875 62.415 38.8229C62.5192 38.7813 62.5712 38.6875 62.5296 38.5938C62.4879 38.4688 62.4983 38.4583 62.6233 38.5625C62.8211 38.7292 63.0086 38.625 62.9253 38.3958C62.8732 38.2708 62.894 38.25 63.0086 38.3125C63.1231 38.3854 63.1335 38.375 63.0294 38.2396C62.9149 38.1146 62.9461 38.0313 63.1544 37.7813C63.3626 37.5521 63.4147 37.4063 63.3626 37.1771C63.321 36.9063 63.3314 36.8958 63.498 37.0208C63.5917 37.0938 63.6438 37.1146 63.6021 37.0729C63.5605 37.0208 63.6229 36.8438 63.7375 36.6771C63.8624 36.5104 63.9666 36.2708 63.977 36.125C64.0082 35.8438 64.2894 35.5313 64.4039 35.6354C64.456 35.6771 64.456 35.6563 64.4143 35.5833C64.3831 35.5208 64.456 35.3854 64.5809 35.3021C64.7163 35.2083 64.7579 35.1354 64.6746 35.1354C64.5809 35.1354 64.6226 35.0625 64.7684 34.9271C64.8933 34.8125 65.0079 34.625 65.0183 34.5104C65.0183 34.3958 65.0703 34.3021 65.1224 34.3125C65.1745 34.3125 65.2786 34.1771 65.3723 34C65.4556 33.8229 65.5597 33.7083 65.6118 33.7396C65.6639 33.7708 65.7159 33.7292 65.7263 33.6563C65.7263 33.5833 65.7472 33.4688 65.7472 33.4167C65.768 33.2396 65.9242 33.0417 65.9971 33.0938C66.0387 33.1146 66.1845 32.9583 66.3095 32.7292C66.5698 32.2708 66.5594 32.2396 66.247 32.5208ZM61.8215 39.9792C61.7903 40.0104 61.6965 40.0208 61.6237 39.9896C61.5403 39.9583 61.5716 39.9271 61.6861 39.9271C61.8007 39.9167 61.8632 39.9479 61.8215 39.9792ZM49.5655 59C49.5655 59.0521 49.5238 59.0833 49.4718 59.0833C49.4197 59.0833 49.3885 59.1979 49.4197 59.3438C49.4405 59.4896 49.4301 59.6042 49.3781 59.6042C49.326 59.6042 49.2843 59.6667 49.2739 59.7292C49.2219 60.2917 49.1177 60.7604 49.0136 60.9271C48.9615 61 48.9511 61.1042 48.9928 61.1563C49.024 61.2083 48.8053 61.2813 48.5034 61.3125C47.9307 61.375 44.1508 61.4479 44.1508 61.3958C44.1508 61.3438 44.7235 60.4896 44.8484 60.3646C44.9109 60.2917 45.14 59.9479 45.3483 59.6146C45.5982 59.1979 45.796 58.9792 45.9522 58.9583C46.4312 58.8958 49.5655 58.9271 49.5655 59ZM52.4603 67.4063C52.6165 67.4167 52.6894 67.4792 52.6894 67.625C52.6894 67.7396 52.6581 67.8333 52.6061 67.8333C52.5644 67.8333 52.4186 68.125 52.2937 68.4792C52.1583 68.8438 51.95 69.3438 51.8251 69.6042C51.7106 69.8646 51.5752 70.1667 51.5335 70.2813C51.4606 70.5 50.586 72.625 50.3256 73.2188C50.1486 73.6354 50.0757 73.6354 48.7325 73.3438C48.191 73.2188 47.3475 73.0521 46.8581 72.9688C45.9001 72.8021 45.619 72.6563 46.0043 72.5521C46.15 72.5208 46.2229 72.4375 46.1917 72.3542C46.1396 72.2083 46.6395 70.8438 46.7956 70.7396C46.8477 70.6979 46.8477 70.6146 46.8061 70.5521C46.7644 70.4792 46.7956 70.3646 46.8581 70.2813C46.931 70.1979 46.9518 70.125 46.9206 70.125C46.879 70.125 46.9102 70.0208 46.9831 69.8854C47.056 69.7604 47.0976 69.625 47.0872 69.5729C47.0768 69.5313 47.108 69.5 47.1497 69.5C47.1913 69.5 47.2434 69.3958 47.2434 69.2708C47.2538 69.1354 47.3163 69.0208 47.3788 69C47.4308 68.9792 47.4829 68.8438 47.4829 68.7083C47.4829 68.5625 47.5454 68.4583 47.6287 68.4583C47.7953 68.4583 47.8994 68.2396 47.8994 67.875C47.8994 67.3333 47.9931 67.3125 50.1903 67.3542C51.3044 67.375 52.3249 67.4063 52.4603 67.4063ZM31.1034 72.0625C31.0721 72.0938 30.9784 72.1042 30.9055 72.0729C30.8222 72.0417 30.8535 72.0104 30.968 72.0104C31.0825 72 31.145 72.0313 31.1034 72.0625ZM38.2154 74.8542C38.2154 74.8854 38.1737 74.9375 38.1113 74.9688C38.0592 75 38.0071 74.9792 38.0071 74.9271C38.0071 74.8646 38.0592 74.8125 38.1113 74.8125C38.1737 74.8125 38.2154 74.8333 38.2154 74.8542ZM54.0118 80.7708C53.9806 80.8542 53.9493 80.8229 53.9493 80.7083C53.9389 80.5938 53.9702 80.5313 54.0014 80.5729C54.0326 80.6042 54.043 80.6979 54.0118 80.7708Z" fill="white"/>
<path d="M110.939 48.0208L109.763 48.0729L109.377 48.8229L108.992 49.5312L107.191 49.625L105.389 49.6458L104.639 50.5937C104.223 51.1146 103.89 51.5833 103.89 51.625C103.89 51.6771 104.733 51.7083 105.91 51.7083C107.014 51.7083 107.93 51.7396 107.93 51.7604C107.93 51.8021 107.545 52.6146 107.076 53.5729C105.014 57.7604 103.983 59.875 103.983 59.9271C103.983 59.9583 104.546 59.9792 105.233 59.9792H106.462L106.941 58.9896L107.43 58.0104H111.002L114.584 57.9896L114.896 57.6042C115.063 57.3958 115.427 56.9583 115.698 56.6354C115.958 56.3125 116.187 56.0208 116.187 55.9792C116.187 55.9479 114.469 55.9271 112.355 55.9271C110.252 55.9271 108.523 55.9062 108.523 55.8854C108.523 55.8646 108.628 55.625 108.752 55.375L108.982 54.9062H112.22H115.427L115.906 54.3229C116.854 53.1771 116.937 53.0521 116.937 52.9583C116.937 52.8958 115.833 52.8437 113.49 52.8333L110.012 52.8021L110.252 52.25L110.491 51.7083H113.751H117.02L117.291 51.3958C117.437 51.2396 117.687 50.9271 117.843 50.7187C117.989 50.5104 118.239 50.2187 118.384 50.0729C118.52 49.9167 118.624 49.75 118.593 49.7187C118.561 49.6771 116.958 49.6458 115.021 49.6458H111.502L111.876 48.8958C112.241 48.1562 112.314 47.9375 112.189 47.9687C112.137 47.9479 111.585 47.9896 110.939 48.0208Z" fill="white"/>
<path d="M97.1943 48.3541C96.809 48.4271 96.3612 48.5 96.2051 48.5312C95.9864 48.5729 95.8198 48.7187 95.5074 49.1458L95.0909 49.8021H94.0912H93.102L92.3523 50.7187C91.9358 51.2291 91.6025 51.6771 91.6025 51.7291C91.6025 51.7708 92.0399 51.8333 92.623 51.8437L93.6331 51.875L92.8313 52.9375C92.3939 53.5208 91.9982 54.0104 91.967 54.0416C91.8733 54.1146 91.6025 54.5416 91.6025 54.6146C91.6025 54.6562 94.0912 54.6979 97.111 54.7083L102.817 54.7396L102.442 55.375L102.057 56.0208H97.1735H93.7476L93.2998 56.5937C93.0499 56.9062 92.7063 57.3229 92.5501 57.5104C92.3835 57.6979 92.2377 57.9166 92.2377 57.9791C92.2377 58.0729 91.8733 58.1041 96.507 58.0937C99.6517 58.0833 102.494 58.0625 102.828 58.0312L103.452 57.9791L103.911 57.1666C104.171 56.7291 104.535 56.0729 104.712 55.7396C104.889 55.3958 105.108 55.0208 105.191 54.8958C105.275 54.7708 105.535 54.3021 105.785 53.8646C106.035 53.4271 106.326 52.9687 106.431 52.8437L106.618 52.6354H100.953H95.2783L95.6115 52.1562L95.9447 51.6875H99.1936L102.432 51.6666L102.703 51.3021C102.859 51.1146 103.213 50.6666 103.494 50.3229L104.015 49.6979H100.693H97.3817L97.7878 49.125C98.0065 48.8125 98.2356 48.4791 98.3189 48.375C98.4334 48.2187 98.423 48.1979 98.1731 48.2083C98.0169 48.2291 97.5796 48.2916 97.1943 48.3541Z" fill="white"/>
<path d="M118.936 50.8542C118.52 51.3854 118.187 51.8542 118.187 51.8854C118.187 51.9375 118.437 51.9687 118.739 51.9687H119.301L118.468 53.3958C118.01 54.1875 117.239 55.5104 116.76 56.3333C116.292 57.1667 115.875 57.8958 115.844 57.9583C115.802 58.0625 116.937 58.0833 122.185 58.0833H128.589L128.902 57.6354C129.079 57.3854 129.245 57.1771 129.277 57.1458C129.308 57.1146 129.516 56.875 129.735 56.6042L130.141 56.1146H129.495C129.152 56.1146 128.693 56.0833 128.496 56.0625L128.152 56L128.475 55.4271C128.652 55.1146 128.912 54.6354 129.058 54.3854C129.204 54.125 129.756 53.1146 130.287 52.125C130.828 51.1458 131.359 50.2396 131.463 50.125L131.661 49.9062H125.684H119.697L118.936 50.8542ZM127.392 52.5833C127.163 52.9896 126.663 53.9062 126.267 54.625L125.549 55.9375L122.529 56.0312L119.478 56.0521L119.79 55.5104C120.446 54.3542 121.217 53.0417 121.529 52.5208L121.852 51.9792L123.102 51.9479C123.799 51.9271 125.143 51.9062 126.101 51.8958L127.787 51.8646L127.392 52.5833Z" fill="white"/>
<path d="M122.3 53.8021L121.592 55.0833H122.175C122.508 55.0833 123.081 55.1146 123.466 55.1354L124.164 55.1875L124.341 54.8646C124.435 54.6979 124.653 54.3021 124.82 53.9896C124.986 53.6771 125.226 53.2604 125.34 53.0625C125.455 52.8646 125.528 52.6875 125.497 52.6562C125.465 52.625 124.903 52.5833 124.237 52.5521L123.008 52.5L122.3 53.8021Z" fill="white"/>
<path d="M251.524 77.7396C251.482 77.8542 251.92 77.7188 252.003 77.7188C252.086 77.7188 252.107 77.8333 252.138 77.7396C252.18 77.625 252.295 77.5833 252.513 77.6146C252.68 77.6354 252.794 77.625 252.763 77.5729C252.982 77.7188 252.961 77.5312 253.055 77.6042C253.346 77.7604 253.763 77.6354 253.763 77.3958C253.763 77.2917 253.836 77.0625 253.919 76.9062C254.002 76.7396 254.075 76.5 254.075 76.375C254.075 76.25 254.117 76.1354 254.159 76.1146C254.294 76.0625 256.075 71.5625 256.002 71.4479C255.97 71.3958 255.981 71.3438 256.033 71.3438C256.085 71.3438 256.2 71.1458 256.293 70.9062C256.429 70.5625 256.439 70.4479 256.335 70.3854C256.241 70.3229 256.241 70.3021 256.335 70.3021C256.408 70.3021 256.543 70.1562 256.637 69.9792C256.772 69.7083 256.783 69.6042 256.679 69.4062C256.564 69.2083 256.574 69.1458 256.72 68.9896C256.814 68.8958 256.918 68.8438 256.949 68.8646C256.97 68.8958 256.928 68.9792 256.835 69.0521C256.751 69.125 256.679 69.2292 256.679 69.2917C256.679 69.3438 256.772 69.2917 256.887 69.1562C257.001 69.0208 257.095 68.8125 257.095 68.6771C257.095 68.5417 257.137 68.4167 257.189 68.3854C257.335 68.2917 257.741 66.9792 257.657 66.8438C257.616 66.7812 257.626 66.7604 257.689 66.7917C257.824 66.875 258.48 65.1875 258.397 64.9792C258.365 64.8958 258.386 64.6875 258.438 64.5208C258.49 64.3438 258.542 64.2708 258.542 64.3333C258.563 64.5833 258.761 64.4688 258.761 64.2083C258.761 64.0625 258.803 63.9479 258.855 63.9479C258.917 63.9479 258.99 63.7396 259.032 63.4792C259.063 63.2188 259.146 63.0104 259.219 63.0104C259.282 63.0104 259.251 62.9375 259.157 62.8646C258.949 62.7187 259.011 62.5729 259.24 62.6667C259.334 62.6979 259.386 62.6458 259.386 62.5C259.386 62.375 259.438 62.2813 259.5 62.2813C259.553 62.2813 259.584 62.2396 259.542 62.1875C259.511 62.1354 259.532 62.0625 259.594 62.0208C259.646 61.9896 259.698 61.8854 259.698 61.7917C259.698 61.6979 259.792 61.4167 259.917 61.1667C260.042 60.9167 260.115 60.6146 260.084 60.5104C260.052 60.375 260.084 60.3021 260.188 60.3021C260.281 60.3021 260.333 60.2188 260.323 60.0625C260.281 59.6458 260.323 59.4583 260.427 59.5208C260.552 59.6042 260.74 59.1458 260.74 58.7292C260.74 58.5625 260.823 58.3333 260.927 58.2188C261.021 58.1042 261.094 57.9792 261.083 57.9583C261.073 57.9271 261.198 57.6146 261.364 57.2604C261.541 56.8958 261.677 56.5312 261.677 56.4375C261.677 56.3542 261.718 56.2396 261.76 56.1771C261.906 56 262.104 55.3021 262.041 55.1979C262.01 55.1354 262.041 55.0729 262.114 55.0417C262.187 55.0104 262.26 54.8437 262.27 54.6667C262.281 54.4896 262.364 54.2917 262.447 54.2187C262.562 54.1354 264.28 49.7083 264.28 49.5104C264.28 49.4896 264.238 49.4688 264.176 49.4688C264.124 49.4688 264.072 49.5208 264.072 49.5729C264.072 49.6354 263.895 49.875 263.676 50.125C263.457 50.3646 263.166 50.75 263.03 50.9792C262.885 51.2083 262.697 51.4896 262.593 51.5937C262.499 51.6979 262.437 51.8333 262.468 51.8854C262.499 51.9271 262.479 51.9688 262.416 51.9688C262.312 51.9688 261.698 52.9167 261.645 53.1458C261.635 53.2187 261.552 53.3438 261.448 53.4271C261.354 53.5208 261.177 53.7813 261.062 54.0208C260.937 54.25 260.74 54.5313 260.635 54.625C260.521 54.7292 260.427 54.875 260.427 54.9583C260.427 55.0313 260.386 55.0938 260.323 55.0938C260.271 55.0938 260.219 55.1875 260.219 55.2917C260.219 55.4062 260.094 55.6354 259.948 55.8125C259.802 55.9896 259.709 56.1771 259.74 56.2292C259.782 56.2812 259.771 56.3438 259.719 56.3646C259.677 56.375 259.459 56.6667 259.23 57C259.001 57.3437 258.667 57.8333 258.48 58.0937C258.293 58.3646 258.147 58.6458 258.147 58.7083C258.136 58.7813 258.095 58.8438 258.032 58.8438C257.98 58.8438 257.928 58.9063 257.928 58.9688C257.928 59.0417 257.824 59.2083 257.689 59.3229C257.564 59.4479 257.387 59.6875 257.303 59.8437C257.137 60.1667 256.71 60.7812 256.491 61.0208C256.418 61.0937 256.262 61.3542 256.147 61.5937C256.023 61.8229 255.845 62.1146 255.741 62.2292C255.637 62.3438 255.408 62.7292 255.221 63.0833C255.044 63.4375 254.867 63.7396 254.825 63.7604C254.783 63.7813 254.669 63.9583 254.575 64.1563C254.471 64.3542 254.2 64.7813 253.971 65.0938C253.742 65.4063 253.461 65.8542 253.346 66.0833C252.867 67.0208 252.274 67.5729 252.118 67.3229C252.076 67.2604 251.576 67.0521 251.003 66.8646C250.431 66.6667 249.879 66.4479 249.785 66.3646C249.691 66.2813 249.556 66.25 249.483 66.3021C249.41 66.3437 249.379 66.3333 249.421 66.2708C249.462 66.1979 249.358 66.1354 249.15 66.1042C248.733 66.0313 247.172 65.5104 247.099 65.4063C247.047 65.3333 246.411 65.1042 246.078 65.0417C245.984 65.0208 245.891 65 245.88 64.9896C245.86 64.9688 245.818 64.9583 245.776 64.9479C245.724 64.9375 245.651 64.9062 245.589 64.8646C245.537 64.8333 245.214 64.75 244.891 64.6771C244.558 64.6042 244.287 64.5 244.287 64.4479C244.287 64.4062 244.204 64.3646 244.1 64.3646C243.996 64.3646 243.871 64.3333 243.829 64.2917C243.798 64.25 243.704 64.2083 243.631 64.1979C243.558 64.1875 243.298 64.125 243.038 64.0521C242.777 63.9792 242.496 63.9063 242.402 63.8958C242.309 63.875 242.028 63.7708 241.778 63.6563C241.528 63.5417 240.945 63.3333 240.486 63.1771C240.028 63.0312 239.331 62.7917 238.924 62.6458C238.341 62.4271 237.248 62.0833 237.133 62.0729C237.113 62.0729 237.102 62.1354 237.102 62.2187C237.102 62.3021 237.05 62.3854 236.998 62.4063C236.936 62.4271 236.873 62.5625 236.852 62.7188C236.842 62.875 236.769 63.0625 236.707 63.1458C236.634 63.2292 236.613 63.3229 236.654 63.3646C236.696 63.3958 236.644 63.4896 236.54 63.5625C236.436 63.6354 236.373 63.7396 236.384 63.7917C236.425 63.9375 236.03 64.7813 235.926 64.7813C235.884 64.7813 235.863 64.8229 235.905 64.8854C235.936 64.9375 235.926 65.0625 235.863 65.1667C235.717 65.4479 235.467 66.0729 235.478 66.1563C235.478 66.1875 235.384 66.3333 235.259 66.4688C235.134 66.6042 234.895 67.0312 234.718 67.4375C234.541 67.8333 234.343 68.25 234.291 68.3542C234.228 68.4583 234.207 68.5833 234.239 68.6354C234.28 68.6979 234.228 68.7396 234.145 68.7396C233.989 68.7396 233.926 68.9167 233.968 69.25C233.989 69.3333 233.947 69.3542 233.864 69.3021C233.77 69.25 233.76 69.2812 233.801 69.3958C233.833 69.4896 233.812 69.6042 233.739 69.6458C233.666 69.6979 233.614 69.7708 233.603 69.8333C233.572 70.0729 233.426 70.4063 233.343 70.4063C233.291 70.4063 233.281 70.4792 233.312 70.5625C233.354 70.6458 233.333 70.7188 233.27 70.7188C233.218 70.7188 233.135 70.8438 233.093 71C233.062 71.1563 232.937 71.4167 232.812 71.5729C232.698 71.7396 232.593 72 232.573 72.1458C232.562 72.3021 232.489 72.4479 232.427 72.4688C232.364 72.4896 232.312 72.5937 232.312 72.7083C232.312 72.8229 232.25 72.9375 232.167 72.9687C232.083 73 231.729 73.5312 231.625 73.9062C231.531 74.2708 231.406 74.5729 231.365 74.5729C231.313 74.5729 231.271 74.6667 231.271 74.7708C231.271 74.8854 231.209 75.0417 231.136 75.1146C230.865 75.3854 230.428 76.1458 230.49 76.2396C230.532 76.3021 230.5 76.3438 230.438 76.3438C230.365 76.3438 230.344 76.4167 230.375 76.5C230.407 76.5938 230.365 76.6875 230.282 76.7187C230.094 76.7917 230.074 76.9896 230.261 76.9479C230.334 76.9271 230.407 76.9479 230.417 76.9896C230.48 77.2083 230.417 77.3021 230.24 77.25C230.094 77.2188 230.053 77.2396 230.094 77.3542C230.126 77.4375 230.042 77.625 229.907 77.7708L229.657 78.0417L235.228 77.9792C238.289 77.9479 243.006 77.8958 245.693 77.875C248.39 77.8542 250.722 77.7292 250.889 77.75C251.076 77.7708 251.41 77.7604 251.274 77.75M257.616 62C257.616 62.0521 257.564 62.1042 257.501 62.1042C257.449 62.1042 257.428 62.0521 257.459 62C257.491 61.9375 257.543 61.8958 257.574 61.8958C257.595 61.8958 257.616 61.9375 257.616 62ZM254.492 67C254.492 67.0521 254.544 66.8958 254.481 66.8958C254.429 66.8958 254.409 66.8438 254.44 66.7917C254.471 66.7292 254.419 66.8958 254.45 66.8958C254.471 66.8958 254.492 66.9375 254.492 67ZM241.319 69.3438C241.496 69.4167 241.819 69.5521 242.048 69.6354C242.277 69.7187 242.715 69.8854 243.027 70.0104C243.329 70.1354 243.673 70.2292 243.777 70.2292C243.891 70.2292 243.975 70.2708 243.975 70.3333C243.975 70.3854 244.089 70.4375 244.235 70.4375C244.37 70.4375 244.641 70.5 244.829 70.5833C245.505 70.875 246.63 71.2917 246.89 71.3438C247.026 71.3646 247.192 71.4271 247.255 71.4688C247.307 71.5208 247.526 71.6042 247.723 71.6771C248.744 72.0208 248.942 72.2292 248.182 72.1562C247.921 72.1354 247.588 72.1667 247.442 72.2396C247.234 72.3333 247.161 72.3333 247.13 72.2396C247.099 72.1562 247.005 72.1562 246.797 72.2396C246.64 72.3021 246.411 72.3125 246.307 72.2604C246.005 72.1354 244.808 72.1042 244.808 72.2187C244.808 72.2812 244.766 72.3021 244.714 72.2708C244.672 72.2396 244.266 72.2083 243.839 72.1875C243.402 72.1771 243.069 72.1354 243.1 72.0833C243.131 72.0417 243.11 72 243.048 72C242.996 72 242.923 72.0417 242.892 72.0938C242.861 72.1458 242.392 72.1667 241.871 72.1458C241.34 72.1146 240.518 72.0833 240.039 72.0625C239.57 72.0417 239.164 72.0104 239.133 71.9792C239.06 71.9062 239.591 70.9167 239.778 70.7708C239.903 70.6875 239.914 70.6458 239.81 70.6458C239.705 70.6458 239.716 70.5938 239.841 70.4583C239.945 70.3542 239.987 70.2292 239.945 70.1979C239.914 70.1563 239.924 70.125 239.987 70.125C240.039 70.125 240.195 69.8854 240.32 69.6042C240.58 69.0312 240.611 69.0208 241.319 69.3438ZM255.533 70.125C255.533 70.1771 255.491 70.2292 255.429 70.2292C255.377 70.2292 255.325 70.1771 255.325 70.125C255.325 70.0625 255.377 70.0208 255.429 70.0208C255.491 70.0208 255.533 70.0625 255.533 70.125ZM237.758 74.9063C237.717 74.9375 237.644 75.0104 237.602 75.0625C237.55 75.1146 237.519 75.0625 237.519 74.9375C237.519 74.7813 237.56 74.7292 237.685 74.7813C237.779 74.8125 237.81 74.875 237.758 74.9063ZM230.927 75.7708C230.896 75.8542 230.865 75.8229 230.865 75.7083C230.854 75.5937 230.886 75.5312 230.917 75.5729C230.948 75.6042 230.959 75.6979 230.927 75.7708ZM234.239 75.8542C234.207 75.9062 234.135 75.9583 234.072 75.9583C234.02 75.9583 233.978 75.9062 233.978 75.8542C233.978 75.7917 234.051 75.75 234.145 75.75C234.228 75.75 234.27 75.7917 234.239 75.8542ZM243.944 76.3333C243.912 76.3646 243.819 76.375 243.746 76.3438C243.662 76.3125 243.694 76.2812 243.808 76.2812C243.923 76.2708 243.985 76.3021 243.944 76.3333ZM235.332 76.6875C235.332 76.7396 235.29 76.7917 235.228 76.7917C235.176 76.7917 235.124 76.7396 235.124 76.6875C235.124 76.625 235.176 76.5833 235.228 76.5833C235.29 76.5833 235.332 76.625 235.332 76.6875ZM231.167 76.8438C231.167 76.9688 230.969 76.9688 230.927 76.8438C230.886 76.75 230.917 76.7188 231.021 76.7604C231.094 76.7917 231.167 76.8333 231.167 76.8438ZM232.739 77.1979C232.614 77.3229 232.521 77.375 232.521 77.3125C232.521 77.1562 232.875 76.7708 232.916 76.8854C232.937 76.9375 232.854 77.0833 232.739 77.1979Z" fill="white"/>
<path d="M79.1381 49.8021C79.1381 49.8646 79.1069 49.9062 79.0652 49.8958C79.0132 49.8958 78.9091 49.9062 78.8258 49.9479C78.7424 49.9791 78.4092 50.0833 78.0968 50.1875C77.7845 50.2812 77.3471 50.4271 77.1284 50.5C76.9202 50.5833 76.6703 50.6458 76.587 50.6458C76.5141 50.6458 76.3162 50.6979 76.1496 50.7708C75.9934 50.8333 75.7852 50.8958 75.7019 50.9062C75.6186 50.9166 75.2125 51.0208 74.8168 51.1458C74.4107 51.2604 73.5464 51.4583 72.8904 51.5833C72.2344 51.6979 71.5992 51.8229 71.4742 51.8437C71.2972 51.8854 71.2139 52.0625 71.0265 52.8437C70.8911 53.375 70.7453 53.875 70.7037 53.9687C70.6516 54.0625 70.5058 54.4375 70.3913 54.8125C70.1414 55.5729 69.9331 56.0833 69.704 56.5C69.6311 56.6458 69.5582 56.8437 69.5582 56.9271C69.5582 57.0104 69.4854 57.1354 69.4021 57.2083C69.3187 57.2812 69.2459 57.4375 69.2459 57.5625C69.2459 57.6771 69.1626 57.9271 69.048 58.1041C68.9439 58.2812 68.8189 58.5312 68.7773 58.6771C68.7044 58.9062 68.5378 59.2916 68.1421 60.1771C68.0692 60.3437 67.9026 60.7708 67.7776 61.1146C67.6631 61.4583 67.4236 62.0312 67.257 62.3958C67.0904 62.75 66.955 63.0833 66.955 63.1458C66.955 63.1979 66.8405 63.4896 66.7051 63.7916C66.4344 64.3646 66.4135 64.4166 65.7055 66.1146C65.466 66.6875 65.2056 67.2916 65.1223 67.4583C65.039 67.625 64.9766 67.8021 64.9766 67.8646C64.9766 67.9166 64.9141 68.1041 64.8308 68.2812C64.4767 69.1041 64.3414 69.4583 64.3414 69.5521C64.3414 69.6041 64.2789 69.7291 64.206 69.8125C64.0082 70.0416 63.727 70.6562 63.727 70.8437C63.727 70.9375 63.6645 71.1041 63.5916 71.2187C63.4354 71.4479 63.0606 72.375 62.9044 72.9375C62.7065 73.6458 62.2588 74.8646 62.0193 75.3854C61.8839 75.6771 61.7381 76.1041 61.6965 76.3541C61.6548 76.5937 61.5819 76.7916 61.5299 76.7916C61.4778 76.7916 61.4362 76.875 61.4362 76.9896C61.4362 77.1666 61.2696 77.6146 60.8426 78.5416C60.7593 78.7396 60.7177 78.9166 60.7489 78.9583C60.7802 78.9896 60.7385 79.1354 60.6344 79.2812C60.5406 79.4271 60.4469 79.6771 60.4365 79.8437C60.4157 80.0104 60.3012 80.3021 60.197 80.4791C60.0825 80.6562 59.895 81.1041 59.7701 81.4791C59.6347 81.8541 59.4994 82.1979 59.4473 82.25C59.3952 82.3125 59.3536 82.4271 59.3536 82.5208C59.3536 82.6979 59.062 83.3541 58.9475 83.4583C58.9058 83.4896 58.8225 83.7396 58.7496 84.0312C58.6767 84.3125 58.5414 84.6875 58.4581 84.8541C58.2706 85.2291 58.2706 85.4375 58.4477 85.4375C58.5934 85.4375 59.4473 85.1771 59.8222 85.0208C60.2595 84.8437 60.4469 84.7812 60.5302 84.7916C60.5719 84.8021 60.7801 84.7396 60.9988 84.6458C61.2071 84.5521 61.4882 84.4583 61.6236 84.4375C61.759 84.4271 61.9256 84.3541 62.0089 84.2916C62.0818 84.2291 62.2484 84.1562 62.3837 84.1354C62.8731 84.0416 64.0394 83.5416 64.0394 83.4271C64.0394 83.3541 64.0915 83.3646 64.1435 83.4583C64.2164 83.5729 64.2477 83.5729 64.2477 83.4791C64.2477 83.4062 64.2997 83.375 64.3518 83.4062C64.4143 83.4375 64.4559 83.4271 64.4559 83.3646C64.4559 83.3021 64.5288 83.2812 64.6121 83.3125C64.6954 83.3437 64.9974 83.2916 65.2889 83.1979C65.7575 83.0416 65.7992 83 65.6846 82.8541C65.5597 82.6979 65.5701 82.6875 65.7263 82.8125C65.8721 82.9271 65.9762 82.9271 66.299 82.8229C67.8401 82.3333 68.2254 82.2083 68.7773 82.0521C69.1209 81.9583 70.1518 81.6458 71.0681 81.3541C73.1507 80.7083 74.1816 80.3958 74.7126 80.2396C74.9417 80.1771 75.4311 80.0312 75.806 79.9166C76.1809 79.8021 76.5766 79.6979 76.6911 79.6771C76.8056 79.6562 77.6491 79.4062 78.5654 79.1041C79.4818 78.8125 80.5959 78.4687 81.0437 78.3437C81.481 78.2187 81.8455 78.0833 81.8455 78.0416C81.8455 78 81.6372 77.9687 81.3769 77.9583C81.0437 77.9583 80.9292 77.9896 80.9812 78.0729C81.0229 78.1562 80.9916 78.1562 80.8875 78.0625C80.7626 77.9687 80.5335 77.9583 79.9087 78.0312C79.4505 78.0937 78.5967 78.1666 77.9927 78.1875C77.3888 78.2187 76.7119 78.2916 76.4828 78.3541C76.2538 78.4062 75.5977 78.4791 75.025 78.5C74.1087 78.5521 73.5464 78.6041 71.797 78.8125C71.3909 78.8646 69.6936 79.0208 67.8401 79.1771C67.3299 79.2187 66.8925 79.25 66.8717 79.2396C66.8509 79.2187 67.1945 78.1771 67.6319 77C67.7047 76.8021 68.0067 76.0937 68.2879 75.4375C68.569 74.7812 68.8814 74 68.9855 73.7187C69.0897 73.4271 69.2771 72.9583 69.4125 72.6666C69.5478 72.3854 69.8186 71.7291 70.0164 71.2083C70.6204 69.6146 71.5992 67.2083 72.1615 65.9583C72.453 65.3021 72.8383 64.4062 73.0153 63.9791C73.1819 63.5521 73.4319 62.9583 73.5672 62.6771C74.1503 61.4479 75.2125 59.2396 75.2437 59.1979C75.3478 59.0833 82.1683 59.0104 82.3661 59.1354C82.4182 59.1666 82.6889 59.1666 82.9597 59.125C83.3554 59.0625 83.5324 58.9583 83.9489 58.5416C84.2301 58.2604 84.4279 57.9896 84.3967 57.9479C84.3758 57.8958 84.4487 57.8229 84.5841 57.7812C84.6153 57.7291 84.5737 57.7291 84.6258 57.6562C84.532 57.6354 84.7195 57.6458 84.7507 57.5937C84.7819 57.5416 84.7924 57.5208 84.7195 57.4896C84.8236 57.5312 84.8965 57.4687 84.9381 57.3229C84.9694 57.2083 85.0319 57.1041 85.0735 57.1041C85.1672 57.1041 85.6566 56.625 86.4688 55.7396C86.75 55.4271 87.0832 55.1041 87.2186 55.0208C87.406 54.8854 87.4268 54.8333 87.3227 54.6875C87.2082 54.5312 86.7188 54.5104 82.564 54.4479C77.9302 54.3854 77.3055 54.3646 77.2013 54.2604C77.1076 54.1666 78.2114 51.7187 78.6904 50.9375C78.8258 50.7187 78.9299 50.4687 78.9299 50.3854C78.9299 50.2916 78.9924 50.1979 79.0757 50.1666C79.2631 50.0937 79.3672 49.8333 79.2423 49.7604C79.1798 49.7187 79.1381 49.75 79.1381 49.8021ZM71.797 55.2291C71.7658 55.2812 71.6721 55.3333 71.6096 55.3333C71.5367 55.3333 71.5471 55.2916 71.6408 55.2291C71.8387 55.1041 71.8803 55.1041 71.797 55.2291ZM68.9439 59.8437C68.8398 59.9375 68.8293 59.9271 68.8918 59.7812C68.9231 59.6771 68.9855 59.625 69.0168 59.6562C69.048 59.6875 69.0168 59.7708 68.9439 59.8437Z" fill="white"/>
<path d="M235.488 52.6875C234.686 52.948 233.843 53.2084 233.614 53.2709C233.385 53.3334 233.125 53.4584 233.031 53.5313C232.937 53.6042 232.791 53.6459 232.698 53.6042C232.604 53.573 232.375 53.6146 232.187 53.698C232 53.7917 231.594 53.9167 231.302 53.9896C231 54.0625 230.75 54.1563 230.75 54.198C230.75 54.2396 230.667 54.2501 230.573 54.2292C230.469 54.2084 230.178 54.2917 229.917 54.4271C229.428 54.6771 229.449 54.6355 228.553 56.5313C228.355 56.9271 228.21 57.3438 228.23 57.4376C228.241 57.5417 228.178 57.625 228.095 57.625C227.949 57.625 227.897 57.7396 227.928 58.0105C227.939 58.0834 227.908 58.1459 227.845 58.1459C227.793 58.1459 227.72 58.2813 227.679 58.448C227.647 58.6042 227.522 58.8438 227.408 58.9584C227.304 59.0834 227.22 59.2188 227.231 59.2605C227.252 59.3334 225.252 63.0938 224.773 63.9792C224.69 64.125 224.576 64.3542 224.523 64.5C224.107 65.4896 223.836 66.0209 223.711 66.0938C223.628 66.1355 223.565 66.2605 223.565 66.3646C223.565 66.5417 223.253 67.2605 222.816 68.0938C222.701 68.323 222.389 68.9271 222.128 69.448C221.868 69.9584 221.608 70.4584 221.535 70.5417C221.462 70.625 221.379 70.8646 221.337 71.0625C221.306 71.2709 221.181 71.5105 221.066 71.6146C220.952 71.7084 220.848 71.8959 220.837 72.0209C220.837 72.1563 220.816 72.3125 220.816 72.3855C220.806 72.4584 220.723 72.573 220.619 72.6459C220.525 72.7188 220.431 72.9375 220.41 73.1146C220.4 73.3438 220.337 73.4584 220.233 73.4584C220.119 73.4584 220.108 73.4792 220.213 73.5417C220.306 73.6042 220.296 73.6771 220.15 73.8334C220.046 73.948 219.869 74.2292 219.765 74.4792C219.661 74.7188 219.536 74.9167 219.484 74.9167C219.442 74.9167 219.4 75.0521 219.4 75.2292C219.4 75.3959 219.359 75.5417 219.317 75.5417C219.234 75.5417 218.942 76.1667 218.973 76.2917C218.973 76.3438 218.932 76.375 218.869 76.375C218.817 76.375 218.796 76.4271 218.828 76.4896C218.869 76.5417 218.817 76.698 218.703 76.8125C218.599 76.9375 218.578 77 218.64 76.9584C218.734 76.9063 218.755 76.9376 218.713 77.0417C218.682 77.1355 218.578 77.2084 218.494 77.2084C218.422 77.2084 218.359 77.2709 218.369 77.3334C218.39 77.4063 218.265 77.7292 218.109 78.0417C217.953 78.3542 217.734 78.875 217.63 79.1875C217.411 79.8438 217.141 80.4063 216.995 80.4896C216.943 80.5313 216.901 80.625 216.901 80.698C216.901 80.7813 216.787 81.1042 216.641 81.4167C216.495 81.7292 216.381 82.0313 216.381 82.0834C216.381 82.1355 216.256 82.3959 216.11 82.6667C215.964 82.9271 215.87 83.1459 215.902 83.1459C215.933 83.1459 215.839 83.3542 215.704 83.6042C215.558 83.8646 215.443 84.1667 215.443 84.2813C215.443 84.3855 215.402 84.5 215.36 84.5209C215.308 84.5313 215.089 84.948 214.86 85.4375C214.642 85.9271 214.423 86.3334 214.381 86.3542C214.329 86.375 214.298 86.4375 214.298 86.4896C214.298 86.5521 214.152 86.8959 213.975 87.2709C213.798 87.6459 213.684 87.9896 213.715 88.0209C213.746 88.0521 213.704 88.1563 213.611 88.2605C213.423 88.4792 213.527 88.5625 213.892 88.4896C214.058 88.4584 214.215 88.3334 214.288 88.1771C214.423 87.875 214.527 87.9167 214.548 88.2709C214.558 88.4584 214.621 88.5105 214.86 88.5209L215.162 88.5313L214.912 88.3438C214.704 88.1875 214.683 88.1355 214.808 88.0209C214.892 87.948 214.923 87.9375 214.892 88C214.829 88.1146 215.048 88.2188 215.558 88.3125C215.652 88.3334 215.787 88.2396 215.849 88.1042C215.954 87.9167 216.068 87.8646 216.412 87.8646C217.318 87.8542 217.422 87.8334 217.422 87.6771C217.422 87.5625 217.547 87.5209 217.922 87.5209C218.213 87.5209 218.609 87.4271 218.869 87.3021C219.119 87.1875 219.379 87.1146 219.463 87.1459C219.546 87.1771 219.609 87.1355 219.609 87.0521C219.609 86.8959 219.692 86.8646 220.046 86.8646C220.15 86.8646 220.213 86.8334 220.181 86.7917C220.16 86.75 220.379 86.6875 220.681 86.6563C220.973 86.6146 221.233 86.5417 221.254 86.4792C221.275 86.4271 221.4 86.375 221.535 86.375C221.67 86.375 221.816 86.323 221.847 86.2709C221.889 86.2084 221.962 86.1875 222.014 86.2292C222.066 86.2605 222.17 86.2396 222.243 86.1875C222.316 86.1355 222.483 86.1042 222.628 86.1146C222.774 86.125 222.962 86.0834 223.045 86.0105C223.128 85.9271 223.232 85.8646 223.274 85.8542C223.388 85.8438 223.69 85.75 223.972 85.6355C224.107 85.5834 224.305 85.5625 224.409 85.5938C224.523 85.6355 224.607 85.6146 224.607 85.5417C224.607 85.4792 224.648 85.448 224.7 85.4896C224.753 85.5209 224.825 85.5 224.867 85.4375C224.898 85.3855 224.888 85.3334 224.825 85.3334C224.763 85.3334 224.753 85.25 224.784 85.1563C224.825 85.0417 224.867 85.0313 224.898 85.1042C224.94 85.2396 225.346 85.2709 225.721 85.1667C225.856 85.125 225.929 85.0625 225.898 85.0105C225.867 84.9584 225.94 84.9063 226.054 84.8959C226.179 84.8959 226.335 84.8855 226.408 84.875C226.471 84.8646 226.564 84.8125 226.606 84.7605C226.658 84.698 226.689 84.7084 226.689 84.7917C226.689 84.8959 226.731 84.8959 226.856 84.7709C226.991 84.625 227.387 84.5417 227.668 84.5938C227.72 84.6042 227.793 84.573 227.824 84.5105C227.866 84.4584 228.012 84.3959 228.168 84.375C228.324 84.3542 228.48 84.3021 228.522 84.2605C228.564 84.2188 228.709 84.1875 228.845 84.1875C228.98 84.1875 229.168 84.1459 229.272 84.0938C229.49 83.9792 229.844 83.8334 230.365 83.625C230.636 83.5209 230.75 83.5105 230.75 83.5834C230.75 83.6563 230.813 83.6146 230.896 83.5105C230.979 83.3959 231.094 83.3438 231.209 83.3855C231.302 83.4271 231.49 83.3855 231.625 83.3021C231.75 83.2188 231.896 83.1771 231.927 83.2188C231.969 83.25 232 83.2292 232 83.1563C232 83.0834 232.042 83.0521 232.094 83.0938C232.146 83.125 232.219 83.1042 232.26 83.0417C232.292 82.9896 232.479 82.9375 232.677 82.9375C232.864 82.9375 233.041 82.875 233.072 82.7917C233.104 82.7188 233.322 82.625 233.562 82.5834C233.822 82.5417 233.958 82.4792 233.916 82.4063C233.874 82.3334 233.937 82.3334 234.083 82.4167C234.207 82.4896 234.291 82.5 234.26 82.448C234.218 82.3959 234.322 82.3438 234.478 82.3438C234.853 82.3334 235.061 82.2813 235.145 82.1563C235.186 82.0938 235.374 82.0521 235.561 82.0417C236.123 82.0313 236.478 81.8959 236.478 81.6771C236.478 81.4688 236.634 81.4063 236.738 81.573C236.8 81.6876 237.363 81.6355 237.675 81.5C238.289 81.2188 238.466 81.1146 238.362 81.0834C238.3 81.0625 237.279 81.1459 236.092 81.2605C234.905 81.3751 232.666 81.5938 231.115 81.7396C229.574 81.8855 227.647 82.0834 226.846 82.1667C226.044 82.25 225.013 82.3438 224.555 82.375C224.097 82.4063 223.472 82.4376 223.17 82.4584C222.868 82.4792 222.607 82.4584 222.576 82.4167C222.555 82.375 222.628 82.1563 222.743 81.9376C222.857 81.7188 223.055 81.25 223.17 80.9063C223.284 80.5625 223.409 80.2605 223.451 80.2292C223.565 80.1459 224.19 78.8646 224.19 78.698C224.19 78.625 224.242 78.5625 224.305 78.5625C224.357 78.5625 224.378 78.5105 224.346 78.4584C224.315 78.3959 224.326 78.3542 224.378 78.3542C224.43 78.3542 224.555 78.1042 224.648 77.7917C224.753 77.4792 224.898 77.198 224.982 77.1667C225.055 77.1355 225.096 77.0417 225.065 76.948C225.034 76.8646 225.055 76.7917 225.117 76.7917C225.179 76.7917 225.232 76.7188 225.232 76.6355C225.232 76.5521 225.346 76.3126 225.492 76.1042C225.638 75.8959 225.752 75.6667 225.752 75.5938C225.752 75.5209 225.846 75.3438 225.971 75.1875C226.085 75.0417 226.158 74.9167 226.117 74.9167C226.085 74.9167 226.117 74.823 226.2 74.698C226.283 74.5834 226.335 74.3959 226.304 74.2813C226.273 74.1771 226.304 74.0834 226.367 74.0834C226.429 74.0834 226.481 74.0105 226.481 73.9271C226.481 73.8438 226.523 73.7709 226.564 73.7709C226.689 73.7709 227.21 72.6042 227.21 72.3334C227.21 72.2084 227.262 72.1042 227.325 72.1042C227.377 72.1042 227.408 72.0625 227.377 72.0105C227.345 71.9584 227.387 71.8646 227.47 71.7917C227.647 71.6459 228.564 69.75 228.564 69.5209C228.564 69.4375 228.595 69.3959 228.637 69.4271C228.709 69.5105 229.074 68.8021 229.084 68.5625C229.084 68.4792 229.178 68.3438 229.293 68.2709C229.407 68.198 229.501 68.0313 229.501 67.8855C229.501 67.7396 229.532 67.625 229.584 67.625C229.657 67.625 229.73 67.4688 230.032 66.698C230.105 66.5 230.292 66.0938 230.448 65.8125C230.605 65.5209 230.886 64.9792 231.063 64.6042C231.24 64.2292 231.438 63.8542 231.49 63.7709C231.583 63.6146 233.02 61.0313 233.583 59.8125C233.76 59.4375 233.937 59.0625 233.989 58.9792C234.041 58.8959 234.155 58.6563 234.249 58.4584C234.343 58.2605 234.468 58.0105 234.52 57.9063C235.426 56.1355 236.373 54.1355 236.373 54.0001C236.373 53.8646 236.675 53.3438 236.811 53.25C236.852 53.2188 236.977 52.9688 237.092 52.698C237.352 52.0834 237.404 52.0834 235.488 52.6875ZM233.614 54.3959C233.645 54.448 233.604 54.5 233.52 54.5C233.427 54.5 233.354 54.448 233.354 54.3959C233.354 54.3334 233.395 54.2917 233.447 54.2917C233.51 54.2917 233.583 54.3334 233.614 54.3959ZM234.26 54.8334C234.228 54.9167 234.197 54.8855 234.197 54.7709C234.187 54.6563 234.218 54.5938 234.249 54.6355C234.28 54.6667 234.291 54.7605 234.26 54.8334ZM232.698 55.1875C232.666 55.2188 232.573 55.2292 232.5 55.198C232.416 55.1667 232.448 55.1355 232.562 55.1355C232.677 55.125 232.739 55.1563 232.698 55.1875ZM232.208 55.9584C232.146 56.073 232.083 56.1667 232.062 56.1667C232.042 56.1667 232.042 56.073 232.073 55.9584C232.104 55.8438 232.167 55.75 232.229 55.75C232.281 55.75 232.271 55.8438 232.208 55.9584ZM228.939 56.9792C228.751 57.1459 228.751 57.1459 228.876 56.9167C228.939 56.7813 229.022 56.698 229.064 56.7292C229.095 56.7709 229.043 56.875 228.939 56.9792ZM230.021 57.2917C230.021 57.448 230.001 57.448 229.917 57.3125C229.782 57.1042 229.782 56.9688 229.917 57.0521C229.98 57.0834 230.021 57.198 230.021 57.2917ZM225.752 67.3542C225.752 67.3855 225.711 67.4375 225.648 67.4688C225.596 67.5 225.544 67.4792 225.544 67.4271C225.544 67.3646 225.596 67.3125 225.648 67.3125C225.711 67.3125 225.752 67.3334 225.752 67.3542ZM224.69 74.9584C224.617 75.0417 224.534 75.0834 224.513 75.073C224.461 75.0105 224.617 74.8125 224.721 74.8125C224.773 74.8125 224.763 74.8751 224.69 74.9584ZM236.061 81.4792C236.061 81.5313 236.04 81.5834 236.019 81.5834C235.988 81.5834 235.936 81.5313 235.905 81.4792C235.874 81.4167 235.894 81.375 235.946 81.375C236.009 81.375 236.061 81.4167 236.061 81.4792ZM234.916 82.1042C234.916 82.1563 234.864 82.2084 234.801 82.2084C234.749 82.2084 234.728 82.1563 234.759 82.1042C234.791 82.0417 234.843 82 234.874 82C234.895 82 234.916 82.0417 234.916 82.1042ZM223.409 85.2292C223.441 85.2813 223.42 85.3334 223.368 85.3334C223.305 85.3334 223.253 85.2813 223.253 85.2292C223.253 85.1667 223.274 85.125 223.295 85.125C223.326 85.125 223.378 85.1667 223.409 85.2292ZM215.62 88C215.589 88.0313 215.495 88.0417 215.423 88.0105C215.339 87.9792 215.371 87.948 215.485 87.948C215.6 87.9375 215.662 87.9688 215.62 88Z" fill="white"/>
<path d="M181.383 55.3021C181.279 55.4063 181.185 55.5521 181.185 55.6354C181.185 55.7188 181.143 55.7917 181.102 55.7917C181.05 55.7917 181.008 55.9375 180.998 56.1146C180.998 56.2917 180.935 56.5 180.873 56.5729C180.8 56.6563 180.779 56.7604 180.8 56.8125C180.831 56.8542 180.768 57.1042 180.654 57.3542C180.539 57.6042 180.394 58.0104 180.331 58.25C180.269 58.5 180.185 58.7292 180.133 58.7604C180.081 58.7917 180.04 58.9271 180.04 59.0729C180.04 59.2083 179.998 59.3229 179.935 59.3229C179.883 59.3229 179.831 59.4479 179.831 59.6146C179.831 59.7708 179.758 60.0104 179.665 60.1354C179.571 60.2708 179.529 60.4063 179.561 60.4375C179.592 60.4792 179.55 60.5833 179.456 60.6875C179.373 60.7813 179.29 61.0104 179.29 61.1875C179.279 61.3646 179.238 61.5104 179.186 61.5104C179.134 61.5104 179.113 61.5521 179.144 61.6042C179.227 61.7292 178.811 62.8854 178.478 63.5C178.415 63.6042 178.374 63.7813 178.374 63.9063C178.374 64.0208 178.321 64.2188 178.259 64.3438C178.186 64.4688 178.124 64.6354 178.113 64.7292C178.061 65.2188 177.759 66.0729 177.645 66.0729C177.593 66.0729 177.572 66.1563 177.582 66.25C177.603 66.3542 177.551 66.5313 177.478 66.6458C177.395 66.7604 177.332 66.9792 177.332 67.1354C177.332 67.3021 177.291 67.4271 177.228 67.4271C177.176 67.4271 177.124 67.5417 177.124 67.6771C177.124 67.8125 177.082 67.9479 177.03 67.9688C176.968 67.9792 176.905 68.2188 176.874 68.4792C176.801 69.0417 176.739 69.2396 176.51 69.5938C176.426 69.7292 176.333 69.9375 176.322 70.0417C176.301 70.1458 176.218 70.375 176.135 70.5417C176.051 70.7083 175.979 70.9688 175.979 71.125C175.979 71.5313 175.749 72.2083 175.604 72.2708C175.531 72.3021 175.5 72.3854 175.531 72.4688C175.562 72.5521 175.51 72.7292 175.416 72.875C175.323 73.0208 175.27 73.1875 175.302 73.2396C175.333 73.3021 175.312 73.3438 175.26 73.3438C175.198 73.3438 175.146 73.5 175.146 73.6875C175.146 73.875 175.073 74.125 174.989 74.25C174.906 74.375 174.812 74.6458 174.771 74.875C174.739 75.0938 174.677 75.3125 174.625 75.3646C174.573 75.4167 174.562 75.5104 174.583 75.5833C174.614 75.6563 174.594 75.75 174.531 75.7917C174.469 75.8229 174.417 75.9479 174.417 76.0625C174.417 76.1771 174.365 76.2396 174.312 76.2083C174.24 76.1667 174.219 76.2396 174.25 76.4063C174.271 76.5417 174.26 76.6771 174.208 76.6979C174.156 76.7188 174.104 76.8021 174.083 76.8854C174.063 76.9688 173.99 77.1042 173.917 77.1875C173.844 77.2604 173.802 77.3958 173.833 77.4688C173.865 77.5521 173.844 77.6146 173.781 77.6146C173.719 77.6146 173.688 77.7188 173.709 77.8542C173.719 77.9792 173.656 78.1979 173.552 78.3438C173.459 78.4792 173.375 78.7083 173.375 78.8438C173.375 78.9688 173.302 79.1875 173.219 79.3229C173.136 79.4479 173.042 79.7917 173.011 80.0729C172.969 80.5521 172.855 80.8646 172.386 81.7917C172.303 81.9479 172.261 82.1458 172.292 82.2292C172.324 82.3125 172.282 82.4479 172.199 82.5313C172.115 82.625 172.011 82.9375 171.97 83.2396C171.928 83.5417 171.824 83.875 171.74 83.9688C171.657 84.0625 171.616 84.1979 171.657 84.2604C171.699 84.3229 171.647 84.4688 171.543 84.5833C171.449 84.6875 171.397 84.8125 171.428 84.8542C171.47 84.8854 171.439 84.9896 171.355 85.0833C171.178 85.2813 170.949 86.0938 171.022 86.2188C171.053 86.2708 171.012 86.3646 170.928 86.4375C170.845 86.5104 170.772 86.7292 170.772 86.9271C170.772 87.1146 170.71 87.3021 170.637 87.3333C170.564 87.3542 170.512 87.5208 170.522 87.6979C170.533 87.8646 170.47 88.0729 170.387 88.1563C170.304 88.2396 170.272 88.3542 170.303 88.4167C170.335 88.4688 170.314 88.5208 170.251 88.5208C170.189 88.5208 170.147 88.5833 170.168 88.6458C170.199 88.8333 169.918 89.5521 169.814 89.5521C169.772 89.5521 169.731 89.6667 169.731 89.8021C169.731 89.9375 169.658 90.2188 169.575 90.4271C169.491 90.625 169.429 90.8333 169.439 90.875C169.439 90.9271 169.429 91.0313 169.398 91.1146C169.366 91.1979 169.252 91.5417 169.158 91.8646C169.064 92.1979 168.939 92.5 168.877 92.5313C168.825 92.5625 168.804 92.6563 168.835 92.7292C168.856 92.8021 168.814 92.9479 168.742 93.0625C168.658 93.1667 168.585 93.3438 168.585 93.4583C168.585 93.6146 168.138 95.0313 167.888 95.6875C167.846 95.7708 167.825 95.875 167.836 95.9063C167.836 95.9375 167.732 96.3229 167.596 96.75C167.461 97.1875 166.544 100.615 166.544 100.615C166.617 100.615 168.762 96.5729 169.033 95.8125C169.106 95.6354 169.189 95.4792 169.231 95.4792C169.314 95.4792 169.835 94.4792 169.835 94.3229C169.835 94.2813 169.981 94.0417 170.147 93.8021C170.345 93.5313 170.428 93.3333 170.366 93.2708C170.231 93.1354 170.345 92.8854 170.533 92.8854C170.616 92.8854 170.647 92.8333 170.616 92.7813C170.585 92.7188 170.605 92.6771 170.668 92.6771C170.741 92.6771 170.762 92.5938 170.71 92.4375C170.678 92.3125 170.678 92.2396 170.72 92.2813C170.814 92.3646 171.293 91.7708 171.293 91.5833C171.293 91.5208 171.418 91.2917 171.574 91.0625C171.751 90.8021 171.803 90.6458 171.73 90.6146C171.657 90.5938 171.605 90.5313 171.605 90.4688C171.605 90.4063 171.678 90.3854 171.761 90.4271C171.845 90.4583 171.907 90.4479 171.907 90.4063C171.876 90.2188 171.928 90.0625 172.001 90.1146C172.042 90.1354 172.147 90.0104 172.219 89.8333C172.292 89.6458 172.417 89.375 172.501 89.2083C172.584 89.0521 172.636 88.9271 172.605 88.9271C172.574 88.9271 172.646 88.7396 172.771 88.5C172.959 88.1458 172.969 88.0521 172.844 87.9688C172.73 87.8854 172.74 87.875 172.886 87.9271C173.084 87.9896 173.136 87.8333 172.938 87.7396C172.865 87.7083 172.907 87.7083 173.042 87.7396C173.177 87.7708 173.271 87.75 173.271 87.6771C173.271 87.5521 173.792 86.3854 174.021 85.9688C174.219 85.625 174.771 84.4688 175.135 83.6667C175.323 83.2604 175.52 82.9271 175.562 82.9271C175.614 82.9271 175.656 82.8646 175.656 82.7917C175.656 82.7292 175.833 82.3125 176.051 81.8958C176.26 81.4583 176.447 81.0521 176.468 80.9688C176.489 80.8854 176.562 80.7604 176.645 80.6979C176.728 80.6354 176.77 80.5 176.728 80.3646C176.697 80.2292 176.718 80.1354 176.791 80.1354C176.853 80.1354 177.041 79.8333 177.218 79.4688C177.384 79.0938 177.572 78.7708 177.634 78.7292C177.686 78.6979 177.738 78.5729 177.738 78.4688C177.738 78.3646 177.811 78.2083 177.895 78.1146C177.978 78.0313 178.051 77.8646 178.051 77.75C178.051 77.625 178.092 77.5313 178.134 77.5313C178.228 77.5313 178.571 76.8021 178.571 76.625C178.571 76.5521 178.613 76.5 178.675 76.5C178.728 76.5 178.748 76.4375 178.717 76.3542C178.686 76.2708 178.717 76.1771 178.79 76.125C178.873 76.0729 178.894 76.0938 178.832 76.1979C178.78 76.2813 178.79 76.3021 178.832 76.2604C178.884 76.2188 178.936 76.125 178.946 76.0521C179.019 75.7083 179.269 75.1667 179.425 75.0208C179.519 74.9271 179.623 74.7083 179.665 74.5313C179.706 74.3646 179.779 74.2188 179.831 74.2188C179.883 74.2188 179.925 74.125 179.925 74.0104C179.925 73.8958 179.967 73.8021 180.029 73.8021C180.081 73.8021 180.185 73.6979 180.248 73.5729C180.362 73.3646 180.383 73.25 180.435 72.7917C180.435 72.7188 180.498 72.6875 180.55 72.7188C180.696 72.8125 180.685 72.6354 180.529 72.4792C180.383 72.3333 180.342 72.3333 182.362 72.2813C183.153 72.2604 184.184 72.2188 184.632 72.1979C185.433 72.1563 185.912 72.2604 185.642 72.4271C185.579 72.4792 185.506 72.6042 185.486 72.7188C185.475 72.8333 185.433 72.9479 185.402 72.9792C185.256 73.125 184.882 73.9167 184.882 74.0833C184.882 74.1875 184.788 74.3542 184.673 74.4583C184.559 74.5521 184.465 74.7083 184.465 74.7917C184.465 74.875 184.423 74.9479 184.371 74.9479C184.298 74.9479 184.153 75.4375 184.163 75.6354C184.163 75.6667 184.08 75.7708 183.965 75.8646C183.778 76.0313 183.642 76.3021 183.622 76.5625C183.622 76.6146 183.549 76.7396 183.476 76.8229C183.393 76.9063 183.309 77.1146 183.278 77.2708L183.226 77.5625L186.85 77.6667L190.661 77.6354L190.911 77.1667C191.15 76.7083 191.192 76.5521 191.223 76.0417C191.223 75.9063 191.275 75.8229 191.327 75.8646C191.379 75.8958 191.463 75.8646 191.515 75.7917C191.65 75.5625 192.067 74.5208 192.067 74.375C192.067 74.3125 192.119 74.25 192.171 74.25C192.233 74.25 192.275 74.1667 192.275 74.0625C192.275 73.9688 192.348 73.75 192.431 73.5833C192.514 73.4271 192.587 73.2292 192.587 73.1563C192.587 73.0833 192.66 72.9896 192.754 72.9583C192.847 72.9271 192.9 72.8229 192.868 72.75C192.837 72.6667 192.879 72.5417 192.952 72.4792C193.035 72.4063 193.077 72.3125 193.045 72.25C193.014 72.1979 193.045 72.0938 193.108 72.0104C193.17 71.9271 193.202 71.8125 193.17 71.7604C193.129 71.7083 193.16 71.625 193.222 71.5833C193.306 71.5417 193.316 71.5521 193.274 71.625C193.233 71.6979 193.243 71.75 193.295 71.75C193.337 71.75 193.441 71.5208 193.514 71.2292C193.587 70.9479 193.764 70.5417 193.899 70.3438C194.035 70.1458 194.107 69.9792 194.066 69.9792C194.024 69.9792 194.045 69.9375 194.097 69.8958C194.201 69.8229 194.378 69.4792 194.732 68.6771C194.836 68.4479 194.94 68.2396 194.982 68.2083C195.013 68.1771 195.222 67.7813 195.44 67.3229C195.669 66.8646 195.93 66.375 196.023 66.2292C196.117 66.0833 196.242 65.7813 196.325 65.5521C196.513 64.9583 196.669 64.6458 196.94 64.3542C197.065 64.2083 197.169 64.0208 197.169 63.9271C197.169 63.8333 197.263 63.6354 197.377 63.4896C197.585 63.2292 197.658 62.8021 197.512 62.7813C197.46 62.7813 197.335 62.7604 197.221 62.7292C197.106 62.7083 196.596 62.6875 196.075 62.6979C195.565 62.6979 194.461 62.7083 193.743 62.7083C193.024 62.7083 192.577 62.75 192.483 62.8021C192.358 62.8646 192.296 62.8646 192.296 62.7917C192.296 62.7292 191.962 62.6875 191.452 62.6875C190.973 62.6875 190.661 62.7292 190.723 62.7708C190.817 62.8333 190.786 62.8958 190.609 62.9896C190.473 63.0625 190.286 63.3438 190.171 63.625C190.057 63.9063 189.911 64.1667 189.838 64.1875C189.765 64.2188 189.703 64.3125 189.703 64.4063C189.703 64.4896 189.661 64.6458 189.599 64.75C189.432 65.0521 189.078 65.8854 189.078 65.9896C189.078 66.0417 188.984 66.1146 188.859 66.1458C188.734 66.1771 188.661 66.25 188.693 66.3021C188.724 66.3438 188.693 66.5938 188.609 66.8542C188.537 67.1042 188.464 67.2604 188.453 67.2083C188.453 67.1458 188.38 67.1875 188.307 67.2813C188.235 67.3854 188.058 67.4688 187.922 67.4688C187.787 67.4688 187.297 67.4688 186.85 67.4583C186.391 67.4479 185.631 67.4479 185.142 67.4479C184.361 67.4583 183.965 67.4375 183.34 67.3854C183.153 67.3646 183.153 67.3542 183.33 67.1563C183.434 67.0417 183.486 66.9479 183.445 66.9479C183.403 66.9479 183.445 66.8438 183.528 66.7188C183.622 66.5938 183.695 66.4063 183.695 66.3021C183.695 66.1979 183.788 66.0208 183.903 65.9063C184.017 65.7917 184.111 65.6563 184.111 65.6042C184.111 65.5521 184.184 65.4583 184.267 65.3854C184.361 65.3125 184.413 65.1875 184.382 65.1042C184.351 65.0313 184.371 64.9688 184.434 64.9688C184.496 64.9688 184.507 64.9167 184.475 64.8646C184.444 64.8021 184.465 64.7604 184.517 64.7604C184.58 64.7604 184.621 64.7292 184.611 64.6771C184.59 64.5833 185.069 63.5938 185.184 63.5104C185.277 63.4375 187.329 59.4063 187.329 59.2813C187.329 59.2396 187.568 58.8021 187.849 58.3125C188.141 57.8125 188.37 57.3854 188.37 57.3438C188.37 57.3021 188.557 56.8854 188.786 56.4167C189.016 55.9375 189.182 55.5208 189.151 55.4792C189.068 55.3438 188.412 55.3125 187.881 55.4271C187.683 55.4688 187.412 55.4375 187.225 55.3646C186.964 55.25 186.86 55.2604 186.641 55.375C186.423 55.4896 186.36 55.4896 186.319 55.3854C186.287 55.2813 186.246 55.2813 186.142 55.3646C186.037 55.4479 185.933 55.4479 185.808 55.375C185.694 55.3229 185.558 55.3125 185.486 55.3542C185.413 55.3958 184.215 55.4063 183.84 55.3958C181.987 55.0938 181.581 55.1042 181.383 55.3021ZM181.237 58.1354C181.268 58.1875 181.247 58.2604 181.185 58.3021C181.133 58.3333 181.081 58.2917 181.081 58.2083C181.081 58.0208 181.143 57.9896 181.237 58.1354ZM194.357 64.9167C194.389 64.9792 194.347 64.9896 194.264 64.9583C194.17 64.9271 194.097 64.9479 194.097 65.0104C194.097 65.0729 194.045 65.125 193.982 65.125C193.899 65.125 193.899 65.0729 193.993 64.9688C194.139 64.7917 194.264 64.7708 194.357 64.9167ZM196.075 64.8542C196.075 64.875 196.003 64.9167 195.919 64.9583C195.836 64.9896 195.763 64.9688 195.763 64.9167C195.763 64.8542 195.836 64.8125 195.919 64.8125C196.003 64.8125 196.075 64.8333 196.075 64.8542Z" fill="white"/>
<path d="M205.343 58.0937C205.322 58.1146 204.583 58.1354 203.719 58.1458L202.115 58.1666L201.709 59.0521C201.49 59.5416 201.303 60.0104 201.303 60.0937C201.303 60.1666 201.095 60.6979 200.834 61.25C200.314 62.3646 200.272 62.5416 200.553 62.5521C201.022 62.5833 202.271 62.5416 202.833 62.4687C203.177 62.4271 203.521 62.4166 203.573 62.4375C203.948 62.5729 204.791 62.5937 205.968 62.5104C206.551 62.4791 206.884 62.4896 206.884 62.5521C206.884 62.6146 206.936 62.625 207.009 62.5833C207.197 62.4687 209.394 62.4791 209.456 62.5937C209.487 62.6562 209.529 62.6562 209.56 62.5833C209.591 62.5208 209.789 62.4896 210.008 62.5104C210.622 62.5625 210.883 62.5625 211.445 62.5104C211.737 62.4896 212.08 62.5104 212.216 62.5521C212.34 62.6041 212.445 62.6041 212.445 62.5625C212.445 62.4791 213.163 62.4896 213.455 62.5833C213.569 62.6146 213.83 62.5937 214.059 62.5521C214.267 62.5 214.444 62.4896 214.444 62.5312C214.444 62.5729 214.517 62.6146 214.6 62.6146C214.683 62.6146 214.756 62.5729 214.756 62.5312C214.756 62.4791 214.871 62.4896 215.017 62.5416C215.152 62.5937 215.298 62.5937 215.319 62.5521C215.371 62.4687 216.547 62.5104 216.631 62.6041C216.651 62.625 216.735 62.5937 216.818 62.5312C216.891 62.4687 216.953 62.4479 216.953 62.4896C216.953 62.5312 217.026 62.5104 217.11 62.4375C217.203 62.3646 217.266 62.3541 217.266 62.4166C217.266 62.4687 217.37 62.5208 217.505 62.5208C217.63 62.5208 218.141 62.5208 218.63 62.5208C219.952 62.5312 220.66 62.4896 220.817 62.4062C220.89 62.3541 220.942 62.375 220.942 62.4479C220.942 62.5312 220.983 62.5312 221.098 62.4375C221.202 62.3437 221.254 62.3437 221.254 62.4271C221.254 62.4896 221.316 62.5416 221.389 62.5416C221.452 62.5312 221.764 62.0104 222.087 61.3541C222.389 60.6979 222.837 59.8229 223.055 59.375C223.42 58.6562 223.493 58.2604 223.264 58.2187C222.878 58.1458 221.462 58.1771 221.462 58.2604C221.462 58.3125 221.389 58.3021 221.306 58.2291C221.223 58.1562 221.077 58.125 220.994 58.1666C220.91 58.1979 220.837 58.1875 220.837 58.1458C220.837 58.0729 217.412 58.0729 216.839 58.1458C216.693 58.1666 216.516 58.2291 216.433 58.2708C216.339 58.3333 216.308 58.3229 216.36 58.25C216.443 58.1146 215.995 58.0312 215.235 58.0416C214.85 58.0521 214.746 58.0833 214.788 58.1979C214.829 58.3125 214.798 58.3125 214.642 58.2291C214.475 58.1354 213.684 58.0833 213.069 58.125C212.986 58.125 211.216 58.1146 209.144 58.1041C207.072 58.0833 205.364 58.0833 205.343 58.0937Z" fill="white"/>
<path d="M145.115 58.7917C145.021 59.0105 144.948 59.2709 144.948 59.3646C144.948 59.4688 144.906 59.573 144.854 59.5938C144.802 59.6042 144.74 59.698 144.719 59.7813C144.698 59.8646 144.667 59.9584 144.636 59.9896C144.604 60.0209 144.417 60.3959 144.229 60.823C144.042 61.25 143.813 61.7396 143.74 61.9063C143.657 62.073 143.594 62.25 143.594 62.3021C143.594 62.3646 143.459 62.6875 143.292 63.0417C142.709 64.2917 142.428 64.9167 142.116 65.6563C141.949 66.0625 141.689 66.6771 141.543 67.0209C141.397 67.3646 141.241 67.7605 141.189 67.8959C141.116 68.0834 141.064 68.1146 140.949 68.0209C140.824 67.9063 138.669 64.9688 138.44 64.5938C138.388 64.5 138.221 64.2709 138.075 64.0938C137.93 63.9063 137.628 63.4896 137.399 63.1667C137.169 62.8438 136.857 62.4375 136.711 62.2813L136.441 62L134.129 62.0209C131.994 62.0313 131.817 62.0521 131.671 62.2396C131.588 62.3438 131.515 62.5209 131.515 62.6146C131.515 62.7188 131.474 62.8021 131.422 62.8021C131.328 62.8021 131.172 63.198 131.192 63.3646C131.203 63.4167 131.172 63.4896 131.12 63.5209C131.078 63.5521 130.922 63.8125 130.797 64.1042C130.661 64.3855 130.422 64.9063 130.266 65.25C130.11 65.5938 129.828 66.25 129.641 66.7084C129.454 67.1667 129.245 67.6146 129.183 67.698C129.11 67.7813 128.995 68.0209 128.912 68.2188C128.839 68.4167 128.714 68.7396 128.631 68.9167C128.558 69.1042 128.423 69.448 128.329 69.6875C128.246 69.9271 128.141 70.1771 128.089 70.2396C128.037 70.3021 127.892 70.6355 127.756 70.9792C127.631 71.323 127.465 71.6771 127.392 71.7709C127.308 71.8542 127.246 71.9896 127.246 72.0625C127.246 72.1355 127.048 72.6042 126.819 73.1042C126.58 73.5938 126.226 74.3959 126.028 74.8855C125.83 75.375 125.622 75.823 125.569 75.8855C125.517 75.948 125.34 76.375 125.174 76.823C125.007 77.2709 124.778 77.8334 124.664 78.0625C124.549 78.2917 124.487 78.5105 124.518 78.5521C124.559 78.5834 125.226 78.8334 125.996 79.1042C126.767 79.375 127.59 79.6875 127.819 79.8125C128.048 79.9271 128.246 80.0105 128.256 80.0105C128.277 80 128.443 80.0625 128.652 80.1563C128.85 80.2396 129.12 80.3125 129.245 80.3334C129.381 80.3438 129.506 80.3855 129.537 80.4271C129.568 80.4584 129.683 80.5105 129.797 80.5313C129.943 80.5521 130.005 80.5105 129.995 80.375C129.985 80.2813 130.005 80.198 130.047 80.198C130.078 80.198 130.172 80.0417 130.255 79.8542C130.38 79.5625 130.62 79.0313 131.047 78.0625C131.12 77.8855 131.307 77.4792 131.453 77.1459C131.599 76.8125 131.724 76.5 131.724 76.448C131.724 76.3855 131.765 76.3438 131.828 76.3438C131.88 76.3438 131.901 76.2709 131.869 76.1875C131.828 76.1042 131.848 76.0313 131.89 76.0313C131.942 76.0313 132.036 75.8542 132.109 75.6355C132.171 75.4271 132.39 74.8959 132.598 74.4688C132.796 74.0417 132.963 73.6563 132.963 73.6042C132.963 73.5625 133.108 73.2605 133.275 72.9271C133.442 72.6042 133.639 72.1355 133.712 71.8855C133.785 71.6459 133.879 71.448 133.931 71.448C133.973 71.448 134.014 71.3855 134.014 71.3125C134.014 71.25 134.15 70.8959 134.316 70.5313C134.65 69.7813 134.566 69.7396 135.472 71.0834C135.962 71.8021 138.023 74.7396 138.252 75.0417C138.606 75.5105 139.013 76.1355 139.013 76.2188C139.013 76.3334 142.282 76.3438 142.386 76.2292C142.428 76.198 142.647 76.198 142.897 76.2292C143.282 76.2917 143.386 76.3021 143.615 76.2605C143.75 76.2292 143.896 76.2396 144.042 76.2396C144.261 76.25 144.271 76 144.344 75.8125C144.396 75.6459 144.49 75.5105 144.531 75.5105C144.573 75.5105 144.833 75.0521 145.104 74.4896C145.375 73.9375 145.812 73.0313 146.073 72.4896C146.343 71.948 146.562 71.4792 146.562 71.448C146.562 71.3855 146.895 70.6355 147.041 70.3646C147.103 70.2605 147.239 70.0105 147.353 69.8125C147.457 69.625 147.551 69.3959 147.551 69.323C147.551 69.2396 147.593 69.1563 147.634 69.1355C147.728 69.1042 148.103 68.323 149.321 65.6667C149.509 65.2605 150.05 64.1355 150.519 63.1667C150.998 62.1875 151.529 61.0417 151.716 60.6146C151.904 60.1875 152.175 59.5938 152.31 59.2917C152.601 58.6459 152.601 58.5417 152.372 58.5521C152.268 58.5521 150.633 58.5209 148.728 58.4792L145.271 58.3959L145.115 58.7917ZM138.742 73.3125C138.846 73.573 138.731 73.6146 138.596 73.3646C138.534 73.2396 138.523 73.1459 138.586 73.1459C138.638 73.1459 138.711 73.2188 138.742 73.3125ZM140.835 74.6042C140.866 74.6563 140.856 74.7084 140.793 74.7084C140.741 74.7084 140.658 74.6563 140.627 74.6042C140.595 74.5417 140.606 74.5 140.668 74.5C140.72 74.5 140.804 74.5417 140.835 74.6042ZM139.533 75.125C139.533 75.1771 139.512 75.2292 139.492 75.2292C139.46 75.2292 139.408 75.1771 139.377 75.125C139.346 75.0625 139.367 75.0209 139.419 75.0209C139.481 75.0209 139.533 75.0625 139.533 75.125ZM126.517 78.9167C126.517 78.9375 126.444 78.9896 126.35 79.0209C126.267 79.0521 126.225 79.0417 126.257 78.9792C126.319 78.875 126.517 78.8334 126.517 78.9167Z" fill="white"/>
<path d="M156.298 60.6146C156.173 60.875 156.079 61.1146 156.079 61.1459C156.079 61.1771 156.027 61.2709 155.944 61.3542C155.819 61.5 154.122 64.4063 154.122 64.5209C154.122 64.5834 152.935 67.073 151.31 70.4584C150.134 72.9063 149.248 74.7709 149.186 74.9688C149.113 75.2084 148.582 75.073 154.455 76.2709C157.1 76.8125 161.338 77.6771 163.858 78.198C166.378 78.7188 168.544 79.1459 168.658 79.1459C168.835 79.1459 168.991 78.9271 169.397 78.0938C169.689 77.5105 169.918 76.9896 169.918 76.9375C169.918 76.875 171.001 74.6563 172.313 72C174.208 68.2084 174.698 67.1459 174.583 67.073C174.5 67.0209 173.219 66.9792 171.74 66.9792C170.251 66.9688 167.773 66.948 166.222 66.9271C164.67 66.9063 163.254 66.9271 163.066 66.9688C162.775 67.0209 162.671 67.1355 162.452 67.5626C162.306 67.8438 162.119 68.2605 162.035 68.4896C161.963 68.7084 162.16 68.3021 161.983 68.5834C161.588 69.2188 161.369 69.698 161.452 69.7709C161.484 69.8021 162.858 69.8334 164.493 69.8334L167.492 69.8438L166.586 71.6146C165.972 72.8021 165.701 73.2396 165.628 73.1667C165.597 73.1355 165.461 73.0938 165.326 73.0834C165.191 73.0625 164.993 73.0105 164.899 72.9688C164.795 72.9271 164.524 72.8855 164.295 72.8855C164.066 72.875 163.879 72.8334 163.879 72.7917C163.879 72.7605 163.681 72.698 163.441 72.6563C163.191 72.625 162.848 72.5417 162.671 72.4896C162.494 72.4375 162.213 72.3646 162.046 72.3438C161.879 72.323 161.557 72.25 161.327 72.1771C161.098 72.1146 160.776 72.0521 160.599 72.0313C160.432 72.0105 160.151 71.9688 159.974 71.9375C159.807 71.9063 159.464 71.8542 159.224 71.8334C158.985 71.8125 158.703 71.7396 158.578 71.6771C158.464 71.6146 158.256 71.5625 158.11 71.5625C157.964 71.5625 157.829 71.5209 157.797 71.4688C157.756 71.4167 157.6 71.3959 157.423 71.4167L157.121 71.4688L157.339 70.9688C157.454 70.698 157.589 70.4167 157.631 70.3646C157.797 70.1563 158.464 68.8542 158.412 68.8542C158.381 68.8542 158.453 68.7605 158.568 68.6459C158.683 68.5313 158.776 68.3646 158.776 68.2813C158.776 68.1875 158.88 67.948 159.016 67.7292C159.141 67.5209 159.318 67.198 159.401 67.0313C159.484 66.8542 159.578 66.698 159.609 66.6667C159.641 66.6355 159.786 66.3438 159.943 66.0105C160.13 65.6355 160.297 65.4167 160.411 65.4063C160.567 65.3959 162.004 65.3334 162.629 65.3125C162.952 65.3021 165.107 65.3021 166.523 65.323C168.033 65.3438 168.252 65.3438 168.606 65.323C168.866 65.3021 172.271 65.2813 172.938 65.2917L173.417 65.3021L175.479 62.3334C176.197 61.2188 176.77 60.2709 176.728 60.2396C176.603 60.1042 169.804 60.1146 169.804 60.25C169.804 60.323 169.772 60.323 169.72 60.2396C169.595 60.0417 164.962 60.1042 165.003 60.3021C165.034 60.4271 165.003 60.4271 164.889 60.323C164.805 60.2605 164.691 60.2084 164.649 60.2188C164.597 60.2292 164.514 60.2188 164.451 60.2084C164.129 60.1146 159.62 60.1563 159.62 60.25C159.62 60.3125 159.568 60.3021 159.495 60.2292C159.339 60.073 159.162 60.0625 159.266 60.2188C159.307 60.3021 159.276 60.3021 159.141 60.2292C159.026 60.1667 158.391 60.125 157.725 60.125L156.506 60.1355L156.298 60.6146Z" fill="white"/>
<path d="M90.9776 61.5416C90.9464 61.5729 88.9263 61.6041 86.4897 61.6145C84.053 61.625 82.0538 61.677 82.0538 61.7187C82.0538 61.7708 82.0017 61.7708 81.9496 61.7395C81.7726 61.6354 79.4193 61.6041 79.159 61.6979C79.0028 61.7604 78.8362 61.75 78.7008 61.677C78.5134 61.5833 78.4925 61.5833 78.5446 61.7187C78.5758 61.8125 78.5654 61.8958 78.5134 61.9166C78.4717 61.9375 77.9615 63.1145 77.5241 64.0312C76.0143 67.1458 75.5665 68.0937 75.5457 68.1458C75.4728 68.4375 75.3582 68.6666 75.2749 68.6666C75.2229 68.6666 75.1812 68.75 75.1812 68.8645C75.1812 68.9687 75.0979 69.1666 74.9834 69.302C74.8792 69.4375 74.7855 69.5937 74.7751 69.6562C74.7647 69.7083 74.6606 69.9687 74.546 70.2187C74.4419 70.4687 74.3482 70.7291 74.3482 70.8125C74.3482 70.8854 74.3065 70.9687 74.2545 71C74.2024 71.0312 73.9941 71.4687 73.7755 71.9687C72.9112 73.9895 72.2552 75.5 72.1615 75.6666C71.9845 75.9791 72.0469 76.0416 72.5051 76.0104C72.7446 75.9895 74.4627 75.9375 75.806 75.9062C78.0864 75.8437 78.2634 75.8229 78.4405 75.625C78.5342 75.5104 78.6175 75.3437 78.6175 75.2604C78.6175 75.177 78.7945 74.6666 79.0028 74.125C79.3047 73.375 79.4401 73.1458 79.5859 73.1458C79.8254 73.1458 82.6889 74.1666 82.8243 74.302C82.8868 74.3541 83.0117 74.3958 83.1159 74.3958C83.22 74.3958 83.4491 74.4895 83.6365 74.6041C83.824 74.7187 84.053 74.8125 84.1467 74.8125C84.2405 74.8125 84.4383 74.9062 84.5945 75.0312C84.7403 75.1458 84.9798 75.2604 85.1152 75.2708C85.2609 75.2812 85.438 75.3437 85.5108 75.4062C85.5837 75.4687 85.7191 75.5104 85.8024 75.5104C85.8857 75.5104 86.2814 75.6666 86.6771 75.8437C87.0832 76.0312 87.9891 76.4166 88.7076 76.7083C89.4365 77 90.0717 77.2708 90.1238 77.3125C90.1862 77.3437 90.3945 77.4479 90.5924 77.5208C90.936 77.6458 91.7586 78.0104 92.7374 78.4687C92.9665 78.5729 93.1956 78.6666 93.2372 78.6666C93.2893 78.6666 93.4976 78.7708 93.7058 78.8958C93.9037 79.0208 94.1432 79.1354 94.216 79.1458C94.2994 79.1666 94.6117 79.2916 94.9241 79.4375C95.2365 79.5833 95.5281 79.7083 95.5593 79.7083C95.601 79.7083 95.8196 79.802 96.0487 79.9062C97.2358 80.4687 98.0688 80.8333 98.2979 80.9062C98.4437 80.9479 98.7248 81.0937 98.9227 81.2083C99.8182 81.7604 99.787 81.7604 100.787 81.0729C101.276 80.7291 102.067 80.1875 102.546 79.8645C103.015 79.5416 103.4 79.2395 103.4 79.177C103.4 79.1145 103.452 79.1041 103.504 79.1354C103.567 79.1666 103.609 79.1458 103.609 79.0937C103.609 79.0312 103.671 78.9791 103.754 78.9791C103.827 78.9791 103.952 78.9062 104.035 78.8125C104.108 78.7291 104.4 78.5312 104.681 78.3958C105.358 78.052 105.306 77.9062 104.389 77.625C104.16 77.552 103.681 77.3645 103.327 77.1979C102.973 77.0312 102.63 76.8958 102.567 76.8958C102.505 76.8958 102.38 76.8541 102.276 76.802C102.057 76.677 101.63 76.5 100.433 76.0104C99.9223 75.7916 99.2559 75.5104 98.9643 75.375C98.6728 75.2395 98.402 75.125 98.35 75.125C98.3083 75.125 97.9855 74.9895 97.6315 74.8229C96.913 74.4791 96.5277 74.3229 95.6426 73.9791C95.299 73.8437 94.997 73.7083 94.9658 73.677C94.8512 73.5416 94.1223 73.3437 94.0182 73.4166C93.9453 73.4583 93.9245 73.4479 93.9557 73.3854C94.0599 73.2187 93.7162 73.125 93.5496 73.2604C93.4351 73.3541 93.4143 73.3541 93.4559 73.2291C93.4976 73.1354 93.4247 73.0416 93.2789 72.9687C92.7582 72.7187 91.9564 72.4166 91.8211 72.4166C91.7482 72.4166 91.4774 72.3125 91.2171 72.1875C90.5299 71.8645 90.3424 71.7812 90.1446 71.75C89.6656 71.6875 90.0613 71.427 92.3625 70.3541C94.1952 69.4895 94.4139 69.3958 94.5389 69.3958C94.6013 69.3958 94.6534 69.3437 94.6534 69.2812C94.6534 69.2187 94.7159 69.1875 94.7888 69.2187C94.8512 69.25 95.2886 69.0833 95.7467 68.8541C96.2049 68.625 96.7152 68.375 96.8713 68.2916C97.038 68.2083 97.2358 68.1458 97.3191 68.1458C97.4024 68.1458 97.4649 68.1041 97.4649 68.052C97.4649 68.0104 97.6315 67.9375 97.8293 67.9062C98.0272 67.875 98.3292 67.7604 98.4853 67.6458C98.6415 67.5416 99.131 67.2916 99.5787 67.1041C100.026 66.9062 100.443 66.6875 100.505 66.6145C100.578 66.5208 100.443 65.9583 99.964 64.5C99.5995 63.4062 99.3704 62.0729 99.3184 62.0416C99.2767 62.0104 99.2559 61.9479 99.2767 61.9062C99.308 61.8645 99.2767 61.8229 99.2038 61.8125C99.131 61.802 98.7977 61.75 98.4541 61.6979C98.1105 61.6562 96.3403 61.6145 94.5284 61.6041C92.7166 61.6041 91.1859 61.5729 91.1338 61.5416C91.0818 61.5104 91.0089 61.5104 90.9776 61.5416ZM89.1241 66.0729C88.9888 66.177 88.7909 66.2708 88.6868 66.2708C88.5931 66.2708 88.4265 66.3125 88.3223 66.375C87.9995 66.5625 87.0311 66.9062 86.9791 66.8541C86.9478 66.8229 86.6875 66.927 86.3855 67.0833C86.094 67.2395 85.7399 67.375 85.5941 67.3958C85.4484 67.4166 85.2609 67.5 85.1672 67.5833C85.0839 67.6666 84.8861 67.7291 84.7507 67.7291C84.6049 67.7291 84.4071 67.7916 84.2925 67.8645C84.178 67.9375 83.6886 68.1354 83.1992 68.2916C82.7098 68.4479 82.2412 68.6041 82.1579 68.6354C82.0746 68.677 81.9704 68.7083 81.9288 68.7083C81.8976 68.7187 81.8247 68.75 81.783 68.7916C81.7414 68.8437 81.6268 68.875 81.5227 68.875C81.3561 68.875 81.3665 68.7812 81.6789 68.0625C81.8663 67.625 82.1683 66.9791 82.3453 66.625C82.6577 66 82.6785 65.9895 83.1679 65.9375C83.4387 65.9062 84.8028 65.8854 86.1877 65.8958C87.583 65.9062 88.7701 65.8854 88.8326 65.8437C88.895 65.8125 89.0408 65.802 89.1554 65.8333C89.3636 65.8854 89.3636 65.8958 89.1241 66.0729ZM89.6552 65.7916C89.6552 65.8229 89.6135 65.875 89.5511 65.9062C89.499 65.9375 89.4469 65.9166 89.4469 65.8645C89.4469 65.802 89.499 65.75 89.5511 65.75C89.6135 65.75 89.6552 65.7708 89.6552 65.7916ZM77.3679 74.177C77.3679 74.2291 77.295 74.302 77.2013 74.3333C77.0555 74.3854 77.0451 74.375 77.1597 74.2395C77.3055 74.0625 77.3679 74.0416 77.3679 74.177ZM98.9643 77.4062C99.006 77.4583 98.9331 77.4791 98.8186 77.4479C98.5791 77.3854 98.5478 77.3125 98.7561 77.3125C98.8394 77.3125 98.9331 77.3541 98.9643 77.4062ZM99.0789 78.3541C99.1101 78.4062 99.0893 78.4583 99.0372 78.4583C98.9748 78.4583 98.9227 78.4062 98.9227 78.3541C98.9227 78.2916 98.9435 78.25 98.9643 78.25C98.9956 78.25 99.0476 78.2916 99.0789 78.3541ZM101.63 79.7708C101.63 79.9166 101.588 80.0104 101.536 79.9791C101.463 79.927 101.453 79.7395 101.516 79.5208C101.557 79.3958 101.63 79.552 101.63 79.7708Z" fill="white"/>
<path d="M105.722 61.8751C105.587 61.8959 105.483 61.9688 105.483 62.0313C105.483 62.1042 105.368 62.3855 105.223 62.6771C105.077 62.9584 104.879 63.3542 104.91 63.4376C104.931 63.5105 104.921 63.5417 104.858 63.5105C104.806 63.4792 104.733 63.6146 104.692 63.823C104.66 64.0209 104.587 64.2188 104.535 64.2501C104.483 64.2813 104.462 64.3542 104.494 64.4063C104.535 64.4584 104.515 64.5001 104.462 64.5001C104.421 64.5001 104.265 64.7709 104.14 65.0938C104.004 65.4271 103.838 65.8438 103.754 66.0313C103.671 66.2084 103.609 66.4167 103.609 66.5001C103.609 66.5834 103.567 66.6876 103.525 66.7501C103.484 66.8021 103.296 67.198 103.119 67.6251C102.932 68.0521 102.588 68.8751 102.349 69.448C102.12 70.0105 101.828 70.6459 101.724 70.8438C101.609 71.0521 101.526 71.2917 101.526 71.3855C101.526 71.4792 101.464 71.6876 101.38 71.8542C101.068 72.4896 101.068 72.698 101.391 73.0001C101.651 73.2396 102.005 73.4376 102.307 73.5001C102.411 73.5209 102.807 73.7396 103.765 74.2813C104.056 74.448 104.327 74.5521 104.379 74.5209C104.431 74.4896 104.442 74.5209 104.4 74.5834C104.358 74.6563 104.379 74.7188 104.431 74.7188C104.65 74.7501 104.702 74.7709 105.066 75.0001C105.264 75.1251 105.535 75.2605 105.67 75.2917C105.795 75.3334 105.899 75.3959 105.899 75.448C105.899 75.5001 105.931 75.5313 105.983 75.5313C106.222 75.4896 106.42 75.5626 106.42 75.6876C106.42 75.7709 106.524 75.8751 106.66 75.9167C106.785 75.9584 107.139 76.0938 107.441 76.2292C107.743 76.3646 108.003 76.4584 108.024 76.448C108.055 76.4376 108.19 76.5417 108.336 76.6771C108.482 76.823 108.607 76.8855 108.607 76.8334C108.607 76.7813 108.648 76.8021 108.701 76.8751C108.742 76.948 108.846 77.0209 108.93 77.0313C109.013 77.0521 109.127 77.0834 109.18 77.1251C109.867 77.5313 110.669 77.9167 110.731 77.8646C110.762 77.8334 110.794 77.8542 110.794 77.9271C110.794 78.0001 110.846 78.0209 110.898 77.9896C110.96 77.9584 111.002 77.9792 111.002 78.0313C111.002 78.2292 111.2 78.1667 112.918 77.4271C114.678 76.6771 116.292 76.073 119.592 74.948C122.331 74.0105 122.466 73.948 122.695 73.4688C122.789 73.2501 122.873 73.0521 122.873 73.0105C122.873 72.9792 122.925 72.823 122.997 72.6563C123.06 72.5001 123.122 72.3021 123.143 72.2188C123.154 72.1355 123.227 72.0417 123.289 72.0001C123.362 71.9584 123.404 71.8959 123.404 71.8542C123.372 71.6251 123.424 71.4688 123.643 71.1355C123.778 70.9376 124.06 70.3334 124.268 69.7917C124.934 68.0938 125.455 66.9167 125.663 66.7084C125.736 66.6251 125.757 66.5209 125.726 66.4584C125.663 66.3646 125.851 65.8855 126.007 65.7501C126.059 65.698 126.34 65.0417 126.371 64.9167C126.371 64.8855 126.527 64.5417 126.704 64.1563C126.892 63.7605 127.142 63.2709 127.142 63.198C127.142 63.1146 127.183 63.0313 127.236 63.0001C127.413 62.8855 127.662 62.0105 127.537 61.9376C127.423 61.8646 106.181 61.8126 105.722 61.8751ZM112.512 66.9167C113.147 66.8959 113.897 66.8959 114.178 66.9063C114.802 66.9167 114.688 66.9167 116.364 66.9063C118.926 66.9063 119.332 66.9167 119.332 66.9792C119.332 67.0521 118.447 68.9896 118.124 69.8334L117.937 70.323L116.729 70.7605C116.073 70.9896 115.386 71.2501 115.198 71.3334C115.021 71.4167 114.823 71.4792 114.75 71.4792C114.678 71.4792 114.49 71.5521 114.323 71.6355C114.157 71.7188 113.886 71.8646 113.72 71.948C113.563 72.0313 113.397 72.073 113.365 72.0417C113.334 72.0105 113.199 72.0521 113.064 72.1459C112.626 72.4584 112.147 72.3646 111.231 71.7605C110.773 71.4688 110.148 71.073 109.846 70.9063C108.024 69.8855 108.523 69.3438 108.805 68.7813C108.93 68.5521 108.992 68.3542 108.95 68.3542C108.898 68.3542 108.919 68.3126 108.982 68.2709C109.044 68.2292 109.18 67.948 109.284 67.6459C109.481 67.0209 109.586 66.9584 110.346 66.948C110.648 66.948 110.898 66.9167 110.898 66.8751C110.898 66.8334 111.002 66.8334 111.137 66.8646C111.262 66.9063 111.887 66.9271 112.512 66.9167ZM115.948 75.4376C115.979 75.5001 115.937 75.5105 115.854 75.4792C115.667 75.4063 115.636 75.3334 115.781 75.3334C115.844 75.3334 115.917 75.3751 115.948 75.4376Z" fill="white"/>
<path d="M207.425 65.1146C207.425 65.1875 206.874 65.2188 205.801 65.1979C204.916 65.1875 204.156 65.2084 204.135 65.25C204.104 65.3021 204 65.2917 203.906 65.25C203.76 65.1771 202.469 65.1667 200.574 65.2188C200.355 65.2292 200.209 65.2917 200.168 65.4063C200.136 65.5104 200.043 65.6667 199.97 65.75C199.897 65.8334 199.689 66.3021 199.512 66.7917C199.335 67.2813 199.126 67.7709 199.053 67.8854C198.981 68 198.814 68.375 198.679 68.7188C198.543 69.0625 198.377 69.4375 198.293 69.5521C198.22 69.6667 198.158 69.8334 198.158 69.9375C198.158 70.0313 198.095 70.1771 198.023 70.25C197.898 70.375 197.689 70.7396 197.137 71.8438C197.023 72.0729 196.846 72.5417 196.752 72.8854C196.648 73.2292 196.523 73.5625 196.471 73.6354C196.419 73.7084 196.304 73.9688 196.232 74.2188L196.096 74.6667L196.586 74.9688C196.846 75.1354 197.085 75.3125 197.117 75.3542C197.148 75.3959 197.294 75.4479 197.429 75.4688C197.564 75.4896 197.7 75.5625 197.721 75.625C197.741 75.6979 197.825 75.75 197.908 75.75C197.991 75.75 198.054 75.7917 198.054 75.8542C198.054 75.9063 198.116 75.9584 198.2 75.9584C198.273 75.9584 198.397 76.0313 198.47 76.1146C198.543 76.1979 199.001 76.2709 199.106 76.2709C199.22 76.2709 199.293 76.3334 199.272 76.3959C199.262 76.4688 199.335 76.5209 199.439 76.5C199.543 76.4792 199.616 76.5313 199.616 76.6354C199.616 76.7188 199.689 76.7917 199.772 76.7917C199.855 76.7917 199.928 76.8334 199.928 76.8854C199.928 76.9375 200.043 77.0104 200.188 77.0417C200.334 77.0834 200.553 77.2292 200.678 77.3646C200.803 77.5104 200.949 77.625 200.99 77.625C201.042 77.625 201.251 77.75 201.438 77.8958C201.646 78.0521 201.844 78.1354 201.917 78.0834C201.99 78.0417 202.011 78.0521 201.979 78.1146C201.938 78.1771 202.052 78.2813 202.219 78.3542C202.396 78.4271 202.531 78.5208 202.531 78.5729C202.531 78.625 202.604 78.6667 202.688 78.6667C202.771 78.6667 202.844 78.7084 202.844 78.7709C202.844 78.8229 202.917 78.875 203 78.875C203.083 78.875 203.156 78.9167 203.156 78.9792C203.156 79.0313 203.229 79.0834 203.312 79.0834C203.396 79.0834 203.614 79.2396 203.802 79.4375C203.989 79.625 204.25 79.8229 204.385 79.8542C204.51 79.8959 204.614 79.9792 204.614 80.0313C204.614 80.0833 204.76 80.2188 204.947 80.3334C205.28 80.5313 205.28 80.5313 205.614 80.3334C205.791 80.2188 206.009 80.125 206.103 80.125C206.186 80.125 206.28 80.0729 206.301 80.0209C206.322 79.9584 206.436 79.8959 206.572 79.8646C206.697 79.8438 206.874 79.75 206.967 79.6563C207.061 79.5729 207.176 79.5209 207.228 79.5521C207.28 79.5938 207.321 79.5625 207.321 79.5104C207.321 79.4479 207.394 79.3959 207.478 79.3959C207.561 79.3959 207.634 79.3333 207.634 79.25C207.634 79.0938 208.227 78.8438 208.373 78.9375C208.425 78.9688 208.467 78.9375 208.467 78.875C208.467 78.8125 208.508 78.7917 208.571 78.8229C208.623 78.8542 208.727 78.7917 208.8 78.6771C208.894 78.5313 208.967 78.5 209.05 78.5729C209.144 78.6458 209.196 78.6146 209.248 78.4584C209.289 78.3229 209.373 78.2604 209.466 78.2917C209.55 78.3229 209.643 78.2813 209.685 78.1875C209.716 78.0938 209.852 78.0313 210.018 78.0417C210.466 78.0729 210.549 78.0521 210.487 77.8854C210.445 77.8021 210.466 77.7292 210.508 77.7188C210.841 77.6979 211.122 77.6042 211.153 77.5209C211.174 77.4688 211.257 77.4584 211.341 77.4896C211.424 77.5209 211.549 77.4688 211.622 77.375C211.695 77.2708 211.82 77.1875 211.903 77.1667C211.986 77.1458 212.174 77.0833 212.32 77.0313C212.465 76.9688 212.611 76.9375 212.653 76.9583C212.694 76.9896 212.746 76.9063 212.788 76.8021C212.819 76.6875 212.944 76.5625 213.059 76.5313C213.163 76.4896 213.257 76.4167 213.257 76.3542C213.257 76.2917 213.35 76.2708 213.465 76.3021C213.58 76.3333 213.704 76.3125 213.736 76.2604C213.767 76.2084 213.881 76.1667 213.996 76.1667C214.236 76.1667 214.985 75.8021 215.235 75.5625C215.433 75.3646 215.704 74.9167 215.704 74.7604C215.714 74.6979 215.787 74.5417 215.891 74.3959C215.985 74.25 216.047 74.0209 216.016 73.8959C215.995 73.7709 216.016 73.6667 216.058 73.6667C216.151 73.6667 216.485 72.8542 216.485 72.6146C216.485 72.5313 216.568 72.3646 216.672 72.25C216.901 72.0104 217.214 71.3542 217.214 71.125C217.214 71.0313 217.266 70.9584 217.318 70.9584C217.37 70.9584 217.411 70.9271 217.401 70.875C217.391 70.8334 217.443 70.6667 217.505 70.5104C217.578 70.3438 217.63 70.1771 217.63 70.1354C217.63 70.0833 217.703 69.9896 217.786 69.9167C217.87 69.8438 217.943 69.6979 217.943 69.5938C217.943 69.4896 218.015 69.3646 218.099 69.3125C218.192 69.2709 218.276 69.0834 218.286 68.8959C218.297 68.7188 218.369 68.5417 218.442 68.5104C218.505 68.4896 218.567 68.375 218.567 68.2709C218.567 68.1667 218.661 67.9792 218.776 67.8646C218.88 67.7396 219.005 67.5104 219.036 67.3438C219.078 67.1875 219.15 66.9584 219.202 66.8438C219.255 66.7292 219.379 66.3438 219.494 65.9896C219.65 65.4688 219.661 65.3125 219.557 65.2292C219.432 65.125 218.807 65.1146 216.12 65.125C215.495 65.1354 214.652 65.1354 214.246 65.125C213.85 65.1146 213.475 65.1146 213.413 65.1146C210.539 65.1459 207.623 65.1354 207.54 65.0833C207.478 65.0417 207.425 65.0521 207.425 65.1146ZM207.019 70.1146C207.082 70.0104 207.113 70.0104 207.113 70.0938C207.113 70.1667 207.186 70.2292 207.269 70.2292C207.353 70.2292 207.425 70.1979 207.425 70.1459C207.425 70.1042 207.623 70.0729 207.873 70.0833C208.321 70.1042 209.758 70.125 211.216 70.1146C211.664 70.1146 212.09 70.1667 212.143 70.2188C212.226 70.3021 212.215 70.3334 212.132 70.3334C212.059 70.3334 212.018 70.3646 212.028 70.4063C212.038 70.4584 211.976 70.6146 211.872 70.7604C211.768 70.9167 211.674 71.125 211.643 71.2292C211.58 71.5625 211.185 72.3854 211.049 72.4896C210.976 72.5417 210.706 72.6667 210.445 72.7709C209.925 72.9792 209.56 73.1354 209.248 73.2604C209.133 73.3021 208.717 73.4896 208.321 73.6667C207.925 73.8334 207.55 73.9792 207.478 73.9792C207.405 73.9792 207.321 74.0521 207.28 74.1354C207.248 74.2188 207.186 74.2813 207.144 74.2708C207.103 74.2708 206.926 74.3125 206.769 74.375C206.603 74.4479 206.405 74.5 206.311 74.5C206.124 74.5 205.551 74.1771 205.551 74.0625C205.551 74.0208 205.478 73.9792 205.395 73.9792C205.312 73.9792 205.239 73.9479 205.239 73.8959C205.239 73.8542 204.989 73.7083 204.697 73.5729C204.395 73.4375 203.802 73.0938 203.375 72.8125C202.948 72.5313 202.49 72.2813 202.354 72.25C202.125 72.1875 202 71.7917 202.209 71.7917C202.261 71.7917 202.438 71.4584 202.594 71.0521C202.75 70.6563 202.917 70.3021 202.969 70.2709C203.01 70.2396 203.479 70.1979 204.01 70.1771C204.541 70.1459 205.072 70.1146 205.187 70.0938C205.301 70.0625 205.666 70.0834 206.009 70.125C206.436 70.1667 206.655 70.1563 206.738 70.0625C206.832 69.9688 206.863 69.9688 206.894 70.0938C206.915 70.2292 206.936 70.2396 207.019 70.1146ZM211.83 75.1771C211.799 75.2709 211.747 75.3229 211.726 75.2917C211.695 75.2604 211.705 75.1979 211.747 75.1354C211.841 74.9688 211.903 75 211.83 75.1771ZM212.288 75.6667C212.257 75.75 212.226 75.7188 212.226 75.6042C212.215 75.4896 212.247 75.4271 212.278 75.4688C212.309 75.5 212.32 75.5938 212.288 75.6667Z" fill="white"/>
</svg>
