<svg width="558" height="10" viewBox="0 0 558 10" fill="none" xmlns="http://www.w3.org/2000/svg">
<line y1="-0.5" x2="558" y2="-0.5" transform="matrix(-1 0 0 1 558 9.80518)" stroke="#191C22"/>
<line y1="-2" x2="112.048" y2="-2" transform="matrix(-1 -8.74228e-08 -8.74228e-08 1 558 6.84058)" stroke="#191C22" stroke-width="4"/>
<line y1="-1" x2="112.048" y2="-1" transform="matrix(-1 -8.74228e-08 -8.74228e-08 1 324.94 6.84058)" stroke="#191C22" stroke-width="2"/>
<line y1="-0.5" x2="112.048" y2="-0.5" transform="matrix(-1 -8.74228e-08 -8.74228e-08 1 208.41 6.84058)" stroke="#191C22"/>
<line y1="-3" x2="112.048" y2="-3" transform="matrix(-1 -8.74228e-08 -8.74228e-08 1 440.349 6.84058)" stroke="#191C22" stroke-width="6"/>
<line y1="-3" x2="112.048" y2="-3" transform="matrix(-1 -8.74228e-08 -8.74228e-08 1 441.47 6.84058)" stroke="#191C22" stroke-width="6"/>
</svg>
