<svg width="202" height="170" fill="none" xmlns="http://www.w3.org/2000/svg"><mask id="a" style="mask-type:alpha" maskUnits="userSpaceOnUse" x="23" y="7" width="179" height="161"><path d="M202 7A547.061 547.061 0 0 1 25.407 166.635L23 168h179V7Z" fill="#BEBEBE"/></mask><g mask="url(#a)"><path d="M202 7A547.061 547.061 0 0 1 25.407 166.635L23 168h179V7Z" fill="#fff"/><path d="M202 95a426.254 426.254 0 0 1-154.697 67.736L23 168h179V95Z" fill="#FF4D15" fill-opacity=".5"/><path d="M202 57A472.709 472.709 0 0 1 39.03 161.869L23 168h179V57Z" fill="#FF4D15" fill-opacity=".5"/><path d="M202 127a473.73 473.73 0 0 1-147.197 38.069L23 168h179v-41Z" fill="#FF4D15"/></g><path d="M4.3 9V7.94H1.05c-.6 0-.9-.397-.9-1.19 0-.267.033-.483.1-.65.073-.173.193-.343.36-.51L3.9 2.35c.287-.287.677-.43 1.17-.43.687 0 1.03.3 1.03.9v3.72h.96v1.4h-.97V9H4.3Zm0-2.46V3.96c0-.027-.013-.04-.04-.04-.02 0-.06.033-.12.1L1.93 6.27c-.06.06-.09.113-.09.16 0 .073.043.11.13.11H4.3Zm10.954-.87-1.09 2.91c-.12.32-.386.48-.8.48-.413 0-.68-.16-.8-.48l-1.1-2.9c-.026-.087-.06-.13-.1-.13-.04 0-.06.037-.06.11l.07 3.34h-1.56V4.53c0-.293.11-.513.33-.66.227-.153.504-.23.83-.23.3 0 .537.053.71.16.18.1.32.28.42.54l1.09 2.83c.06.147.117.22.17.22.054 0 .11-.073.17-.22l1.08-2.83c.1-.26.237-.44.41-.54.18-.107.424-.16.73-.16.32 0 .594.077.82.23.227.147.34.367.34.66V9h-1.56l.07-3.35c0-.073-.023-.11-.07-.11-.04 0-.073.043-.1.13ZM22.014 9l-1.49-3.62a.388.388 0 0 1-.02-.05.388.388 0 0 0-.02-.05.116.116 0 0 0-.02-.03.116.116 0 0 0-.02-.03c-.007-.007-.017-.01-.03-.01a.089.089 0 0 0-.04.01c-.013 0-.023.007-.03.02l-.02.04c-.007.007-.013.023-.02.05-.007.027-.013.043-.02.05L18.814 9h-1.62l2.24-4.9c.14-.307.467-.46.98-.46.5 0 .82.153.96.46l2.26 4.9h-1.62Zm3.632 0h-1.6V7.46h1.6V9ZM.35 62v-1.36h3c.367 0 .623-.047.77-.14.153-.093.23-.293.23-.6 0-.267-.063-.463-.19-.59-.127-.127-.35-.19-.67-.19H.52v-1.3H3.4c.287 0 .493-.057.62-.17.133-.12.2-.313.2-.58 0-.24-.06-.417-.18-.53-.12-.12-.317-.18-.59-.18h-3V55h3.93c.58 0 1 .15 1.26.45.267.3.4.757.4 1.37 0 .447-.077.81-.23 1.09-.153.273-.44.44-.86.5v.04c.447.027.763.177.95.45.193.267.29.647.29 1.14 0 .627-.13 1.11-.39 1.45-.26.34-.713.51-1.36.51H.35Zm14.387-3.33-1.09 2.91c-.12.32-.387.48-.8.48-.413 0-.68-.16-.8-.48l-1.1-2.9c-.027-.087-.06-.13-.1-.13-.04 0-.06.037-.06.11l.07 3.34h-1.56v-4.47c0-.293.11-.513.33-.66.227-.153.503-.23.83-.23.3 0 .537.053.71.16.18.1.32.28.42.54l1.09 2.83c.06.147.117.22.17.22.053 0 .11-.073.17-.22l1.08-2.83c.1-.26.237-.44.41-.54.18-.107.423-.16.73-.16.32 0 .593.077.82.23.227.147.34.367.34.66V62h-1.56l.07-3.35c0-.073-.023-.11-.07-.11-.04 0-.073.043-.1.13Zm6.76 3.33-1.49-3.62a.386.386 0 0 1-.02-.05.386.386 0 0 0-.02-.05.118.118 0 0 0-.02-.03.118.118 0 0 0-.02-.03c-.007-.007-.017-.01-.03-.01a.088.088 0 0 0-.04.01c-.014 0-.024.007-.03.02l-.02.04c-.007.007-.014.023-.02.05a.14.14 0 0 1-.02.05L18.296 62h-1.62l2.24-4.9c.14-.307.466-.46.98-.46.5 0 .82.153.96.46l2.26 4.9h-1.62Zm3.631 0h-1.6v-1.54h1.6V62ZM5.95 95H1.21a.8.8 0 0 1-.61-.27c-.167-.18-.25-.443-.25-.79 0-.547.173-.927.52-1.14l3.09-1.89c.267-.167.4-.437.4-.81 0-.267-.053-.45-.16-.55-.107-.1-.3-.15-.58-.15H.79V88h3.73c.593 0 1.013.153 1.26.46.253.307.38.78.38 1.42 0 .573-.073 1.003-.22 1.29-.14.287-.397.54-.77.76l-2.47 1.5c-.067.033-.1.07-.1.11 0 .04.023.06.07.06h3.28V95Zm8.758-3.33-1.09 2.91c-.12.32-.387.48-.8.48-.414 0-.68-.16-.8-.48l-1.1-2.9c-.027-.087-.06-.13-.1-.13-.04 0-.06.037-.06.11l.07 3.34h-1.56v-4.47c0-.293.11-.513.33-.66.226-.153.503-.23.83-.23.3 0 .536.053.71.16.18.1.32.28.42.54l1.09 2.83c.06.147.116.22.17.22.053 0 .11-.073.17-.22l1.08-2.83c.1-.26.236-.44.41-.54.18-.107.423-.16.73-.16.32 0 .593.077.82.23.226.147.34.367.34.66V95h-1.56l.07-3.35c0-.073-.024-.11-.07-.11-.04 0-.074.043-.1.13Zm6.76 3.33-1.49-3.62a.386.386 0 0 1-.02-.05.386.386 0 0 0-.02-.05.118.118 0 0 0-.02-.03.118.118 0 0 0-.02-.03.044.044 0 0 0-.03-.01.088.088 0 0 0-.04.01c-.014 0-.024.007-.03.02-.008.013-.014.027-.02.04-.008.007-.014.023-.02.05a.162.162 0 0 1-.02.05L18.267 95h-1.62l2.24-4.9c.14-.307.466-.46.98-.46.5 0 .82.153.96.46l2.26 4.9h-1.62Zm3.631 0h-1.6v-1.54h1.6V95ZM1.17 128v-5.07c0-.18-.023-.313-.07-.4-.04-.087-.14-.13-.3-.13H0V121h1.96c.327 0 .577.087.75.26.173.173.26.423.26.75V128h-1.8Zm10.54-3.33-1.09 2.91c-.12.32-.387.48-.8.48-.414 0-.68-.16-.8-.48l-1.1-2.9c-.027-.087-.06-.13-.1-.13-.04 0-.06.037-.06.11l.07 3.34H6.27v-4.47c0-.293.11-.513.33-.66.226-.153.503-.23.83-.23.3 0 .536.053.71.16.18.1.32.28.42.54l1.09 2.83c.06.147.116.22.17.22.053 0 .11-.073.17-.22l1.08-2.83c.1-.26.236-.44.41-.54.18-.107.423-.16.73-.16.32 0 .593.077.82.23.226.147.34.367.34.66V128h-1.56l.07-3.35c0-.073-.024-.11-.07-.11-.04 0-.074.043-.1.13Zm6.76 3.33-1.49-3.62a.357.357 0 0 1-.02-.05.383.383 0 0 0-.02-.05.133.133 0 0 0-.02-.03.133.133 0 0 0-.02-.03.044.044 0 0 0-.03-.01.084.084 0 0 0-.04.01c-.014 0-.024.007-.03.02-.008.013-.014.027-.02.04a.122.122 0 0 0-.02.05.125.125 0 0 1-.02.05L15.27 128h-1.62l2.24-4.9c.14-.307.466-.46.98-.46.5 0 .82.153.96.46l2.26 4.9h-1.62Zm3.631 0h-1.6v-1.54h1.6V128ZM1.96 160.04c.347-.067.8-.1 1.36-.1s1.013.033 1.36.1c.347.067.647.197.9.39.26.193.443.467.55.82.107.347.16.8.16 1.36v1.72c0 .573-.053 1.04-.16 1.4-.107.353-.29.63-.55.83a2.217 2.217 0 0 1-.9.4c-.347.067-.8.1-1.36.1s-1.013-.033-1.36-.1a2.302 2.302 0 0 1-.91-.4 1.62 1.62 0 0 1-.54-.83c-.107-.36-.16-.827-.16-1.4v-1.72c0-.56.053-1.013.16-1.36.107-.353.287-.627.54-.82.26-.193.563-.323.91-.39Zm1.36 5.62c.453 0 .76-.097.92-.29.167-.193.25-.547.25-1.06v-1.67c0-.487-.083-.823-.25-1.01-.16-.193-.467-.29-.92-.29-.447 0-.753.097-.92.29-.167.193-.25.53-.25 1.01v1.67c0 .507.083.86.25 1.06.167.193.473.29.92.29Z" fill="#fff"/></svg>