<svg width="686" height="559" fill="none" xmlns="http://www.w3.org/2000/svg"><path d="M0 90.842c0-49.706 40.294-90 90-90h230.441a90.001 90.001 0 0 1 69.14 32.383l6.027 7.233a90.001 90.001 0 0 0 69.14 32.384H596c49.706 0 90 40.294 90 90v212.433c0 49.705-40.294 90-90 90H409.615c-25.405 0-46 20.594-46 45.999 0 25.308-20.443 45.862-45.75 45.999l-227.376 1.235C40.593 558.779 0 518.406 0 468.509V90.842Z" fill="#E9EAEA"/><path d="M.5 90.842c0-49.43 40.07-89.5 89.5-89.5h230.441a89.497 89.497 0 0 1 68.755 32.203l6.028 7.233a90.502 90.502 0 0 0 69.524 32.564H596c49.43 0 89.5 40.07 89.5 89.5v212.433c0 49.429-40.07 89.5-89.5 89.5H409.615c-25.681 0-46.5 20.818-46.5 46.499 0 25.033-20.22 45.363-45.252 45.499l-227.377 1.235C40.867 558.278.5 518.129.5 468.509V90.842Z" stroke="#fff" stroke-opacity=".15"/></svg>