<svg width="323" height="674" fill="none" xmlns="http://www.w3.org/2000/svg"><path d="M0 50C0 22.386 22.386 0 50 0h105.415a50 50 0 0 1 44.415 27.036l2.043 3.951a49.999 49.999 0 0 0 44.414 27.036H273c27.614 0 50 22.386 50 50v444.198c0 27.614-22.386 50-50 50H111.096c-19.821 0-35.89 16.068-35.89 35.889 0 19.822-16.068 35.89-35.89 35.89h-1.713C16.836 674 0 657.164 0 636.397V50Z" fill="#E9EAEA"/><path d="M.4 50C.4 22.607 22.606.4 50 .4h105.415a49.6 49.6 0 0 1 44.06 26.82l2.043 3.95a50.4 50.4 0 0 0 44.769 27.253H273c27.393 0 49.6 22.207 49.6 49.6v444.198c0 27.393-22.207 49.6-49.6 49.6H111.096c-20.042 0-36.29 16.247-36.29 36.289 0 19.601-15.889 35.49-35.49 35.49h-1.713C17.056 673.6.4 656.944.4 636.397V50Z" stroke="#fff" stroke-opacity=".15" stroke-width=".799"/></svg>