<svg width="31" height="30" fill="none" xmlns="http://www.w3.org/2000/svg"><path fill-rule="evenodd" clip-rule="evenodd" d="M16.984 5.982c-.272-1.33-2.174-1.33-2.446 0a9.905 9.905 0 0 1-.293 1.108 2.132 2.132 0 0 1-3.005 1.245 10.02 10.02 0 0 1-.991-.576c-1.133-.749-2.478.596-1.73 1.73.213.32.405.652.577.99a2.132 2.132 0 0 1-1.245 3.005c-.36.118-.73.216-1.108.293-1.33.272-1.33 2.174 0 2.446.378.077.748.175 1.108.293a2.132 2.132 0 0 1 1.245 3.005c-.172.338-.364.67-.576.99-.749 1.134.596 2.479 1.729 1.73.322-.212.653-.404.99-.576a2.132 2.132 0 0 1 3.006 1.245c.118.36.216.73.293 1.108.272 1.33 2.174 1.33 2.446 0 .077-.378.175-.748.293-1.108a2.132 2.132 0 0 1 3.005-1.245c.338.172.67.364.99.576 1.134.749 2.479-.596 1.73-1.73a10.036 10.036 0 0 1-.576-.99 2.132 2.132 0 0 1 1.245-3.005c.36-.118.73-.216 1.108-.293 1.33-.272 1.33-2.174 0-2.446a10.021 10.021 0 0 1-1.109-.293 2.132 2.132 0 0 1-1.244-3.005 9.65 9.65 0 0 1 .576-.99c.749-1.134-.596-2.479-1.73-1.73a10.03 10.03 0 0 1-.99.576 2.132 2.132 0 0 1-3.005-1.245 9.905 9.905 0 0 1-.293-1.108Z" fill="#FF4D15"/><path fill-rule="evenodd" clip-rule="evenodd" d="M16.984 5.982 15.76 0l-1.223 5.982a9.987 9.987 0 0 1-1.215 3.132 9.987 9.987 0 0 1-3.074-1.355L5.154 4.393 8.52 9.488a9.987 9.987 0 0 1 1.355 3.074 9.99 9.99 0 0 1-3.132 1.215L.761 15l5.982 1.223a9.99 9.99 0 0 1 3.132 1.215 9.988 9.988 0 0 1-1.355 3.074l-3.366 5.095 5.095-3.366a9.988 9.988 0 0 1 3.074-1.355 9.987 9.987 0 0 1 1.215 3.132L15.761 30l1.223-5.982a9.988 9.988 0 0 1 1.215-3.132 9.986 9.986 0 0 1 3.074 1.355l5.095 3.366-3.366-5.095a9.99 9.99 0 0 1-1.355-3.074 9.99 9.99 0 0 1 3.132-1.215L30.76 15l-5.982-1.223a9.99 9.99 0 0 1-3.132-1.215 9.985 9.985 0 0 1 1.355-3.074l3.366-5.095-5.095 3.366a9.987 9.987 0 0 1-3.074 1.355 9.987 9.987 0 0 1-1.215-3.132Z" fill="#FF4D15"/><circle cx="15.761" cy="15" r="4.773" fill="#0F1217"/></svg>