<svg width="290" height="147" fill="none" xmlns="http://www.w3.org/2000/svg"><path d="M66.247 32.52c-.125.105-.198.22-.156.261.031.032-.01.063-.104.063-.198 0-.49.208-1.031.75-.209.218-.438.396-.5.396-.063 0-.083.041-.052.104.031.062-.01.073-.094.041-.094-.041-.166-.01-.166.063 0 .135-1.031 1.146-1.167 1.146-.041 0-.073.062-.052.125.01.073-.083.146-.218.166-.157.021-.23.094-.188.178.021.072-.135.302-.354.5-.229.197-.385.385-.354.416.073.073-.458.594-.604.594-.062 0-.083.031-.052.073.042.031.02.125-.042.208-.062.073-.083.136-.041.136.041 0-.125.229-.354.51-.24.281-.427.583-.427.677a.266.266 0 0 1-.156.23c-.084.04-.125.114-.084.176.032.063.01.073-.062.032-.146-.094-.406.145-.354.322.02.063-.052.178-.167.24-.125.063-.219.208-.219.313 0 .114-.072.208-.156.208-.083 0-.156.052-.156.114 0 .053.063.073.136.032.062-.032-.01.052-.178.187-.239.198-.28.302-.218.49.052.166.041.219-.042.177-.104-.073-.166.146-.114.406.01.052-.01.073-.053.031-.124-.125-.468.282-.426.51.03.147-.021.24-.136.272-.229.052-.687.968-.656 1.291.01.167-.02.22-.146.167-.104-.042-.177.02-.218.167-.032.114-.094.187-.146.166-.042-.03-.073.032-.073.125.02.386-.073.552-.74 1.26-.197.21-.301.397-.228.417.062.021.114.084.114.136 0 .062-.041.073-.104.041-.062-.03-.073.01-.042.094.042.115 0 .167-.114.167-.135 0-.167.062-.115.26.052.188.021.26-.083.26-.166 0-.302.282-.198.438.042.073.01.084-.073.032-.104-.063-.125-.032-.083.135.042.125.02.23-.02.23-.042 0-.063.093-.032.197.042.156 0 .198-.146.177-.25-.042-.468.281-.406.615.031.177 0 .26-.094.26-.083 0-.26.198-.385.427-.135.24-.302.531-.364.656a.977.977 0 0 0-.136.417c0 .115-.031.167-.073.136-.114-.126-.322.135-.27.343.03.125 0 .209-.073.209-.063 0-.104.062-.073.125.02.072-.083.28-.24.468-.156.177-.312.386-.333.448-.031.094-1.062.136-4.3.146-2.354 0-4.332.052-4.395.094a.384.384 0 0 0-.135.281c0 .104-.052.208-.115.23-.062.02-.26.301-.437.624-1.062 1.917-1.666 2.959-1.728 3-.042.032-.26.375-.48.782-.208.395-.458.812-.54.906-.084.093-.126.229-.084.281.031.063.031.115-.021.115-.073 0-.458.562-.5.729-.073.25-.312.604-.375.562-.052-.031-.198.177-.323.448-.135.271-.27.51-.312.531-.052.021-.083.094-.083.178 0 .072-.063.187-.146.25-.177.145-1.052 1.624-2.083 3.5-.124.229-.333.583-.458.78-.114.199-.218.407-.218.46.01.051-.032.124-.084.155-.208.157-.53.605-.604.834l-.073.24 2.28-.063a184.74 184.74 0 0 0 2.906-.115c.344-.031 1.874-.062 3.384-.062l2.75-.021-.022.344c-.01.187-.072.375-.124.406-.063.041-.115.24-.136.448-.01.208-.052.364-.094.333-.041-.02-.104 0-.145.063-.032.052-.021.104.03.104.063 0 .084.094.053.208-.031.115-.104.208-.167.208-.062 0-.083.032-.041.063.062.073-.198.667-.302.667-.032 0-.021-.063.02-.136.042-.073.032-.083-.02-.041-.042.041-.094.25-.115.458-.01.208-.062.406-.114.437-.105.073-.282.542-.25.657.01.052-.042.073-.115.052-.073-.01-.114.062-.093.198.01.125-.042.28-.125.343-.177.146-.188.146-2.302-.395-1.926-.49-3.967-.959-6.82-1.573-3.676-.792-4.52-.948-4.728-.896-.114.031-.302.187-.395.354-.25.417-1.27 1.51-3.395 3.667-.99 1-1.78 1.864-1.75 1.927.021.062.386.177.802.26.74.125 2.395.469 3.843.792.364.073.812.187.989.25.177.062.646.177 1.052.26 1.051.219 3.103.73 3.946.98.406.114.917.228 1.146.25.229.01.468.062.52.093.104.063 2.02.563 2.458.646.135.031.27.062.302.073.031.01.104.031.156.041l.156.053c.031.01.177.041.333.062.438.073 1.031.354.969.458-.032.052-.01.115.041.157.115.062-.197.677-.343.677-.052 0-.042.062.02.135.136.156.042.625-.093.531-.052-.03-.063.032-.021.125.042.105 0 .23-.104.302-.115.084-.156.24-.146.5.031.313.01.355-.135.282-.146-.073-.167-.042-.125.219.031.208 0 .302-.094.302-.114 0-.114.02-.01.083.104.073.083.156-.084.365-.156.197-.177.28-.083.28.104 0 .094.032-.02.105-.084.052-.126.104-.084.104.042 0 0 .167-.083.365-.084.198-.115.364-.073.364.052 0 0 .052-.094.115-.104.052-.156.166-.125.25.042.083.01.156-.062.156-.073 0-.104.063-.073.146.03.083 0 .23-.073.333a.51.51 0 0 0-.094.354c.031.094-.01.24-.094.323a.728.728 0 0 0-.156.355c-.041.458-.26 1.156-.396 1.26-.083.062-.166.27-.177.458-.01.188-.083.354-.156.386-.062.03-.093.114-.062.198.031.083-.031.25-.125.354-.115.125-.136.208-.073.208.073 0 .125.094.125.208 0 .115-.052.209-.115.209-.062 0-.093.094-.062.208a.34.34 0 0 1-.094.323c-.125.104-.323.77-.27.948.01.052-.021.083-.063.083-.094 0-.364.948-.385 1.334 0 .135-.073.28-.146.323-.073.052-.115.177-.104.28a.573.573 0 0 1-.063.355c-.052.083-.104.177-.104.208-.031.177-.177.521-.24.521-.041 0-.083.104-.083.23-.01.208-.666 2.385-.843 2.79-.031.084-.083.24-.104.345-.021.114-.146.552-.292.99-.146.437-.26.833-.26.874 0 .031-.042.177-.094.313a2.57 2.57 0 0 0-.114.344 6.11 6.11 0 0 1-.219.614c-.104.292-.167.542-.146.573.031.021.052-.01.052-.083 0-.073.042-.104.084-.073.041.021.479-1.136.958-2.573.489-1.448.916-2.646.958-2.656.052-.021.083-.146.083-.282 0-.135.041-.28.104-.312.063-.031.104-.156.104-.271 0-.104.042-.198.094-.198s.073-.083.041-.198c-.03-.104 0-.229.063-.26.062-.042.114-.177.114-.302s.063-.355.146-.51a4.35 4.35 0 0 0 .271-.678c.073-.219.167-.448.208-.5.052-.062.104-.27.125-.469.01-.198.084-.416.146-.468.063-.063.198-.386.292-.73.104-.343.27-.791.385-1 .104-.208.166-.406.125-.447-.031-.032-.01-.063.052-.063.073 0 .114-.031.104-.083-.01-.042.042-.219.114-.386a2.93 2.93 0 0 0 .157-.448c.01-.073.093-.218.177-.312a.975.975 0 0 0 .166-.48c.01-.156.115-.468.23-.687.114-.219.177-.416.156-.448-.032-.02.052-.25.187-.5.125-.25.219-.541.208-.635-.02-.094.063-.219.177-.281.136-.073.177-.177.146-.323-.031-.125.01-.23.104-.271a.16.16 0 0 0 .104-.208c-.03-.084-.01-.146.052-.146.063 0 .084-.094.053-.209a.483.483 0 0 1 .083-.375c.135-.166.187-.312.24-.708.01-.104.135-.302.27-.448.167-.177.208-.281.125-.364-.073-.073-.073-.198-.02-.355.051-.135.062-.25.02-.25-.042 0 .01-.052.114-.114.094-.052.178-.219.178-.354a.42.42 0 0 1 .208-.365c.114-.062.177-.177.146-.25-.032-.083.041-.219.187-.312.219-.136.333-.136 1.125.041 1.25.26 4.009.917 4.686 1.104.572.167 1.27.344 1.561.407.084.02.521.125.98.24.447.114.884.187.957.156a.307.307 0 0 1 .281.052c.063.062.521.208 1.01.333.49.115.958.24 1.052.27.136.042.26-.156.552-.916.916-2.406 1.333-3.448 1.78-4.51.271-.636.584-1.386.698-1.667.115-.292.271-.667.344-.833.073-.177.427-.99.791-1.823.354-.834.875-1.99 1.146-2.573.28-.594.614-1.146.614-1.23 0-.083-.062-.156-.02-.156.051 0 .218-.291.385-.656l.812-1.74c.28-.604.604-1.302.718-1.562.125-.26.281-.542.354-.625.073-.083.136-.187.136-.24.02-.187.333-.833.614-1.24.24-.364.646-1.218.646-1.374 0-.02-.22-.031-.49-.031-1.124.01-10.267-.136-11.256-.177-1.135-.053-1.27-.094-1.27-.334 0-.083.051-.125.104-.093.062.03.104-.021.104-.115s.156-.323.343-.49c.177-.177.271-.28.209-.24-.198.115-.167-.135.062-.416.135-.177.219-.208.25-.125.031.073.042 0 .042-.177l-.021-.302 1.145.02c.625.022 1.156.053 1.187.074.021.03.104 0 .188-.063.083-.073.177-.083.27-.02.063.051.802.103 1.635.124 1.552.021 3.926.167 4.603.282.343.062.416.03.625-.22.135-.155.354-.416.5-.572.145-.156.52-.583.822-.948.864-1.01 2.895-2.98 3.488-3.375.292-.188.698-.49.896-.667.562-.49.573-.5.812-.625.135-.073.208-.166.188-.208-.053-.073-1.687-.052-2.698.042-.291.03-.468.01-.437-.052.063-.094-.291-.063-.468.052-.063.03-.105.01-.105-.042a.116.116 0 0 0-.114-.115c-.052 0-.083.032-.052.084.02.041-.333.062-.802.041-.802-.03-3.832-.041-5.592-.03-.427.01-.968 0-1.197-.022-.23-.02-.5 0-.594.052-.104.053-.187.053-.187 0 0-.052-.208-.083-.469-.072-.25.01-.447-.01-.447-.042.01-.031-.021-.177-.063-.313-.062-.187-.042-.291.073-.375.094-.073.125-.166.083-.25-.094-.156.396-.729.563-.645.062.03.041-.032-.042-.136-.125-.156-.125-.177 0-.146.083.021.135-.02.125-.093-.021-.063.073-.209.208-.313.125-.104.25-.281.27-.396.011-.114.168-.323.324-.469.208-.187.312-.395.354-.708.041-.396.354-.833.593-.854.032 0 .063-.073.063-.156 0-.084-.042-.125-.094-.094-.042.031-.083 0-.083-.052 0-.063.052-.115.104-.115.062 0 .104-.073.104-.156s.052-.156.104-.156c.063 0 .104-.073.104-.157 0-.083.052-.156.115-.156.052 0 .083-.041.041-.093-.03-.053-.01-.126.053-.167.062-.042.083-.115.051-.167-.041-.052.01-.094.115-.094.146 0 .146-.03.042-.156-.115-.135-.104-.146.02-.104.105.042.188-.063.282-.365.062-.229.093-.468.052-.53-.042-.063-.032-.147.02-.188.053-.032.157-.188.22-.355.072-.156.197-.28.28-.28.073 0 .167-.074.209-.157.03-.083.01-.156-.042-.156-.114 0-.01-.334.146-.438.062-.041.114-.156.114-.26.01-.104.052-.177.115-.167.052.01.114-.083.114-.198.01-.125.084-.26.157-.302.073-.052.093-.094.041-.094s-.01-.093.084-.197c.104-.115.156-.25.125-.303-.032-.062.01-.135.104-.166.093-.032.125-.021.083.052-.031.062.031.052.156-.021.125-.083.167-.167.094-.208-.073-.042-.063-.084.031-.125.104-.042.083-.063-.041-.063-.105-.01-.157-.062-.125-.125.041-.062.145-.083.229-.052.104.042.135.02.104-.083-.042-.094.062-.209.27-.313.188-.083.282-.166.22-.166-.21 0-.105-.636.114-.76.197-.126.26-.25.291-.615.01-.136.042-.146.146-.063.187.146.302-.177.135-.385-.104-.125-.093-.167.042-.22.104-.04.156-.135.115-.228-.042-.125-.032-.136.093-.032.198.167.386.063.302-.166-.052-.125-.031-.146.084-.084.114.073.124.063.02-.072-.114-.125-.083-.209.125-.459.209-.229.26-.375.209-.604-.042-.27-.032-.281.135-.156.094.073.146.094.104.052-.041-.052.02-.23.136-.396.124-.167.229-.406.239-.552.031-.281.312-.594.427-.49.052.042.052.021.01-.052-.03-.062.042-.198.167-.28.135-.095.177-.168.094-.168-.094 0-.052-.072.093-.208.125-.114.24-.302.25-.417 0-.114.052-.208.104-.197.052 0 .157-.136.25-.313.084-.177.188-.292.24-.26.052.03.104-.01.114-.084 0-.073.021-.187.021-.24.021-.176.177-.374.25-.322.042.02.188-.136.313-.365.26-.458.25-.49-.063-.208Zm-4.425 7.46c-.032.03-.126.04-.198.01-.084-.032-.052-.063.062-.063.115-.01.177.02.136.052ZM49.565 59c0 .052-.041.083-.093.083s-.084.115-.052.26c.02.147.01.261-.042.261-.052 0-.094.063-.104.125-.052.563-.156 1.031-.26 1.198-.053.073-.063.177-.021.23.031.051-.188.124-.49.156-.572.062-4.352.135-4.352.083 0-.052.572-.906.697-1.031.063-.073.292-.417.5-.75.25-.417.448-.636.604-.657.48-.062 3.614-.03 3.614.042Zm2.895 8.406c.157.01.23.073.23.219 0 .115-.032.208-.084.208-.042 0-.187.292-.312.646-.136.365-.344.865-.469 1.125-.114.26-.25.563-.292.677-.072.219-.947 2.344-1.207 2.938-.177.416-.25.416-1.593.125a39.699 39.699 0 0 0-1.875-.375c-.958-.167-1.239-.313-.854-.417.146-.031.219-.115.188-.198-.052-.146.447-1.51.604-1.614.052-.042.052-.125.01-.188-.042-.073-.01-.187.052-.27.073-.084.094-.157.063-.157-.042 0-.01-.104.062-.24.073-.125.115-.26.104-.312-.01-.042.021-.073.063-.073.041 0 .093-.104.093-.23.01-.135.073-.25.136-.27.052-.02.104-.156.104-.292 0-.145.062-.25.146-.25.166 0 .27-.218.27-.583 0-.542.094-.563 2.291-.52 1.114.02 2.135.051 2.27.051Zm-21.357 4.656c-.03.032-.125.042-.198.01-.083-.03-.052-.062.063-.062.114-.01.177.021.135.052Zm7.112 2.792c0 .031-.041.084-.104.115-.052.031-.104.01-.104-.042 0-.062.052-.115.104-.115.063 0 .104.021.104.042Zm15.797 5.917c-.031.083-.063.052-.063-.063-.01-.114.021-.177.052-.135.032.031.042.125.01.198Zm56.927-32.751-1.176.053-.386.75-.385.708-1.801.094-1.802.02-.75.949c-.416.52-.749.99-.749 1.031 0 .052.843.083 2.02.083 1.104 0 2.02.032 2.02.052 0 .042-.385.855-.854 1.813-2.062 4.187-3.093 6.302-3.093 6.354 0 .031.563.052 1.25.052h1.229l.479-.99.489-.979h3.572l3.582-.02.312-.386c.167-.208.531-.646.802-.969.26-.322.489-.614.489-.656 0-.031-1.718-.052-3.832-.052-2.103 0-3.832-.02-3.832-.042 0-.02.105-.26.229-.51l.23-.469h6.445l.479-.583c.948-1.146 1.031-1.27 1.031-1.365 0-.062-1.104-.114-3.447-.125l-3.478-.03.24-.553.239-.542h6.529l.271-.312c.146-.156.396-.469.552-.677.146-.209.396-.5.541-.646.136-.156.24-.323.209-.354-.032-.042-1.635-.073-3.572-.073h-3.519l.374-.75c.365-.74.438-.959.313-.927-.052-.021-.604.02-1.25.052Z" fill="#fff"/><path d="M97.194 48.354c-.385.073-.833.146-.989.177-.219.042-.385.188-.698.615l-.416.656h-1.989l-.75.917c-.416.51-.75.958-.75 1.01 0 .042.438.104 1.021.115l1.01.031-.802 1.063a27.728 27.728 0 0 1-.864 1.104c-.094.073-.364.5-.364.573 0 .041 2.488.083 5.508.093l5.706.032-.375.635-.385.646h-8.309l-.448.573c-.25.312-.594.729-.75.916-.166.188-.312.407-.312.47 0 .093-.365.124 4.269.114 3.145-.01 5.987-.032 6.321-.063l.624-.052.459-.812c.26-.438.624-1.094.801-1.427.177-.344.396-.72.479-.844.084-.125.344-.594.594-1.031.25-.438.541-.896.646-1.021l.187-.209h-11.34l.334-.479.333-.468h3.249l3.238-.021.271-.365c.156-.187.51-.635.791-.98l.521-.624h-6.633l.406-.573c.219-.313.448-.646.53-.75.115-.156.105-.177-.145-.167-.156.021-.593.084-.979.146Zm21.742 2.5c-.416.531-.749 1-.749 1.031 0 .053.25.084.552.084h.562l-.833 1.427c-.458.791-1.229 2.114-1.708 2.937-.468.834-.885 1.563-.916 1.625-.042.105 1.093.125 6.341.125h6.404l.313-.448a6.38 6.38 0 0 1 .375-.49c.031-.03.239-.27.458-.54l.406-.49h-.646c-.343 0-.802-.032-.999-.053l-.344-.062.323-.573c.177-.312.437-.792.583-1.042.146-.26.698-1.27 1.229-2.26.541-.98 1.072-1.885 1.176-2l.198-.219h-11.964l-.761.948Zm8.456 1.73c-.229.406-.729 1.322-1.125 2.041l-.718 1.313-3.02.093-3.051.021.312-.542a176.162 176.162 0 0 1 1.739-2.99l.323-.54 1.25-.032c.697-.02 2.041-.042 2.999-.052l1.686-.031-.395.718Z" fill="#fff"/><path d="m122.3 53.802-.708 1.281h.583c.333 0 .906.032 1.291.052l.698.053.177-.323c.094-.167.312-.563.479-.875.166-.313.406-.73.52-.928.115-.197.188-.374.157-.406-.032-.031-.594-.073-1.26-.104l-1.229-.052-.708 1.302ZM251.524 77.74c-.042.114.396-.021.479-.021.083 0 .104.114.135.02.042-.114.157-.156.375-.124.167.02.281.01.25-.042.219.146.198-.042.292.031.291.156.708.031.708-.208 0-.104.073-.334.156-.49.083-.166.156-.406.156-.531s.042-.24.084-.26c.135-.052 1.916-4.552 1.843-4.667-.032-.052-.021-.104.031-.104.052 0 .167-.198.26-.438.136-.344.146-.458.042-.52-.094-.063-.094-.084 0-.084.073 0 .208-.146.302-.323.135-.27.146-.375.042-.573-.115-.198-.105-.26.041-.416.094-.094.198-.146.229-.125.021.03-.021.114-.114.187-.084.073-.156.177-.156.24 0 .052.093 0 .208-.136.114-.135.208-.344.208-.479s.042-.26.094-.292c.146-.093.552-1.406.468-1.541-.041-.063-.031-.084.032-.052.135.083.791-1.605.708-1.813-.032-.083-.011-.291.041-.458.052-.177.104-.25.104-.188.021.25.219.136.219-.125 0-.145.042-.26.094-.26.062 0 .135-.208.177-.469.031-.26.114-.469.187-.469.063 0 .032-.072-.062-.145-.208-.146-.146-.292.083-.198.094.03.146-.021.146-.167 0-.125.052-.219.114-.219.053 0 .084-.041.042-.093-.031-.053-.01-.126.052-.167.052-.031.104-.136.104-.23 0-.093.094-.374.219-.624s.198-.552.167-.657c-.032-.135 0-.208.104-.208.093 0 .145-.083.135-.24-.042-.416 0-.604.104-.541.125.083.313-.375.313-.792 0-.166.083-.396.187-.51.094-.115.167-.24.156-.26-.01-.032.115-.344.281-.699.177-.364.313-.729.313-.822a.54.54 0 0 1 .083-.26c.146-.178.344-.876.281-.98-.031-.063 0-.125.073-.156.073-.032.146-.198.156-.375.011-.177.094-.375.177-.448.115-.084 1.833-4.51 1.833-4.709 0-.02-.042-.041-.104-.041a.112.112 0 0 0-.104.104c0 .062-.177.302-.396.552a6.38 6.38 0 0 0-.646.854c-.145.23-.333.51-.437.615-.094.104-.156.24-.125.291.031.042.011.084-.052.084-.104 0-.718.948-.771 1.177-.01.073-.093.198-.197.281a2.66 2.66 0 0 0-.386.594c-.125.229-.322.51-.427.604-.114.104-.208.25-.208.333 0 .073-.041.136-.104.136-.052 0-.104.093-.104.198 0 .114-.125.343-.271.52-.146.178-.239.365-.208.417.042.052.031.115-.021.136-.042.01-.26.302-.489.635-.229.344-.563.833-.75 1.094-.187.27-.333.552-.333.614-.011.073-.052.136-.115.136-.052 0-.104.062-.104.125 0 .073-.104.24-.239.354a2.729 2.729 0 0 0-.386.52 7.506 7.506 0 0 1-.812 1.178c-.073.073-.229.333-.344.573-.124.229-.302.52-.406.635-.104.115-.333.5-.52.854-.177.355-.354.657-.396.677-.042.021-.156.198-.25.396a9.53 9.53 0 0 1-.604.938c-.229.312-.51.76-.625.99-.479.937-1.072 1.489-1.228 1.239-.042-.063-.542-.27-1.115-.458-.572-.198-1.124-.417-1.218-.5-.094-.084-.229-.115-.302-.063-.073.042-.104.031-.062-.031.041-.073-.063-.136-.271-.167-.417-.073-1.978-.594-2.051-.698-.052-.073-.688-.302-1.021-.364a1.159 1.159 0 0 1-.198-.052c-.02-.021-.062-.032-.104-.042a.573.573 0 0 1-.187-.083c-.052-.032-.375-.115-.698-.188-.333-.073-.604-.177-.604-.23 0-.04-.083-.082-.187-.082s-.229-.032-.271-.073c-.031-.042-.125-.084-.198-.094a7.3 7.3 0 0 1-.593-.146 6.614 6.614 0 0 0-.636-.156 4.581 4.581 0 0 1-.624-.24c-.25-.114-.833-.323-1.292-.479a55.226 55.226 0 0 1-1.562-.531c-.583-.219-1.676-.563-1.791-.573-.02 0-.031.062-.031.146 0 .083-.052.166-.104.187-.062.021-.125.157-.146.313a.94.94 0 0 1-.145.427c-.073.083-.094.177-.053.219.042.03-.01.125-.114.197-.104.073-.167.178-.156.23.041.145-.354.99-.458.99-.042 0-.063.04-.021.103.031.052.021.177-.042.282-.146.28-.396.906-.385.99 0 .03-.094.176-.219.312-.125.135-.364.562-.541.969-.177.395-.375.812-.427.916-.063.104-.084.23-.052.281.041.063-.011.105-.094.105-.156 0-.219.177-.177.51.021.083-.021.104-.104.052-.094-.052-.104-.02-.063.094.032.094.011.208-.062.25a.326.326 0 0 0-.136.187c-.031.24-.177.573-.26.573-.052 0-.062.073-.031.156.042.084.021.157-.042.157-.052 0-.135.125-.177.281a1.62 1.62 0 0 1-.281.573 1.64 1.64 0 0 0-.239.573c-.011.156-.084.302-.146.323-.063.02-.115.125-.115.24 0 .114-.062.228-.145.26-.084.031-.438.562-.542.937-.094.365-.219.667-.26.667-.052 0-.094.094-.094.198 0 .114-.062.27-.135.344-.271.27-.708 1.03-.646 1.125.042.062.01.104-.052.104-.073 0-.094.073-.063.156.032.094-.01.188-.093.219-.188.073-.208.27-.021.229.073-.02.146 0 .156.042.063.218 0 .312-.177.26-.146-.031-.187-.01-.146.104.032.084-.052.271-.187.417l-.25.27 5.571-.062c3.061-.031 7.778-.083 10.465-.104 2.697-.02 5.029-.146 5.196-.125.187.02.521.01.385 0M257.616 62c0 .052-.052.104-.115.104-.052 0-.073-.052-.042-.104.032-.063.084-.104.115-.104.021 0 .042.041.042.104Zm-3.124 5c0 .052.052-.104-.011-.104-.052 0-.072-.052-.041-.104.031-.063-.021.104.01.104.021 0 .042.041.042.104Zm-13.173 2.344c.177.073.5.208.729.291.229.084.667.25.979.375.302.125.646.22.75.22.114 0 .198.04.198.103 0 .052.114.105.26.105.135 0 .406.062.594.145.676.292 1.801.709 2.061.76.136.022.302.084.365.126.052.052.271.135.468.208 1.021.344 1.219.552.459.48-.261-.022-.594.01-.74.083-.208.093-.281.093-.312 0-.031-.084-.125-.084-.333 0-.157.062-.386.073-.49.02-.302-.125-1.499-.156-1.499-.041 0 .062-.042.083-.094.052-.042-.031-.448-.063-.875-.084-.437-.01-.77-.052-.739-.104.031-.041.01-.083-.052-.083a.21.21 0 0 0-.156.094c-.031.052-.5.073-1.021.052-.531-.031-1.353-.063-1.832-.084-.469-.02-.875-.052-.906-.083-.073-.073.458-1.062.645-1.208.125-.084.136-.125.032-.125-.105 0-.094-.052.031-.188.104-.104.146-.229.104-.26-.031-.042-.021-.073.042-.073.052 0 .208-.24.333-.52.26-.574.291-.584.999-.261Zm14.214.781a.105.105 0 0 1-.104.104.112.112 0 0 1-.104-.104c0-.063.052-.104.104-.104.062 0 .104.041.104.104Zm-17.775 4.781a1.155 1.155 0 0 0-.156.156c-.052.053-.083 0-.083-.124 0-.157.041-.209.166-.157.094.031.125.094.073.125Zm-6.831.865c-.031.083-.062.052-.062-.063-.011-.114.021-.177.052-.135.031.031.042.125.01.198Zm3.312.083c-.032.052-.104.104-.167.104-.052 0-.094-.052-.094-.104 0-.062.073-.104.167-.104.083 0 .125.042.094.104Zm9.705.48c-.032.03-.125.041-.198.01-.084-.031-.052-.063.062-.063.115-.01.177.021.136.052Zm-8.612.353a.105.105 0 0 1-.104.105c-.052 0-.104-.052-.104-.105 0-.062.052-.104.104-.104.062 0 .104.042.104.105Zm-4.165.157c0 .125-.198.125-.24 0-.041-.094-.01-.125.094-.084a.467.467 0 0 1 .146.084Zm1.572.354c-.125.125-.218.177-.218.115 0-.157.354-.542.395-.428.021.052-.062.198-.177.313ZM79.138 49.802c0 .063-.031.104-.073.094a.585.585 0 0 0-.24.052c-.083.031-.416.135-.728.24-.313.093-.75.24-.969.312-.208.083-.458.146-.541.146-.073 0-.27.052-.437.125a2.494 2.494 0 0 1-.448.135 8.86 8.86 0 0 0-.885.24c-.406.114-1.27.312-1.927.437-.656.115-1.29.24-1.416.26-.177.042-.26.22-.448 1-.135.532-.28 1.032-.322 1.126a6.517 6.517 0 0 0-.313.843c-.25.76-.458 1.271-.687 1.688-.073.146-.146.344-.146.427 0 .083-.073.208-.156.281a.531.531 0 0 0-.156.355c0 .114-.083.364-.198.541-.104.177-.23.427-.27.573-.074.23-.24.615-.636 1.5-.073.167-.24.594-.364.938a15.78 15.78 0 0 1-.521 1.28c-.167.355-.302.688-.302.75 0 .053-.114.345-.25.647-.27.573-.291.625-1 2.323-.239.573-.5 1.177-.583 1.343-.083.167-.145.344-.145.407 0 .052-.063.24-.146.416-.354.823-.49 1.177-.49 1.271 0 .052-.062.177-.135.26-.198.23-.479.844-.479 1.032 0 .094-.063.26-.135.375-.157.229-.531 1.156-.688 1.719a21.925 21.925 0 0 1-.885 2.447 4.587 4.587 0 0 0-.322.97c-.042.239-.115.437-.167.437-.052 0-.094.083-.094.198 0 .177-.166.625-.593 1.552-.084.198-.125.375-.094.416.031.032-.01.177-.115.323a1.401 1.401 0 0 0-.197.563c-.021.166-.136.458-.24.635-.114.177-.302.625-.427 1-.135.375-.27.719-.323.771a.471.471 0 0 0-.093.27c0 .178-.292.834-.407.938-.041.032-.125.282-.197.573a5.248 5.248 0 0 1-.292.823c-.187.375-.187.584-.01.584.145 0 1-.26 1.374-.417.438-.177.625-.24.708-.23.042.011.25-.051.469-.145a3.11 3.11 0 0 1 .625-.209.852.852 0 0 0 .385-.145.886.886 0 0 1 .375-.157c.49-.093 1.655-.593 1.655-.708 0-.073.052-.062.105.031.072.115.104.115.104.021 0-.073.052-.104.104-.073.062.031.104.021.104-.041 0-.063.073-.084.156-.052.083.03.385-.021.677-.115.468-.156.51-.198.396-.344-.125-.156-.115-.166.041-.041.146.114.25.114.573.01 1.541-.49 1.926-.615 2.478-.77a82.336 82.336 0 0 0 2.291-.699 289.97 289.97 0 0 1 3.645-1.114 56.89 56.89 0 0 0 1.093-.323c.375-.115.77-.22.885-.24.115-.02.958-.27 1.874-.573.917-.291 2.03-.635 2.479-.76.437-.125.802-.26.802-.302 0-.042-.209-.073-.47-.084-.332 0-.447.032-.395.115.042.083.01.083-.093-.01-.125-.094-.355-.105-.98-.032-.457.063-1.311.136-1.915.156-.604.032-1.281.105-1.51.167-.23.052-.885.125-1.458.146-.916.052-1.479.104-3.228.313-.406.052-2.103.208-3.957.364-.51.042-.948.073-.968.063-.021-.021.323-1.063.76-2.24.073-.198.375-.906.656-1.563a50.87 50.87 0 0 0 .698-1.718c.104-.292.291-.76.426-1.052.136-.282.407-.938.604-1.459.604-1.593 1.583-4 2.145-5.25.292-.656.677-1.552.854-1.979.167-.427.417-1.02.552-1.302.583-1.23 1.646-3.437 1.677-3.48.104-.114 6.924-.187 7.122-.062.052.032.323.032.594-.01.395-.063.572-.167.989-.583.281-.282.479-.552.448-.594-.021-.052.052-.125.187-.167.031-.052-.01-.052.042-.125-.094-.02.093-.01.125-.062.03-.052.041-.073-.032-.104.105.041.178-.021.22-.167.03-.115.093-.219.135-.219.093 0 .583-.479 1.395-1.364.281-.313.614-.636.75-.72.187-.135.208-.187.104-.333-.115-.156-.604-.177-4.759-.24-4.634-.062-5.258-.082-5.363-.187-.093-.093 1.01-2.541 1.49-3.322.135-.22.239-.47.239-.553a.24.24 0 0 1 .146-.218c.187-.073.291-.334.166-.407-.062-.041-.104-.01-.104.042Zm-7.341 5.427a.264.264 0 0 1-.187.104c-.073 0-.063-.041.03-.104.199-.125.24-.125.157 0Zm-2.853 4.615c-.104.093-.115.083-.052-.063.031-.104.094-.156.125-.125.031.032 0 .115-.073.188Z" fill="#fff"/><path d="M235.488 52.688c-.802.26-1.645.52-1.874.583a2.077 2.077 0 0 0-.583.26c-.094.073-.24.115-.333.073-.094-.031-.323.01-.511.094-.187.094-.593.219-.885.292-.302.072-.552.166-.552.208 0 .042-.083.052-.177.031-.104-.02-.395.063-.656.198-.489.25-.468.209-1.364 2.104-.198.396-.343.813-.323.907.011.104-.052.187-.135.187-.146 0-.198.115-.167.386.011.072-.02.135-.083.135-.052 0-.125.135-.166.302a1.228 1.228 0 0 1-.271.51c-.104.125-.188.26-.177.303.021.072-1.979 3.833-2.458 4.718a4.117 4.117 0 0 0-.25.521c-.416.99-.687 1.52-.812 1.594-.083.041-.146.166-.146.27 0 .178-.312.896-.749 1.73-.115.229-.427.833-.688 1.354-.26.51-.52 1.01-.593 1.094-.073.083-.156.323-.198.52-.031.209-.156.448-.271.553a.709.709 0 0 0-.229.406c0 .135-.021.291-.021.364-.01.073-.093.188-.197.26-.094.074-.188.293-.209.47-.01.229-.073.343-.177.343-.114 0-.125.021-.02.084.093.062.083.135-.063.291a2.694 2.694 0 0 0-.385.646c-.104.24-.229.438-.281.438-.042 0-.084.135-.084.312 0 .167-.041.313-.083.313-.083 0-.375.625-.344.75 0 .052-.041.083-.104.083-.052 0-.073.052-.041.115.041.052-.011.208-.125.323-.104.124-.125.187-.063.145.094-.052.115-.02.073.084-.031.093-.135.166-.219.166-.072 0-.135.063-.125.125.021.073-.104.396-.26.709-.156.312-.375.833-.479 1.145-.219.657-.489 1.22-.635 1.303a.3.3 0 0 0-.094.208c0 .083-.114.406-.26.719-.146.312-.26.614-.26.666 0 .052-.125.313-.271.584-.146.26-.24.479-.208.479.031 0-.063.208-.198.458-.146.26-.261.563-.261.677 0 .104-.041.219-.083.24-.052.01-.271.427-.5.916-.218.49-.437.896-.479.917-.052.021-.083.084-.083.136 0 .062-.146.406-.323.78-.177.376-.291.72-.26.75.031.032-.011.136-.104.24-.188.22-.084.302.281.23a.574.574 0 0 0 .396-.313c.135-.302.239-.26.26.094.01.187.073.24.312.25l.302.01-.25-.187c-.208-.156-.229-.209-.104-.323.084-.073.115-.084.084-.021-.063.115.156.219.666.313.094.02.229-.073.291-.209.105-.187.219-.24.563-.24.906-.01 1.01-.03 1.01-.187 0-.115.125-.156.5-.156.291 0 .687-.094.947-.219.25-.115.51-.187.594-.156.083.031.146-.01.146-.094 0-.156.083-.187.437-.187.104 0 .167-.032.135-.073-.021-.042.198-.105.5-.136.292-.041.552-.114.573-.177.021-.052.146-.104.281-.104.135 0 .281-.052.312-.104.042-.063.115-.084.167-.042.052.031.156.01.229-.041.073-.053.24-.084.385-.073.146.01.334-.032.417-.105a.668.668 0 0 1 .229-.156c.114-.01.416-.104.698-.219.135-.052.333-.073.437-.041.114.041.198.02.198-.052 0-.063.041-.094.093-.052.053.03.125.01.167-.052.031-.053.021-.105-.042-.105-.062 0-.072-.083-.041-.177.041-.114.083-.125.114-.052.042.136.448.167.823.063.135-.042.208-.105.177-.157-.031-.052.042-.104.156-.114.125 0 .281-.01.354-.021a.384.384 0 0 0 .198-.115c.052-.062.083-.052.083.032 0 .104.042.104.167-.021.135-.146.531-.23.812-.177a.154.154 0 0 0 .156-.084c.042-.052.188-.114.344-.135.156-.02.312-.073.354-.115.042-.041.187-.073.323-.073.135 0 .323-.041.427-.093.218-.115.572-.26 1.093-.469.271-.104.385-.115.385-.042 0 .073.063.032.146-.073.083-.114.198-.166.313-.125.093.042.281 0 .416-.083.125-.083.271-.125.302-.083.042.031.073.01.073-.063s.042-.104.094-.062c.052.031.125.01.166-.052.032-.052.219-.105.417-.105.187 0 .364-.062.395-.145.032-.073.25-.167.49-.209.26-.041.396-.104.354-.177-.042-.073.021-.073.167.01.124.074.208.084.177.032-.042-.052.062-.104.218-.104.375-.01.583-.063.667-.188.041-.062.229-.104.416-.114.562-.01.917-.146.917-.365 0-.208.156-.27.26-.104.062.115.625.063.937-.073.614-.281.791-.385.687-.417-.062-.02-1.083.063-2.27.177-1.187.115-3.426.334-4.977.48-1.541.145-3.468.343-4.269.427-.802.083-1.833.177-2.291.208-.458.031-1.083.063-1.385.083-.302.021-.563 0-.594-.041-.021-.042.052-.26.167-.48.114-.218.312-.687.427-1.03.114-.344.239-.647.281-.678.114-.083.739-1.364.739-1.531 0-.073.052-.135.115-.135.052 0 .073-.053.041-.105-.031-.062-.02-.104.032-.104.052 0 .177-.25.27-.562.105-.313.25-.594.334-.625.073-.032.114-.125.083-.219-.031-.083-.01-.156.052-.156s.115-.073.115-.157c0-.083.114-.322.26-.53.146-.21.26-.438.26-.511 0-.073.094-.25.219-.406.114-.146.187-.271.146-.271-.032 0 0-.094.083-.219.083-.115.135-.302.104-.417-.031-.104 0-.198.063-.198.062 0 .114-.073.114-.156s.042-.156.083-.156c.125 0 .646-1.167.646-1.438 0-.125.052-.229.115-.229.052 0 .083-.041.052-.094-.032-.052.01-.145.093-.218.177-.146 1.094-2.042 1.094-2.271 0-.084.031-.125.073-.094.072.083.437-.625.447-.865 0-.083.094-.218.209-.291a.499.499 0 0 0 .208-.386c0-.145.031-.26.083-.26.073 0 .146-.156.448-.927.073-.198.26-.604.416-.885.157-.292.438-.834.615-1.209.177-.375.375-.75.427-.833.093-.156 1.53-2.74 2.093-3.959.177-.374.354-.75.406-.833.052-.083.166-.323.26-.52.094-.199.219-.449.271-.553.906-1.77 1.853-3.77 1.853-3.906 0-.135.302-.656.438-.75.041-.031.166-.281.281-.552.26-.615.312-.615-1.604-.01Zm-1.874 1.708c.031.052-.01.104-.094.104-.093 0-.166-.052-.166-.104 0-.063.041-.104.093-.104.063 0 .136.041.167.104Zm.646.437c-.032.084-.063.053-.063-.062-.01-.115.021-.177.052-.136.031.032.042.126.011.198Zm-1.562.355c-.032.03-.125.041-.198.01-.084-.031-.052-.063.062-.063.115-.01.177.021.136.053Zm-.49.77c-.062.115-.125.209-.146.209-.02 0-.02-.094.011-.209.031-.114.094-.208.156-.208.052 0 .042.094-.021.208Zm-3.269 1.021c-.188.167-.188.167-.063-.062.063-.136.146-.219.188-.188.031.042-.021.146-.125.25Zm1.082.313c0 .156-.02.156-.104.02-.135-.208-.135-.343 0-.26.063.031.104.146.104.24Zm-4.269 10.062c0 .031-.041.084-.104.115-.052.031-.104.01-.104-.042 0-.062.052-.115.104-.115.063 0 .104.021.104.042Zm-1.062 7.604c-.073.084-.156.125-.177.115-.052-.063.104-.26.208-.26.052 0 .042.062-.031.145Zm11.371 6.521c0 .052-.021.104-.042.104-.031 0-.083-.052-.114-.104-.031-.062-.011-.104.041-.104.063 0 .115.042.115.104Zm-1.145.625c0 .052-.052.104-.115.104-.052 0-.073-.052-.042-.104.032-.062.084-.104.115-.104.021 0 .042.042.042.104Zm-11.507 3.125c.032.052.011.104-.041.104-.063 0-.115-.052-.115-.104 0-.062.021-.104.042-.104.031 0 .083.042.114.104ZM215.62 88c-.031.031-.125.042-.197.01-.084-.03-.052-.062.062-.062.115-.01.177.02.135.052Zm-34.237-32.698c-.104.104-.198.25-.198.333 0 .084-.042.157-.083.157-.052 0-.094.145-.104.323 0 .177-.063.385-.125.458-.073.083-.094.187-.073.24.031.041-.032.291-.146.541-.115.25-.26.656-.323.896-.062.25-.146.48-.198.51-.052.032-.093.167-.093.313 0 .135-.042.25-.105.25-.052 0-.104.125-.104.292 0 .156-.073.395-.166.52-.094.136-.136.271-.104.303.031.041-.011.145-.105.25-.083.093-.166.322-.166.5-.011.177-.052.322-.104.322s-.073.042-.042.094c.083.125-.333 1.281-.666 1.896a.898.898 0 0 0-.104.406 1.2 1.2 0 0 1-.115.438 1.205 1.205 0 0 0-.146.385c-.052.49-.354 1.344-.468 1.344-.052 0-.073.083-.063.177.021.104-.031.281-.104.396a.968.968 0 0 0-.146.49c0 .166-.041.291-.104.291-.052 0-.104.115-.104.25s-.042.27-.094.292c-.062.01-.125.25-.156.51-.073.563-.135.76-.364 1.115-.084.135-.177.344-.188.448a2.602 2.602 0 0 1-.187.5 1.561 1.561 0 0 0-.156.583c0 .406-.23 1.083-.375 1.146-.073.031-.104.114-.073.198.031.083-.021.26-.115.406-.093.146-.146.313-.114.365.031.062.01.104-.042.104-.062 0-.114.156-.114.344 0 .187-.073.437-.157.562-.083.125-.177.396-.218.625-.032.219-.094.438-.146.49-.052.052-.063.145-.042.218.031.073.011.167-.052.209-.062.03-.114.156-.114.27 0 .115-.052.178-.105.146-.072-.041-.093.032-.062.198.021.136.01.271-.042.292-.052.02-.104.104-.125.187a.858.858 0 0 1-.166.302c-.073.073-.115.209-.084.282.032.083.011.146-.052.146-.062 0-.093.104-.072.24a.876.876 0 0 1-.157.489c-.093.135-.177.364-.177.5 0 .125-.073.344-.156.479-.083.125-.177.469-.208.75-.042.48-.156.792-.625 1.719-.083.156-.125.354-.094.437.032.084-.01.219-.093.302-.084.094-.188.406-.229.709-.042.302-.146.635-.23.729-.083.094-.124.229-.083.291.042.063-.01.209-.114.323-.094.105-.146.23-.115.271.042.031.011.136-.073.23-.177.197-.406 1.01-.333 1.135.031.052-.01.146-.094.219-.083.072-.156.291-.156.49 0 .187-.062.374-.135.405-.073.021-.125.188-.115.365.011.167-.052.375-.135.458-.083.084-.115.198-.084.26.032.053.011.105-.052.105-.062 0-.104.062-.083.125.031.187-.25.906-.354.906-.042 0-.083.115-.083.25s-.073.417-.156.625c-.084.198-.146.406-.136.448a.78.78 0 0 1-.041.24c-.032.083-.146.427-.24.75-.094.333-.219.635-.281.666-.052.031-.073.125-.042.198.021.073-.021.219-.093.334a.752.752 0 0 0-.157.395c0 .157-.447 1.573-.697 2.23-.042.083-.063.187-.052.218 0 .031-.104.417-.24.844-.135.438-1.052 3.865-1.052 3.865.073 0 2.218-4.042 2.489-4.802.073-.178.156-.334.198-.334.083 0 .604-1 .604-1.156 0-.042.146-.281.312-.52.198-.272.281-.47.219-.532-.135-.136-.021-.386.167-.386.083 0 .114-.052.083-.104-.031-.062-.011-.104.052-.104.073 0 .094-.083.042-.24-.032-.124-.032-.197.01-.156.094.084.573-.51.573-.698 0-.062.125-.291.281-.52.177-.26.229-.417.156-.448-.073-.021-.125-.084-.125-.146 0-.063.073-.084.156-.042.084.031.146.02.146-.02-.031-.188.021-.344.094-.292.041.02.146-.105.218-.282.073-.187.198-.458.282-.625.083-.156.135-.28.104-.28-.031 0 .041-.188.166-.428.188-.354.198-.448.073-.531-.114-.084-.104-.094.042-.042.198.063.25-.094.052-.187-.073-.032-.031-.032.104 0 .135.03.229.01.229-.063 0-.125.521-1.292.75-1.708.198-.344.75-1.5 1.114-2.302.188-.407.385-.74.427-.74.052 0 .094-.062.094-.135 0-.063.177-.48.395-.896.209-.438.396-.844.417-.927a.562.562 0 0 1 .177-.271c.083-.063.125-.198.083-.333-.031-.136-.01-.23.063-.23.062 0 .25-.302.427-.666.166-.375.354-.698.416-.74.052-.031.104-.156.104-.26 0-.104.073-.26.157-.354a.608.608 0 0 0 .156-.365c0-.125.041-.219.083-.219.094 0 .437-.729.437-.906 0-.073.042-.125.104-.125.053 0 .073-.063.042-.146a.198.198 0 0 1 .073-.229c.083-.052.104-.031.042.073-.052.083-.042.104 0 .062a.372.372 0 0 0 .114-.208c.073-.344.323-.885.479-1.031.094-.094.198-.313.24-.49.041-.166.114-.312.166-.312.052 0 .094-.094.094-.209 0-.114.042-.208.104-.208.052 0 .156-.104.219-.23.114-.207.135-.322.187-.78 0-.073.063-.105.115-.073.146.094.135-.084-.021-.24-.146-.146-.187-.146 1.833-.198.791-.02 1.822-.062 2.27-.083.801-.042 1.28.062 1.01.23a.55.55 0 0 0-.156.29.546.546 0 0 1-.084.261c-.146.146-.52.938-.52 1.104 0 .105-.094.271-.209.375-.114.094-.208.25-.208.334 0 .083-.042.156-.094.156-.073 0-.218.49-.208.687 0 .032-.083.136-.198.23a1.09 1.09 0 0 0-.343.698c0 .052-.073.177-.146.26-.083.083-.167.292-.198.448l-.052.291 3.624.105 3.811-.032.25-.468c.239-.459.281-.615.312-1.125 0-.136.052-.22.104-.177.052.03.136 0 .188-.073.135-.23.552-1.271.552-1.417 0-.063.052-.125.104-.125.062 0 .104-.083.104-.188 0-.093.073-.312.156-.479.083-.156.156-.354.156-.427 0-.073.073-.166.167-.198.093-.03.146-.135.114-.208-.031-.083.011-.208.084-.27.083-.074.125-.168.093-.23-.031-.052 0-.156.063-.24.062-.083.094-.198.062-.25-.041-.052-.01-.135.052-.177.084-.041.094-.03.052.042-.041.073-.031.125.021.125.042 0 .146-.23.219-.52a3.46 3.46 0 0 1 .385-.886c.136-.198.208-.365.167-.365-.042 0-.021-.041.031-.083.104-.073.281-.417.635-1.219.104-.23.208-.437.25-.469.031-.03.24-.427.458-.885.229-.458.49-.948.583-1.094.094-.146.219-.448.302-.677.188-.594.344-.906.615-1.198.125-.146.229-.333.229-.427 0-.094.094-.292.208-.437.208-.26.281-.688.135-.709-.052 0-.177-.02-.291-.052-.115-.02-.625-.041-1.146-.031-.51 0-1.614.01-2.332.01-.719 0-1.166.042-1.26.094-.125.063-.187.063-.187-.01 0-.063-.334-.105-.844-.105-.479 0-.791.042-.729.084.094.062.063.125-.114.219-.136.072-.323.354-.438.635-.114.281-.26.542-.333.563a.25.25 0 0 0-.135.218.81.81 0 0 1-.104.344c-.167.302-.521 1.135-.521 1.24 0 .052-.094.125-.219.156s-.198.104-.166.156c.031.042 0 .292-.084.552-.072.25-.145.406-.156.354 0-.062-.073-.02-.146.073a.525.525 0 0 1-.385.188c-.135 0-.625 0-1.072-.01-.459-.011-1.219-.011-1.708-.011a15.79 15.79 0 0 1-1.802-.063c-.187-.02-.187-.03-.01-.229.104-.114.156-.208.115-.208-.042 0 0-.104.083-.23.094-.124.167-.312.167-.416 0-.104.093-.281.208-.396.114-.114.208-.25.208-.302 0-.052.073-.146.156-.219.094-.073.146-.198.115-.28-.031-.074-.011-.136.052-.136.062 0 .073-.052.041-.104-.031-.063-.01-.105.042-.105.063 0 .104-.03.094-.083-.021-.094.458-1.083.573-1.167.093-.072 2.145-4.104 2.145-4.229 0-.041.239-.479.52-.968.292-.5.521-.928.521-.97 0-.04.187-.458.416-.926.23-.48.396-.896.365-.938-.083-.135-.739-.166-1.27-.052-.198.042-.469.01-.656-.062-.261-.115-.365-.105-.584.01-.218.115-.281.115-.322.01-.032-.104-.073-.104-.177-.02-.105.083-.209.083-.334.01-.114-.052-.25-.063-.322-.02-.073.04-1.271.051-1.646.04-1.853-.301-2.259-.29-2.457-.093Zm-.146 2.833c.031.053.01.125-.052.167-.052.031-.104-.01-.104-.094 0-.187.062-.218.156-.073Zm13.12 6.782c.032.062-.01.073-.093.041-.094-.03-.167-.01-.167.052a.116.116 0 0 1-.115.115c-.083 0-.083-.052.011-.156.146-.177.271-.198.364-.052Zm1.718-.063c0 .021-.072.063-.156.104-.083.032-.156.01-.156-.041 0-.063.073-.105.156-.105.084 0 .156.021.156.042Zm9.268-6.76c-.021.02-.76.041-1.624.052l-1.604.02-.406.886c-.219.49-.406.958-.406 1.042 0 .073-.208.604-.469 1.156-.52 1.115-.562 1.292-.281 1.302.469.031 1.718-.01 2.28-.083.344-.042.688-.052.74-.032.375.136 1.218.157 2.395.073.583-.03.916-.02.916.042 0 .063.052.073.125.031.188-.114 2.385-.104 2.447.01.031.063.073.063.104-.01.031-.062.229-.093.448-.073a6.62 6.62 0 0 0 1.437 0c.292-.02.635 0 .771.042.124.052.229.052.229.01 0-.083.718-.072 1.01.021.114.032.375.01.604-.03.208-.053.385-.063.385-.022 0 .042.073.084.156.084s.156-.042.156-.084c0-.052.115-.041.261.01.135.053.281.053.302.011.052-.083 1.228-.042 1.312.052.02.021.104-.01.187-.073.073-.062.135-.083.135-.041 0 .041.073.02.157-.053.093-.072.156-.083.156-.02 0 .052.104.104.239.104h1.125c1.322.01 2.03-.031 2.187-.115.073-.052.125-.031.125.042 0 .083.041.083.156-.01.104-.094.156-.094.156-.01 0 .062.062.114.135.114.063-.01.375-.532.698-1.188.302-.656.75-1.531.968-1.979.365-.719.438-1.115.209-1.156-.386-.073-1.802-.042-1.802.041 0 .053-.073.042-.156-.03-.083-.074-.229-.105-.312-.063-.084.03-.157.02-.157-.021 0-.073-3.425-.073-3.998 0-.146.02-.323.083-.406.125-.094.062-.125.052-.073-.021.083-.135-.365-.219-1.125-.208-.385.01-.489.041-.447.156.041.114.01.114-.146.031-.167-.094-.958-.146-1.573-.104l-3.925-.02c-2.072-.022-3.78-.022-3.801-.011Zm-60.228.698c-.094.218-.167.479-.167.573 0 .104-.042.208-.094.229-.052.01-.114.104-.135.187a.579.579 0 0 1-.083.209c-.032.03-.219.406-.407.833-.187.427-.416.917-.489 1.083-.083.167-.146.344-.146.396 0 .063-.135.386-.302.74a70.865 70.865 0 0 0-1.176 2.614c-.167.406-.427 1.021-.573 1.365a32.8 32.8 0 0 0-.354.875c-.073.187-.125.219-.24.125-.125-.115-2.28-3.052-2.509-3.427a4.665 4.665 0 0 0-.365-.5 36.48 36.48 0 0 1-.676-.927c-.23-.323-.542-.73-.688-.886l-.27-.281-2.312.02c-2.135.011-2.312.032-2.458.22-.083.104-.156.28-.156.375 0 .104-.041.187-.093.187-.094 0-.25.396-.23.563a.162.162 0 0 1-.072.156c-.042.031-.198.291-.323.583a50.256 50.256 0 0 0-1.156 2.604c-.187.459-.396.907-.458.99-.073.083-.188.323-.271.52a10.82 10.82 0 0 1-.281.699l-.302.77c-.083.24-.188.49-.24.553-.052.062-.197.395-.333.74-.125.343-.291.697-.364.79a.51.51 0 0 0-.146.293c0 .072-.198.541-.427 1.041-.239.49-.593 1.292-.791 1.781-.198.49-.406.938-.459 1-.052.063-.229.49-.395.938-.167.448-.396 1.01-.51 1.24-.115.229-.177.447-.146.49.041.03.708.28 1.478.551.771.271 1.594.584 1.823.709.229.114.427.197.437.197.021-.01.187.052.396.146.198.084.468.156.593.177.136.01.261.052.292.094a.627.627 0 0 0 .26.104c.146.021.208-.02.198-.156-.01-.094.01-.177.052-.177.031 0 .125-.156.208-.344.125-.291.365-.823.792-1.791.073-.178.26-.584.406-.917.146-.334.271-.646.271-.698 0-.063.041-.104.104-.104.052 0 .073-.073.041-.156-.041-.084-.021-.157.021-.157.052 0 .146-.177.219-.396.062-.208.281-.74.489-1.166.198-.427.365-.813.365-.865 0-.041.145-.344.312-.677a7.25 7.25 0 0 0 .437-1.042c.073-.24.167-.437.219-.437.042 0 .083-.063.083-.135 0-.063.136-.417.302-.782.334-.75.25-.791 1.156.552.49.72 2.551 3.657 2.78 3.959.354.468.761 1.093.761 1.177 0 .114 3.269.125 3.373.01.042-.031.261-.031.511 0 .385.063.489.073.718.031.135-.03.281-.02.427-.02.219.01.229-.24.302-.427.052-.167.146-.303.187-.303.042 0 .302-.458.573-1.02.271-.552.708-1.459.969-2 .27-.542.489-1.01.489-1.042 0-.063.333-.813.479-1.083.062-.105.198-.355.312-.552.104-.188.198-.417.198-.49 0-.083.042-.167.083-.188.094-.03.469-.812 1.687-3.468.188-.407.729-1.532 1.198-2.5.479-.98 1.01-2.125 1.197-2.552.188-.428.459-1.021.594-1.323.291-.646.291-.75.062-.74-.104 0-1.739-.031-3.644-.073l-3.457-.083-.156.396Zm-6.373 14.52c.104.261-.011.303-.146.053-.062-.125-.073-.22-.01-.22.052 0 .125.074.156.168Zm2.093 1.292c.031.052.021.104-.042.104-.052 0-.135-.052-.166-.104-.032-.062-.021-.104.041-.104.052 0 .136.042.167.104Zm-1.302.521c0 .052-.021.104-.041.104-.032 0-.084-.052-.115-.104-.031-.063-.01-.104.042-.104.062 0 .114.041.114.104Zm-13.016 3.792c0 .02-.073.073-.167.104-.083.031-.125.02-.093-.042.062-.104.26-.146.26-.062Zm29.781-18.302c-.125.26-.219.5-.219.53 0 .032-.052.126-.135.21-.125.145-1.822 3.051-1.822 3.166 0 .062-1.187 2.552-2.812 5.937-1.176 2.448-2.062 4.313-2.124 4.51-.073.24-.604.105 5.269 1.303 2.645.541 6.883 1.406 9.403 1.927 2.52.52 4.686.948 4.8.948.177 0 .333-.219.739-1.052.292-.584.521-1.104.521-1.156 0-.063 1.083-2.282 2.395-4.938 1.895-3.792 2.385-4.854 2.27-4.927-.083-.052-1.364-.094-2.843-.094-1.489-.01-3.967-.031-5.518-.052-1.552-.02-2.968 0-3.156.042-.291.052-.395.166-.614.594a9.771 9.771 0 0 0-.417.927c-.072.218.125-.188-.052.093-.395.636-.614 1.115-.531 1.188.032.031 1.406.062 3.041.062l2.999.01-.906 1.772c-.614 1.187-.885 1.625-.958 1.552-.031-.032-.167-.073-.302-.084a2.12 2.12 0 0 1-.427-.114c-.104-.042-.375-.084-.604-.084-.229-.01-.416-.052-.416-.093 0-.032-.198-.094-.438-.136a5.766 5.766 0 0 1-.77-.166 4.87 4.87 0 0 0-.625-.146 4.951 4.951 0 0 1-.719-.167 5.974 5.974 0 0 0-.728-.146 14.96 14.96 0 0 1-.625-.094 9.355 9.355 0 0 0-.75-.104 2.174 2.174 0 0 1-.646-.156 1.145 1.145 0 0 0-.468-.115c-.146 0-.281-.041-.313-.093-.041-.052-.197-.073-.374-.052l-.302.052.218-.5c.115-.271.25-.552.292-.604.166-.209.833-1.51.781-1.51-.031 0 .041-.095.156-.21.115-.114.208-.28.208-.364 0-.094.104-.333.24-.552.125-.208.302-.531.385-.698.083-.177.177-.333.208-.364.032-.032.177-.323.334-.657.187-.375.354-.593.468-.604.156-.01 1.593-.073 2.218-.094.323-.01 2.478-.01 3.894.011 1.51.02 1.729.02 2.083 0 .26-.02 3.665-.042 4.332-.031l.479.01 2.062-2.969c.718-1.114 1.291-2.062 1.249-2.093-.125-.136-6.924-.125-6.924.01 0 .073-.032.073-.084-.01-.125-.198-4.758-.136-4.717.062.031.125 0 .125-.114.021-.084-.063-.198-.115-.24-.104a.651.651 0 0 1-.198-.01c-.322-.094-4.831-.053-4.831.041 0 .063-.052.052-.125-.02-.156-.157-.333-.167-.229-.011.041.083.01.083-.125.01-.115-.062-.75-.104-1.416-.104l-1.219.01-.208.48Zm-65.32.927c-.032.03-2.052.062-4.488.072-2.437.011-4.436.063-4.436.105 0 .052-.052.052-.104.02-.177-.104-2.53-.135-2.791-.041a.54.54 0 0 1-.458-.021c-.188-.094-.208-.094-.156.042.03.093.02.177-.032.198-.041.02-.552 1.197-.989 2.114-1.51 3.115-1.957 4.063-1.978 4.115-.073.291-.188.52-.271.52-.052 0-.094.084-.094.199 0 .104-.083.302-.198.437-.104.135-.198.292-.208.354-.01.052-.114.313-.229.563-.104.25-.198.51-.198.594 0 .072-.041.156-.094.187-.052.031-.26.469-.479.969-.864 2.02-1.52 3.531-1.614 3.698-.177.312-.114.375.344.343.24-.02 1.958-.073 3.301-.104 2.28-.062 2.457-.083 2.635-.281.093-.115.177-.281.177-.365 0-.083.177-.593.385-1.135.302-.75.437-.98.583-.98.24 0 3.103 1.022 3.238 1.157a.512.512 0 0 0 .292.094c.104 0 .333.094.52.208.188.115.417.209.51.209.094 0 .292.093.448.218.146.115.386.23.521.24.146.01.323.073.396.135a.524.524 0 0 0 .291.104c.084 0 .48.157.875.334.406.187 1.312.573 2.03.864.73.292 1.365.563 1.417.605.062.03.27.135.468.208.344.125 1.167.49 2.145.948.23.104.459.198.5.198.052 0 .26.104.469.229.198.125.437.24.51.25.083.02.396.146.708.291.313.146.604.271.635.271.042 0 .26.094.49.198 1.187.563 2.02.927 2.249 1 .146.042.427.188.625.302.895.552.864.552 1.864-.135.489-.344 1.28-.885 1.759-1.208.469-.323.854-.625.854-.688 0-.063.052-.073.104-.042.063.032.105.01.105-.041 0-.063.062-.115.145-.115.073 0 .198-.073.281-.166.073-.084.365-.282.646-.417.677-.344.625-.49-.292-.771-.229-.073-.708-.26-1.062-.427-.354-.167-.697-.302-.76-.302a.84.84 0 0 1-.291-.094c-.219-.125-.646-.302-1.843-.792-.51-.218-1.177-.5-1.469-.635-.291-.135-.562-.25-.614-.25-.042 0-.364-.135-.718-.302-.719-.344-1.104-.5-1.99-.844-.343-.135-.645-.27-.676-.302-.115-.135-.844-.333-.948-.26-.073.041-.094.03-.062-.032.104-.166-.24-.26-.406-.125-.115.094-.136.094-.094-.03.042-.095-.031-.188-.177-.261-.52-.25-1.323-.552-1.458-.552-.073 0-.344-.105-.604-.23-.687-.322-.875-.406-1.072-.437-.48-.063-.084-.323 2.218-1.396 1.832-.864 2.05-.958 2.176-.958a.116.116 0 0 0 .114-.115c0-.062.063-.094.136-.062.062.031.5-.136.958-.365.458-.229.968-.479 1.124-.562.167-.084.365-.146.448-.146.083 0 .146-.042.146-.094 0-.042.166-.115.364-.146.198-.031.5-.146.656-.26.156-.104.646-.354 1.094-.542.447-.198.864-.416.926-.49.073-.093-.062-.656-.541-2.114-.364-1.094-.594-2.427-.646-2.458-.041-.032-.062-.094-.041-.136.031-.041 0-.083-.073-.093l-.75-.115c-.343-.042-2.114-.084-3.926-.094-1.811 0-3.342-.031-3.394-.062-.052-.032-.125-.032-.156 0Zm-1.854 4.53c-.135.105-.333.199-.437.199a.846.846 0 0 0-.365.104c-.323.188-1.29.531-1.343.48-.031-.032-.291.072-.594.228-.291.157-.645.292-.79.313a.94.94 0 0 0-.428.187c-.083.084-.28.146-.416.146a.98.98 0 0 0-.459.136c-.114.073-.603.27-1.093.427-.49.156-.958.312-1.041.343a.7.7 0 0 1-.23.073.429.429 0 0 0-.145.084c-.042.052-.156.083-.26.083-.167 0-.156-.094.156-.813.187-.437.49-1.083.666-1.437.313-.625.334-.635.823-.688.27-.03 1.635-.052 3.02-.041 1.395.01 2.582-.01 2.645-.052a.547.547 0 0 1 .322-.01c.209.051.209.062-.03.239Zm.531-.28c0 .03-.041.083-.104.114-.052.031-.104.01-.104-.041 0-.063.052-.115.104-.115.063 0 .104.02.104.042Zm-12.287 8.385c0 .052-.073.125-.167.156-.145.052-.156.042-.041-.093.145-.177.208-.198.208-.063Zm21.596 3.23c.042.051-.03.072-.145.04-.24-.062-.271-.135-.063-.135.083 0 .177.042.208.094Zm.115.947c.031.052.01.104-.042.104-.062 0-.114-.052-.114-.104 0-.062.02-.104.041-.104.032 0 .084.042.115.104Zm2.551 1.417c0 .146-.042.24-.094.208-.073-.052-.083-.24-.02-.458.041-.125.114.031.114.25Z" fill="#fff"/><path d="M105.722 61.875c-.135.02-.239.094-.239.156 0 .073-.115.355-.26.646-.146.281-.344.677-.313.76.021.074.011.105-.052.074-.052-.032-.125.104-.166.312-.032.198-.105.396-.157.427-.052.031-.073.104-.041.156.041.052.021.094-.032.094-.041 0-.197.27-.322.594-.136.333-.302.75-.386.937-.083.177-.145.386-.145.47a.508.508 0 0 1-.084.25c-.041.051-.229.447-.406.874-.187.427-.531 1.25-.77 1.823a21.544 21.544 0 0 1-.625 1.396c-.115.208-.198.448-.198.541 0 .094-.062.303-.146.47-.312.635-.312.843.011 1.145.26.24.614.438.916.5.104.02.5.24 1.458.781.291.167.562.271.614.24.052-.031.063 0 .021.062-.042.073-.021.136.031.136.219.031.271.052.635.281.198.125.469.26.604.292.125.041.229.104.229.156 0 .052.032.083.084.083.239-.041.437.032.437.157 0 .083.104.187.24.229.125.041.479.177.781.312.302.136.562.23.583.219.031-.01.166.094.312.23.146.145.271.207.271.155 0-.052.041-.03.094.042a.352.352 0 0 0 .229.156.79.79 0 0 1 .25.094c.687.406 1.489.792 1.551.74.031-.032.063-.01.063.062 0 .073.052.094.104.063.062-.032.104-.01.104.041 0 .198.198.136 1.916-.604 1.76-.75 3.374-1.354 6.674-2.479 2.739-.938 2.874-1 3.103-1.48.094-.218.178-.416.178-.458 0-.03.052-.187.124-.354.063-.156.125-.354.146-.437a.364.364 0 0 1 .146-.219c.073-.042.115-.104.115-.146-.032-.229.02-.385.239-.719.135-.197.417-.802.625-1.343.666-1.698 1.187-2.875 1.395-3.084.073-.083.094-.187.063-.25-.063-.093.125-.573.281-.708.052-.052.333-.708.364-.833 0-.032.156-.375.333-.76.188-.396.438-.886.438-.959 0-.083.041-.167.094-.198.177-.114.426-.99.301-1.062-.114-.073-21.356-.125-21.815-.063Zm6.79 5.042a31.11 31.11 0 0 1 1.666-.01c.624.01.51.01 2.186 0 2.562 0 2.968.01 2.968.072 0 .073-.885 2.01-1.208 2.854l-.187.49-1.208.438a32.41 32.41 0 0 0-1.531.572c-.177.084-.375.146-.448.146-.072 0-.26.073-.427.156-.166.084-.437.23-.603.313-.157.083-.323.125-.355.094-.031-.032-.166.01-.301.104-.438.312-.917.219-1.833-.386a35.727 35.727 0 0 0-1.385-.854c-1.822-1.02-1.323-1.562-1.041-2.125.125-.229.187-.427.145-.427-.052 0-.031-.041.032-.083.062-.042.198-.323.302-.625.197-.625.302-.688 1.062-.698.302 0 .552-.031.552-.073 0-.042.104-.042.239-.01.125.041.75.062 1.375.052Zm3.436 8.52c.031.063-.011.073-.094.042-.187-.073-.218-.146-.073-.146.063 0 .136.042.167.105Zm91.477-10.322c0 .073-.551.104-1.624.083-.885-.01-1.645.01-1.666.052-.031.052-.135.042-.229 0-.146-.073-1.437-.083-3.332-.031-.219.01-.365.073-.406.187a1.15 1.15 0 0 1-.198.344c-.073.083-.281.552-.458 1.042s-.386.979-.459 1.093c-.072.115-.239.49-.374.834-.136.344-.302.719-.386.833a.859.859 0 0 0-.135.385c0 .094-.063.24-.135.313-.125.125-.334.49-.886 1.594a7.022 7.022 0 0 0-.385 1.041c-.104.344-.229.677-.281.75a2.623 2.623 0 0 0-.239.584l-.136.448.49.302c.26.166.499.344.531.385.031.042.177.094.312.115.135.02.271.094.292.156.02.073.104.125.187.125s.146.042.146.104c0 .052.062.104.146.104.073 0 .197.073.27.157.073.083.531.156.636.156.114 0 .187.062.166.125-.01.073.063.125.167.104.104-.02.177.031.177.135a.16.16 0 0 0 .156.157c.083 0 .156.041.156.093s.115.125.26.157c.146.041.365.187.49.323.125.145.271.26.312.26.052 0 .261.125.448.27.208.157.406.24.479.188.073-.041.094-.03.062.032-.041.062.073.166.24.24.177.072.312.166.312.218 0 .052.073.094.157.094.083 0 .156.041.156.104 0 .052.073.104.156.104s.156.042.156.104c0 .052.073.104.156.104.084 0 .302.157.49.355.187.187.448.385.583.416.125.042.229.125.229.177 0 .052.146.188.333.302.333.198.333.198.667 0 .177-.114.395-.208.489-.208.083 0 .177-.052.198-.104.021-.063.135-.125.271-.156a.852.852 0 0 0 .395-.209c.094-.083.209-.135.261-.104.052.042.093.01.093-.042 0-.062.073-.114.157-.114.083 0 .156-.063.156-.146 0-.156.593-.406.739-.313.052.032.094 0 .094-.062 0-.063.041-.083.104-.052.052.031.156-.031.229-.146.094-.146.167-.177.25-.104.094.073.146.042.198-.115.041-.135.125-.198.218-.166.084.03.177-.01.219-.105.031-.093.167-.156.333-.145.448.03.531.01.469-.157-.042-.083-.021-.156.021-.166.333-.021.614-.115.645-.198.021-.052.104-.063.188-.031.083.03.208-.021.281-.115a.568.568 0 0 1 .281-.208c.083-.021.271-.084.417-.136.145-.062.291-.094.333-.073.041.032.093-.052.135-.156a.436.436 0 0 1 .271-.27c.104-.042.198-.115.198-.178 0-.062.093-.083.208-.052.115.031.239.01.271-.042.031-.052.145-.093.26-.093.24 0 .989-.365 1.239-.605.198-.197.469-.645.469-.802a1.18 1.18 0 0 1 .187-.364c.094-.146.156-.375.125-.5-.021-.125 0-.23.042-.23.093 0 .427-.812.427-1.051 0-.084.083-.25.187-.365.229-.24.542-.896.542-1.125 0-.094.052-.167.104-.167s.093-.03.083-.083c-.01-.042.042-.208.104-.365a1.63 1.63 0 0 0 .125-.375c0-.052.073-.145.156-.218a.498.498 0 0 0 .157-.323c0-.104.072-.23.156-.281.093-.042.177-.23.187-.417.011-.177.083-.354.156-.386.063-.02.125-.135.125-.24 0-.103.094-.29.209-.405.104-.125.229-.355.26-.521.042-.156.114-.386.166-.5.053-.115.177-.5.292-.854.156-.521.167-.677.063-.76-.125-.105-.75-.115-3.437-.105-.625.01-1.468.01-1.874 0-.396-.01-.771-.01-.833-.01-2.874.03-5.79.02-5.873-.032-.062-.041-.115-.03-.115.032Zm-.406 5c.063-.105.094-.105.094-.021 0 .073.073.135.156.135.084 0 .156-.031.156-.083 0-.042.198-.073.448-.063.448.021 1.885.042 3.343.032.448 0 .874.052.927.104.083.083.072.114-.011.114-.073 0-.114.032-.104.073.01.052-.052.209-.156.354a2.105 2.105 0 0 0-.229.47c-.063.332-.458 1.155-.594 1.26-.073.052-.343.177-.604.28-.52.21-.885.365-1.197.49-.115.042-.531.23-.927.407-.396.166-.771.312-.843.312-.073 0-.157.073-.198.156-.032.084-.094.146-.136.136-.041 0-.218.041-.375.104a1.444 1.444 0 0 1-.458.125c-.187 0-.76-.323-.76-.438 0-.041-.073-.083-.156-.083s-.156-.031-.156-.083c0-.042-.25-.188-.542-.323-.302-.135-.895-.48-1.322-.76-.427-.282-.885-.532-1.021-.563-.229-.063-.354-.458-.145-.458.052 0 .229-.334.385-.74.156-.396.323-.75.375-.781.041-.031.51-.073 1.041-.094.531-.031 1.062-.062 1.177-.083.114-.031.479-.01.822.031.427.042.646.031.729-.063.094-.093.125-.093.156.032.021.135.042.146.125.02Zm4.811 5.062c-.031.094-.083.146-.104.115-.031-.032-.021-.094.021-.157.094-.166.156-.135.083.042Zm.458.49c-.031.083-.062.052-.062-.063-.011-.114.021-.177.052-.135.031.031.042.125.01.198Z" fill="#fff"/></svg>